{
	"asset":{
		"generator":"Khronos glTF Blender I/O v4.4.56",
		"version":"2.0"
	},
	"scene":0,
	"scenes":[
		{
			"name":"Scene",
			"nodes":[
				3,
				4
			]
		}
	],
	"nodes":[
		{
			"name":"handle",
			"rotation":[
				-1.2833627494046596e-08,
				5.440570970761992e-16,
				-1,
				1.8022754123115216e-16
			],
			"translation":[
				-0.04692264646291733,
				0.7062880992889404,
				-2.4482122995550526e-08
			]
		},
		{
			"children":[
				0
			],
			"name":"door",
			"rotation":[
				-0.4999999403953552,
				0.5,
				0.5,
				0.5000000596046448
			],
			"translation":[
				0.375942587852478,
				0.8820462226867676,
				7.247261635257018e-08
			]
		},
		{
			"children":[
				1
			],
			"name":"root",
			"rotation":[
				-8.557136332854043e-09,
				1.7114272665708086e-08,
				-2.928983286277023e-16,
				1
			]
		},
		{
			"children":[
				2
			],
			"name":"Armature"
		},
		{
			"mesh":0,
			"name":"Cube",
			"skin":0
		}
	],
	"animations":[
		{
			"channels":[
				{
					"sampler":0,
					"target":{
						"node":2,
						"path":"translation"
					}
				},
				{
					"sampler":1,
					"target":{
						"node":2,
						"path":"rotation"
					}
				},
				{
					"sampler":2,
					"target":{
						"node":2,
						"path":"scale"
					}
				},
				{
					"sampler":3,
					"target":{
						"node":1,
						"path":"translation"
					}
				},
				{
					"sampler":4,
					"target":{
						"node":1,
						"path":"rotation"
					}
				},
				{
					"sampler":5,
					"target":{
						"node":1,
						"path":"scale"
					}
				},
				{
					"sampler":6,
					"target":{
						"node":0,
						"path":"translation"
					}
				},
				{
					"sampler":7,
					"target":{
						"node":0,
						"path":"rotation"
					}
				},
				{
					"sampler":8,
					"target":{
						"node":0,
						"path":"scale"
					}
				}
			],
			"name":"0Idle",
			"samplers":[
				{
					"input":7,
					"interpolation":"LINEAR",
					"output":8
				},
				{
					"input":7,
					"interpolation":"LINEAR",
					"output":9
				},
				{
					"input":7,
					"interpolation":"LINEAR",
					"output":10
				},
				{
					"input":7,
					"interpolation":"LINEAR",
					"output":11
				},
				{
					"input":7,
					"interpolation":"LINEAR",
					"output":12
				},
				{
					"input":7,
					"interpolation":"LINEAR",
					"output":13
				},
				{
					"input":7,
					"interpolation":"LINEAR",
					"output":14
				},
				{
					"input":7,
					"interpolation":"STEP",
					"output":15
				},
				{
					"input":7,
					"interpolation":"LINEAR",
					"output":16
				}
			]
		},
		{
			"channels":[
				{
					"sampler":0,
					"target":{
						"node":2,
						"path":"translation"
					}
				},
				{
					"sampler":1,
					"target":{
						"node":2,
						"path":"rotation"
					}
				},
				{
					"sampler":2,
					"target":{
						"node":2,
						"path":"scale"
					}
				},
				{
					"sampler":3,
					"target":{
						"node":1,
						"path":"translation"
					}
				},
				{
					"sampler":4,
					"target":{
						"node":1,
						"path":"rotation"
					}
				},
				{
					"sampler":5,
					"target":{
						"node":1,
						"path":"scale"
					}
				},
				{
					"sampler":6,
					"target":{
						"node":0,
						"path":"translation"
					}
				},
				{
					"sampler":7,
					"target":{
						"node":0,
						"path":"rotation"
					}
				},
				{
					"sampler":8,
					"target":{
						"node":0,
						"path":"scale"
					}
				}
			],
			"name":"1Lock",
			"samplers":[
				{
					"input":17,
					"interpolation":"STEP",
					"output":18
				},
				{
					"input":17,
					"interpolation":"STEP",
					"output":19
				},
				{
					"input":17,
					"interpolation":"STEP",
					"output":20
				},
				{
					"input":17,
					"interpolation":"STEP",
					"output":21
				},
				{
					"input":17,
					"interpolation":"STEP",
					"output":22
				},
				{
					"input":17,
					"interpolation":"STEP",
					"output":23
				},
				{
					"input":17,
					"interpolation":"STEP",
					"output":24
				},
				{
					"input":17,
					"interpolation":"STEP",
					"output":25
				},
				{
					"input":17,
					"interpolation":"STEP",
					"output":26
				}
			]
		},
		{
			"channels":[
				{
					"sampler":0,
					"target":{
						"node":2,
						"path":"translation"
					}
				},
				{
					"sampler":1,
					"target":{
						"node":2,
						"path":"rotation"
					}
				},
				{
					"sampler":2,
					"target":{
						"node":2,
						"path":"scale"
					}
				},
				{
					"sampler":3,
					"target":{
						"node":1,
						"path":"translation"
					}
				},
				{
					"sampler":4,
					"target":{
						"node":1,
						"path":"rotation"
					}
				},
				{
					"sampler":5,
					"target":{
						"node":1,
						"path":"scale"
					}
				},
				{
					"sampler":6,
					"target":{
						"node":0,
						"path":"translation"
					}
				},
				{
					"sampler":7,
					"target":{
						"node":0,
						"path":"rotation"
					}
				},
				{
					"sampler":8,
					"target":{
						"node":0,
						"path":"scale"
					}
				}
			],
			"name":"2Open",
			"samplers":[
				{
					"input":27,
					"interpolation":"STEP",
					"output":28
				},
				{
					"input":27,
					"interpolation":"STEP",
					"output":29
				},
				{
					"input":27,
					"interpolation":"STEP",
					"output":30
				},
				{
					"input":27,
					"interpolation":"STEP",
					"output":31
				},
				{
					"input":32,
					"interpolation":"LINEAR",
					"output":33
				},
				{
					"input":27,
					"interpolation":"STEP",
					"output":34
				},
				{
					"input":27,
					"interpolation":"LINEAR",
					"output":35
				},
				{
					"input":27,
					"interpolation":"STEP",
					"output":36
				},
				{
					"input":27,
					"interpolation":"STEP",
					"output":37
				}
			]
		},
		{
			"channels":[
				{
					"sampler":0,
					"target":{
						"node":2,
						"path":"translation"
					}
				},
				{
					"sampler":1,
					"target":{
						"node":2,
						"path":"rotation"
					}
				},
				{
					"sampler":2,
					"target":{
						"node":2,
						"path":"scale"
					}
				},
				{
					"sampler":3,
					"target":{
						"node":1,
						"path":"translation"
					}
				},
				{
					"sampler":4,
					"target":{
						"node":1,
						"path":"rotation"
					}
				},
				{
					"sampler":5,
					"target":{
						"node":1,
						"path":"scale"
					}
				},
				{
					"sampler":6,
					"target":{
						"node":0,
						"path":"translation"
					}
				},
				{
					"sampler":7,
					"target":{
						"node":0,
						"path":"rotation"
					}
				},
				{
					"sampler":8,
					"target":{
						"node":0,
						"path":"scale"
					}
				}
			],
			"name":"3Close",
			"samplers":[
				{
					"input":38,
					"interpolation":"STEP",
					"output":39
				},
				{
					"input":38,
					"interpolation":"STEP",
					"output":40
				},
				{
					"input":38,
					"interpolation":"STEP",
					"output":41
				},
				{
					"input":38,
					"interpolation":"STEP",
					"output":42
				},
				{
					"input":43,
					"interpolation":"LINEAR",
					"output":44
				},
				{
					"input":38,
					"interpolation":"STEP",
					"output":45
				},
				{
					"input":38,
					"interpolation":"LINEAR",
					"output":46
				},
				{
					"input":38,
					"interpolation":"STEP",
					"output":47
				},
				{
					"input":38,
					"interpolation":"STEP",
					"output":48
				}
			]
		}
	],
	"materials":[
		{
			"doubleSided":true,
			"name":"Material.001",
			"pbrMetallicRoughness":{
				"baseColorTexture":{
					"index":0
				},
				"metallicFactor":0,
				"roughnessFactor":0.5
			}
		}
	],
	"meshes":[
		{
			"name":"Circle.003",
			"primitives":[
				{
					"attributes":{
						"POSITION":0,
						"NORMAL":1,
						"TEXCOORD_0":2,
						"JOINTS_0":3,
						"WEIGHTS_0":4
					},
					"indices":5,
					"material":0
				}
			]
		}
	],
	"textures":[
		{
			"sampler":0,
			"source":0
		}
	],
	"images":[
		{
			"mimeType":"image/jpeg",
			"name":"door.jpg",
			"uri":"door.jpg"
		}
	],
	"skins":[
		{
			"inverseBindMatrices":6,
			"joints":[
				2,
				1,
				0
			],
			"name":"Armature"
		}
	],
	"accessors":[
		{
			"bufferView":0,
			"componentType":5126,
			"count":354,
			"max":[
				0.44902798533439636,
				1.8490240573883057,
				0.09982263296842575
			],
			"min":[
				-0.44902804493904114,
				-0.04809767007827759,
				-0.09982269257307053
			],
			"type":"VEC3"
		},
		{
			"bufferView":1,
			"componentType":5126,
			"count":354,
			"type":"VEC3"
		},
		{
			"bufferView":2,
			"componentType":5126,
			"count":354,
			"type":"VEC2"
		},
		{
			"bufferView":3,
			"componentType":5121,
			"count":354,
			"type":"VEC4"
		},
		{
			"bufferView":4,
			"componentType":5126,
			"count":354,
			"type":"VEC4"
		},
		{
			"bufferView":5,
			"componentType":5123,
			"count":1020,
			"type":"SCALAR"
		},
		{
			"bufferView":6,
			"componentType":5126,
			"count":3,
			"type":"MAT4"
		},
		{
			"bufferView":7,
			"componentType":5126,
			"count":1,
			"max":[
				0.041666666666666664
			],
			"min":[
				0.041666666666666664
			],
			"type":"SCALAR"
		},
		{
			"bufferView":8,
			"componentType":5126,
			"count":1,
			"type":"VEC3"
		},
		{
			"bufferView":9,
			"componentType":5126,
			"count":1,
			"type":"VEC4"
		},
		{
			"bufferView":10,
			"componentType":5126,
			"count":1,
			"type":"VEC3"
		},
		{
			"bufferView":11,
			"componentType":5126,
			"count":1,
			"type":"VEC3"
		},
		{
			"bufferView":12,
			"componentType":5126,
			"count":1,
			"type":"VEC4"
		},
		{
			"bufferView":13,
			"componentType":5126,
			"count":1,
			"type":"VEC3"
		},
		{
			"bufferView":14,
			"componentType":5126,
			"count":1,
			"type":"VEC3"
		},
		{
			"bufferView":15,
			"componentType":5126,
			"count":1,
			"type":"VEC4"
		},
		{
			"bufferView":16,
			"componentType":5126,
			"count":1,
			"type":"VEC3"
		},
		{
			"bufferView":17,
			"componentType":5126,
			"count":2,
			"max":[
				0.625
			],
			"min":[
				0.041666666666666664
			],
			"type":"SCALAR"
		},
		{
			"bufferView":18,
			"componentType":5126,
			"count":2,
			"type":"VEC3"
		},
		{
			"bufferView":19,
			"componentType":5126,
			"count":2,
			"type":"VEC4"
		},
		{
			"bufferView":20,
			"componentType":5126,
			"count":2,
			"type":"VEC3"
		},
		{
			"bufferView":21,
			"componentType":5126,
			"count":2,
			"type":"VEC3"
		},
		{
			"bufferView":22,
			"componentType":5126,
			"count":2,
			"type":"VEC4"
		},
		{
			"bufferView":23,
			"componentType":5126,
			"count":2,
			"type":"VEC3"
		},
		{
			"bufferView":24,
			"componentType":5126,
			"count":2,
			"type":"VEC3"
		},
		{
			"bufferView":25,
			"componentType":5126,
			"count":2,
			"type":"VEC4"
		},
		{
			"bufferView":26,
			"componentType":5126,
			"count":2,
			"type":"VEC3"
		},
		{
			"bufferView":27,
			"componentType":5126,
			"count":2,
			"max":[
				1.25
			],
			"min":[
				0.041666666666666664
			],
			"type":"SCALAR"
		},
		{
			"bufferView":28,
			"componentType":5126,
			"count":2,
			"type":"VEC3"
		},
		{
			"bufferView":29,
			"componentType":5126,
			"count":2,
			"type":"VEC4"
		},
		{
			"bufferView":30,
			"componentType":5126,
			"count":2,
			"type":"VEC3"
		},
		{
			"bufferView":31,
			"componentType":5126,
			"count":2,
			"type":"VEC3"
		},
		{
			"bufferView":32,
			"componentType":5126,
			"count":30,
			"max":[
				1.25
			],
			"min":[
				0.041666666666666664
			],
			"type":"SCALAR"
		},
		{
			"bufferView":33,
			"componentType":5126,
			"count":30,
			"type":"VEC4"
		},
		{
			"bufferView":34,
			"componentType":5126,
			"count":2,
			"type":"VEC3"
		},
		{
			"bufferView":35,
			"componentType":5126,
			"count":2,
			"type":"VEC3"
		},
		{
			"bufferView":36,
			"componentType":5126,
			"count":2,
			"type":"VEC4"
		},
		{
			"bufferView":37,
			"componentType":5126,
			"count":2,
			"type":"VEC3"
		},
		{
			"bufferView":38,
			"componentType":5126,
			"count":2,
			"max":[
				1.2916666666666667
			],
			"min":[
				0.041666666666666664
			],
			"type":"SCALAR"
		},
		{
			"bufferView":39,
			"componentType":5126,
			"count":2,
			"type":"VEC3"
		},
		{
			"bufferView":40,
			"componentType":5126,
			"count":2,
			"type":"VEC4"
		},
		{
			"bufferView":41,
			"componentType":5126,
			"count":2,
			"type":"VEC3"
		},
		{
			"bufferView":42,
			"componentType":5126,
			"count":2,
			"type":"VEC3"
		},
		{
			"bufferView":43,
			"componentType":5126,
			"count":31,
			"max":[
				1.2916666666666667
			],
			"min":[
				0.041666666666666664
			],
			"type":"SCALAR"
		},
		{
			"bufferView":44,
			"componentType":5126,
			"count":31,
			"type":"VEC4"
		},
		{
			"bufferView":45,
			"componentType":5126,
			"count":2,
			"type":"VEC3"
		},
		{
			"bufferView":46,
			"componentType":5126,
			"count":2,
			"type":"VEC3"
		},
		{
			"bufferView":47,
			"componentType":5126,
			"count":2,
			"type":"VEC4"
		},
		{
			"bufferView":48,
			"componentType":5126,
			"count":2,
			"type":"VEC3"
		}
	],
	"bufferViews":[
		{
			"buffer":0,
			"byteLength":4248,
			"byteOffset":0,
			"target":34962
		},
		{
			"buffer":0,
			"byteLength":4248,
			"byteOffset":4248,
			"target":34962
		},
		{
			"buffer":0,
			"byteLength":2832,
			"byteOffset":8496,
			"target":34962
		},
		{
			"buffer":0,
			"byteLength":1416,
			"byteOffset":11328,
			"target":34962
		},
		{
			"buffer":0,
			"byteLength":5664,
			"byteOffset":12744,
			"target":34962
		},
		{
			"buffer":0,
			"byteLength":2040,
			"byteOffset":18408,
			"target":34963
		},
		{
			"buffer":0,
			"byteLength":192,
			"byteOffset":20448
		},
		{
			"buffer":0,
			"byteLength":4,
			"byteOffset":20640
		},
		{
			"buffer":0,
			"byteLength":12,
			"byteOffset":20644
		},
		{
			"buffer":0,
			"byteLength":16,
			"byteOffset":20656
		},
		{
			"buffer":0,
			"byteLength":12,
			"byteOffset":20672
		},
		{
			"buffer":0,
			"byteLength":12,
			"byteOffset":20684
		},
		{
			"buffer":0,
			"byteLength":16,
			"byteOffset":20696
		},
		{
			"buffer":0,
			"byteLength":12,
			"byteOffset":20712
		},
		{
			"buffer":0,
			"byteLength":12,
			"byteOffset":20724
		},
		{
			"buffer":0,
			"byteLength":16,
			"byteOffset":20736
		},
		{
			"buffer":0,
			"byteLength":12,
			"byteOffset":20752
		},
		{
			"buffer":0,
			"byteLength":8,
			"byteOffset":20764
		},
		{
			"buffer":0,
			"byteLength":24,
			"byteOffset":20772
		},
		{
			"buffer":0,
			"byteLength":32,
			"byteOffset":20796
		},
		{
			"buffer":0,
			"byteLength":24,
			"byteOffset":20828
		},
		{
			"buffer":0,
			"byteLength":24,
			"byteOffset":20852
		},
		{
			"buffer":0,
			"byteLength":32,
			"byteOffset":20876
		},
		{
			"buffer":0,
			"byteLength":24,
			"byteOffset":20908
		},
		{
			"buffer":0,
			"byteLength":24,
			"byteOffset":20932
		},
		{
			"buffer":0,
			"byteLength":32,
			"byteOffset":20956
		},
		{
			"buffer":0,
			"byteLength":24,
			"byteOffset":20988
		},
		{
			"buffer":0,
			"byteLength":8,
			"byteOffset":21012
		},
		{
			"buffer":0,
			"byteLength":24,
			"byteOffset":21020
		},
		{
			"buffer":0,
			"byteLength":32,
			"byteOffset":21044
		},
		{
			"buffer":0,
			"byteLength":24,
			"byteOffset":21076
		},
		{
			"buffer":0,
			"byteLength":24,
			"byteOffset":21100
		},
		{
			"buffer":0,
			"byteLength":120,
			"byteOffset":21124
		},
		{
			"buffer":0,
			"byteLength":480,
			"byteOffset":21244
		},
		{
			"buffer":0,
			"byteLength":24,
			"byteOffset":21724
		},
		{
			"buffer":0,
			"byteLength":24,
			"byteOffset":21748
		},
		{
			"buffer":0,
			"byteLength":32,
			"byteOffset":21772
		},
		{
			"buffer":0,
			"byteLength":24,
			"byteOffset":21804
		},
		{
			"buffer":0,
			"byteLength":8,
			"byteOffset":21828
		},
		{
			"buffer":0,
			"byteLength":24,
			"byteOffset":21836
		},
		{
			"buffer":0,
			"byteLength":32,
			"byteOffset":21860
		},
		{
			"buffer":0,
			"byteLength":24,
			"byteOffset":21892
		},
		{
			"buffer":0,
			"byteLength":24,
			"byteOffset":21916
		},
		{
			"buffer":0,
			"byteLength":124,
			"byteOffset":21940
		},
		{
			"buffer":0,
			"byteLength":496,
			"byteOffset":22064
		},
		{
			"buffer":0,
			"byteLength":24,
			"byteOffset":22560
		},
		{
			"buffer":0,
			"byteLength":24,
			"byteOffset":22584
		},
		{
			"buffer":0,
			"byteLength":32,
			"byteOffset":22608
		},
		{
			"buffer":0,
			"byteLength":24,
			"byteOffset":22640
		}
	],
	"samplers":[
		{
			"magFilter":9729,
			"minFilter":9987
		}
	],
	"buffers":[
		{
			"byteLength":22664,
			"uri":"door.bin"
		}
	]
}
