# Blender 4.4.1
# www.blender.org
mtllib key.mtl
o Plane
v 0.039918 -0.008000 -0.062794
v 0.049942 -0.008000 -0.072818
v -0.050002 -0.008000 -0.072818
v -0.039978 -0.008000 -0.062794
v 0.039918 -0.008000 -0.162738
v 0.049942 -0.008000 -0.152714
v -0.039978 -0.008000 -0.162738
v -0.050002 -0.008000 -0.152714
v 0.024186 -0.008000 -0.062794
v -0.024244 -0.008000 -0.062794
v 0.024186 -0.008000 -0.050326
v -0.024244 -0.008000 -0.050326
v 0.013808 -0.008000 -0.050326
v -0.013866 -0.008000 -0.050326
v 0.013808 -0.008000 0.108132
v 0.002328 -0.008000 0.119612
v -0.013866 -0.008000 0.108132
v -0.002386 -0.008000 0.119612
v -0.013858 -0.008000 0.081542
v 0.013808 -0.008000 -0.023808
v 0.008660 -0.008000 -0.017754
v -0.013866 -0.008000 -0.023808
v 0.013798 -0.008000 0.081542
v -0.008718 -0.008000 -0.017754
v 0.013468 -0.008000 -0.011676
v -0.013528 -0.008000 -0.011676
v -0.009726 -0.008000 0.022042
v 0.008494 -0.008000 0.025576
v 0.013562 -0.008000 0.009034
v 0.013516 -0.008000 0.001798
v 0.013540 -0.008000 0.005276
v -0.013576 -0.008000 0.001798
v -0.013036 -0.008000 0.009034
v -0.009788 -0.008000 0.005276
v 0.013710 -0.008000 0.047768
v 0.013650 -0.008000 0.030718
v 0.013690 -0.008000 0.043080
v 0.008392 -0.008000 0.037354
v -0.013710 -0.008000 0.024654
v -0.013768 -0.008000 0.045572
v -0.013730 -0.008000 0.040100
v -0.010470 -0.008000 0.043080
v 0.013758 -0.008000 0.068218
v -0.013818 -0.008000 0.068218
v 0.008890 -0.008000 0.074658
v -0.008950 -0.008000 0.074658
v 0.013164 -0.008000 0.019822
v -0.013022 -0.008000 0.019186
v 0.039918 0.008000 -0.062794
v 0.049942 0.008000 -0.072818
v -0.050002 0.008000 -0.072818
v -0.039978 0.008000 -0.062794
v 0.039918 0.008000 -0.162738
v 0.049942 0.008000 -0.152714
v -0.039978 0.008000 -0.162738
v -0.050002 0.008000 -0.152714
v 0.024186 0.008000 -0.062794
v -0.024244 0.008000 -0.062794
v 0.024186 0.008000 -0.050326
v -0.024244 0.008000 -0.050326
v 0.013808 0.008000 -0.050326
v -0.013866 0.008000 -0.050326
v 0.013808 0.008000 0.108132
v 0.002328 0.008000 0.119612
v -0.013866 0.008000 0.108132
v -0.002386 0.008000 0.119612
v -0.013858 0.008000 0.081542
v 0.013808 0.008000 -0.023808
v 0.008660 0.008000 -0.017754
v -0.013866 0.008000 -0.023808
v 0.013798 0.008000 0.081542
v -0.008718 0.008000 -0.017754
v 0.013468 0.008000 -0.011676
v -0.013528 0.008000 -0.011676
v -0.009726 0.008000 0.022042
v 0.008494 0.008000 0.025576
v 0.013562 0.008000 0.009034
v 0.013516 0.008000 0.001798
v 0.013540 0.008000 0.005276
v -0.013576 0.008000 0.001798
v -0.013036 0.008000 0.009034
v -0.009788 0.008000 0.005276
v 0.013710 0.008000 0.047768
v 0.013650 0.008000 0.030718
v 0.013690 0.008000 0.043080
v 0.008392 0.008000 0.037354
v -0.013710 0.008000 0.024654
v -0.013768 0.008000 0.045572
v -0.013730 0.008000 0.040100
v -0.010470 0.008000 0.043080
v 0.013758 0.008000 0.068218
v -0.013818 0.008000 0.068218
v 0.008890 0.008000 0.074658
v -0.008950 0.008000 0.074658
v 0.013164 0.008000 0.019822
v -0.013022 0.008000 0.019186
vn -0.0000 -1.0000 -0.0000
vn -0.0000 -0.0000 1.0000
vn -0.0000 1.0000 -0.0000
vn -0.0000 -0.0000 -1.0000
vn 0.9993 -0.0000 0.0369
vn -1.0000 -0.0000 -0.0000
vn 1.0000 -0.0000 -0.0036
vn 1.0000 -0.0000 -0.0038
vn 1.0000 -0.0000 -0.0000
vn -1.0000 -0.0000 -0.0022
vn -1.0000 -0.0000 -0.0036
vn 0.7071 -0.0000 0.7071
vn 0.7061 -0.0000 -0.7081
vn -1.0000 -0.0000 0.0014
vn 0.7843 -0.0000 -0.6204
vn -0.5483 -0.0000 -0.8363
vn -1.0000 -0.0000 -0.0013
vn -0.7071 -0.0000 0.7071
vn 1.0000 -0.0000 -0.0033
vn 1.0000 -0.0000 -0.0023
vn 0.7765 -0.0000 0.6302
vn 0.8142 -0.0000 -0.5805
vn 0.7838 -0.0000 0.6210
vn -0.7071 -0.0000 -0.7071
vn -0.6763 -0.0000 0.7366
vn -0.8142 -0.0000 -0.5805
vn -0.6549 -0.0000 0.7557
vn -0.6747 -0.0000 0.7381
vn 0.7071 -0.0000 -0.7071
vn -0.7842 -0.0000 -0.6206
vn 0.7340 -0.0000 -0.6791
vn 1.0000 -0.0000 -0.0064
vn 0.7977 -0.0000 0.6030
vn 0.7979 -0.0000 0.6027
vn -0.7977 -0.0000 0.6030
vn 0.7618 -0.0000 0.6478
vn -0.6029 -0.0000 -0.7978
vn -0.7566 -0.0000 -0.6539
vn -1.0000 -0.0000 -0.0003
vn -0.7618 -0.0000 0.6478
vn 1.0000 -0.0000 -0.0043
vn 1.0000 -0.0000 -0.0062
vn 1.0000 -0.0000 -0.0004
vt 0.462742 0.456971
vt 0.438648 0.673104
vt 0.438648 0.481065
vt 0.678875 0.481065
vt 0.654781 0.697198
vt 0.654781 0.456971
vt 0.462742 0.697198
vt 0.500558 0.456971
vt 0.616966 0.456971
vt 0.616966 0.427003
vt 0.525503 0.427003
vt 0.592021 0.427003
vt 0.592021 0.363266
vt 0.526318 0.334105
vt 0.579647 0.348714
vt 0.537876 0.348714
vt 0.525503 0.363266
vt 0.527052 0.258396
vt 0.590025 0.284325
vt 0.526094 0.284325
vt 0.591645 0.246780
vt 0.538277 0.244566
vt 0.525879 0.232207
vt 0.526202 0.301719
vt 0.582216 0.293360
vt 0.591321 0.301719
vt 0.538520 0.216254
vt 0.591691 0.209654
vt 0.583855 0.202491
vt 0.525738 0.191221
vt 0.591785 0.196502
vt 0.591903 0.142071
vt 0.525621 0.142071
vt 0.592000 0.110042
vt 0.537322 0.126588
vt 0.525524 0.110042
vt 0.580202 0.126588
vt 0.582070 0.253058
vt 0.525503 0.046129
vt 0.564428 0.018536
vt 0.592021 0.046129
vt 0.719748 0.481065
vt 0.743842 0.697198
vt 0.743842 0.456971
vt 0.935882 0.697198
vt 0.959976 0.481065
vt 0.935882 0.456971
vt 0.781658 0.456971
vt 0.898066 0.427003
vt 0.898066 0.456971
vt 0.806603 0.427003
vt 0.781658 0.427003
vt 0.873121 0.363266
vt 0.873121 0.427003
vt 0.818977 0.348714
vt 0.872306 0.334105
vt 0.807419 0.334105
vt 0.806603 0.363266
vt 0.860748 0.348714
vt 0.808152 0.258396
vt 0.871125 0.284325
vt 0.871090 0.259923
vt 0.819377 0.244566
vt 0.872745 0.246780
vt 0.806979 0.232207
vt 0.863316 0.293360
vt 0.807302 0.301719
vt 0.872422 0.301719
vt 0.807194 0.284325
vt 0.807248 0.293360
vt 0.819621 0.216254
vt 0.864956 0.202491
vt 0.872792 0.209654
vt 0.806839 0.191221
vt 0.806885 0.202491
vt 0.873003 0.142071
vt 0.806721 0.142071
vt 0.818422 0.126588
vt 0.873100 0.110042
vt 0.806624 0.110042
vt 0.861302 0.126588
vt 0.863170 0.253058
vt 0.873121 0.046129
vt 0.834196 0.018536
vt 0.806603 0.046129
vt 0.391004 0.841742
vt 0.001748 0.852346
vt 0.390739 0.855260
vt 0.004482 0.304822
vt 0.393141 0.312219
vt 0.392774 0.296440
vt 0.002983 0.802376
vt 0.391563 0.825346
vt 0.391966 0.808451
vt 0.006547 0.587187
vt 0.394432 0.689054
vt 0.395437 0.588235
vt 0.003176 0.259611
vt 0.392442 0.283311
vt 0.391477 0.249789
vt 0.000383 0.087185
vt 0.389039 0.122034
vt 0.389160 0.093637
vt 0.001630 0.217522
vt 0.390842 0.229962
vt 0.390296 0.212952
vt 0.005230 0.685334
vt 0.394111 0.706910
vt 0.004112 0.750293
vt 0.392439 0.788755
vt 0.393140 0.755445
vt 0.390583 0.864536
vt 0.001480 0.870538
vt 0.390428 0.873649
vt 0.004354 0.737503
vt 0.393418 0.742398
vt 0.000566 0.179220
vt 0.389709 0.191780
vt 0.389386 0.178986
vt 0.392202 0.798729
vt 0.000260 0.160008
vt 0.389147 0.168464
vt 0.389126 0.161212
vt 0.004132 0.292110
vt 0.000106 0.134384
vt 0.388994 0.141781
vt 0.005327 0.339354
vt 0.393886 0.350088
vt 0.393558 0.332136
vt 0.000920 0.899561
vt 0.389664 0.925911
vt 0.389901 0.900369
vt 0.389252 0.979680
vt 0.000106 0.999685
vt 0.389110 0.999894
vt 0.006700 0.454526
vt 0.395402 0.451272
vt 0.000609 0.935923
vt 0.389488 0.946535
vt 0.389577 0.935988
vt 0.000629 0.000106
vt 0.389308 0.019478
vt 0.389429 0.012406
vt 0.390248 0.884240
vt 0.006843 0.471883
vt 0.395467 0.469227
vt 0.000472 0.007173
vt 0.389280 0.039721
vt 0.395594 0.570316
vt 0.001589 0.209998
vt 0.390106 0.199366
vt 0.000443 0.066724
vt 0.389182 0.083524
vt 0.389201 0.072943
vt 0.000608 0.172034
vt 0.000276 0.127276
vt 0.389085 0.129199
vt 0.006619 0.569799
vt 0.002532 0.240362
vt 0.391163 0.239749
vt 0.001318 0.881028
vt 0.390121 0.891299
vt 0.002223 0.830057
vt 0.391359 0.833381
vt 0.000690 0.925897
vt 0.004962 0.702776
vt 0.393736 0.726714
vt 0.000416 0.077194
vt 0.003193 0.792806
vt 0.000234 0.116082
vt 0.004875 0.320091
vt 0.001016 0.198395
vt 0.000464 0.033742
vt 0.002856 0.249867
vt 0.000213 0.979480
vt 0.004632 0.722145
vt 0.678875 0.673104
vt 0.500558 0.427003
vt 0.591205 0.334105
vt 0.589990 0.259923
vt 0.526148 0.293360
vt 0.525785 0.202491
vt 0.553096 0.018536
vt 0.719748 0.673104
vt 0.959976 0.673104
vt 0.872886 0.196501
vt 0.845528 0.018536
vt 0.001977 0.837093
vt 0.002591 0.819022
vt 0.003404 0.782997
vt 0.001614 0.861519
vt 0.005698 0.356708
vt 0.000520 0.946425
vt 0.001118 0.890695
s 1
usemtl Material.001
f 1/1/1 6/2/1 2/3/1
f 3/4/1 7/5/1 4/6/1
f 4/6/1 5/7/1 1/1/1
s 0
f 4/6/2 9/8/2 10/9/2
s 1
f 9/8/1 12/10/1 10/9/1
s 0
f 12/10/2 13/11/2 14/12/2
s 1
f 13/11/1 22/13/1 14/12/1
f 25/14/1 24/15/1 21/16/1
f 24/15/1 20/17/1 21/16/1
f 47/18/1 33/19/1 29/20/1
f 39/21/1 28/22/1 36/23/1
f 30/24/1 34/25/1 32/26/1
f 34/25/1 29/20/1 33/19/1
f 32/26/1 25/14/1 30/24/1
f 39/21/1 38/27/1 41/28/1
f 38/27/1 42/29/1 41/28/1
f 42/29/1 35/30/1 40/31/1
f 44/32/1 35/30/1 43/33/1
f 19/34/1 45/35/1 23/36/1
f 46/37/1 43/33/1 45/35/1
f 27/38/1 47/18/1 28/22/1
f 15/39/1 18/40/1 17/41/1
f 15/39/1 19/34/1 23/36/1
f 50/42/3 53/43/3 49/44/3
f 55/45/3 51/46/3 52/47/3
f 53/43/3 52/47/3 49/44/3
s 0
f 52/47/4 57/48/4 49/44/4
s 1
f 60/49/3 57/48/3 58/50/3
s 0
f 60/49/2 61/51/2 59/52/2
s 1
f 70/53/3 61/51/3 62/54/3
f 69/55/3 74/56/3 73/57/3
f 68/58/3 72/59/3 69/55/3
f 95/60/3 81/61/3 96/62/3
f 76/63/3 87/64/3 84/65/3
f 82/66/3 78/67/3 80/68/3
f 82/66/3 77/69/3 79/70/3
f 73/57/3 80/68/3 78/67/3
f 87/64/3 86/71/3 84/65/3
f 90/72/3 86/71/3 89/73/3
f 90/72/3 83/74/3 85/75/3
f 83/74/3 92/76/3 91/77/3
f 93/78/3 67/79/3 71/80/3
f 91/77/3 94/81/3 93/78/3
f 95/60/3 75/82/3 76/63/3
f 65/83/3 64/84/3 63/85/3
f 67/79/3 63/85/3 71/80/3
f 29/86/5 95/87/5 47/88/5
f 60/89/6 10/90/6 12/91/6
f 73/92/7 30/93/8 25/94/7
f 54/95/9 2/96/9 6/97/9
f 70/98/6 14/99/6 22/100/6
f 92/101/10 40/102/10 44/103/10
f 80/104/11 26/105/11 32/106/11
f 50/107/12 1/108/12 2/96/12
f 61/109/9 20/110/9 13/111/9
f 28/112/13 84/113/13 36/114/13
f 59/115/2 13/111/2 11/116/2
f 96/117/14 33/118/14 48/119/14
f 21/120/15 73/92/15 25/94/15
f 87/121/16 27/122/16 39/123/16
f 62/124/2 12/91/2 14/99/2
f 89/125/17 39/123/17 41/126/17
f 52/127/18 3/128/18 4/129/18
f 83/130/19 43/131/20 35/132/19
f 15/133/12 64/134/12 16/135/12
f 3/128/6 56/136/6 8/137/6
f 95/87/21 28/112/21 47/88/21
f 93/138/22 23/139/22 45/140/22
f 64/141/2 18/142/2 16/143/2
f 84/113/23 38/144/23 36/114/23
f 8/137/24 55/145/24 7/146/24
f 66/147/18 17/148/18 18/142/18
f 55/145/4 5/149/4 7/146/4
f 82/150/25 32/106/25 34/151/25
f 67/152/26 46/153/26 19/154/26
f 75/155/27 48/119/27 27/122/27
f 90/156/28 41/126/28 42/157/28
f 53/158/29 6/97/29 5/149/29
f 74/159/30 24/160/30 26/105/30
f 86/161/31 37/162/31 38/144/31
f 30/93/8 79/163/32 31/164/32
f 91/165/33 45/140/33 43/131/34
f 49/166/2 9/167/2 1/108/2
f 94/168/35 44/103/35 46/153/35
f 20/110/36 69/169/36 21/120/36
f 88/170/37 42/157/37 40/102/37
f 58/171/2 4/129/2 10/90/2
f 81/172/38 34/151/38 33/118/38
f 65/173/39 19/154/39 17/148/39
f 72/174/40 22/100/40 24/160/40
f 37/162/41 83/130/19 35/132/19
f 79/163/32 29/86/42 31/164/32
f 23/139/43 63/175/43 15/133/43
f 57/176/9 11/116/9 9/167/9
f 1/1/1 5/7/1 6/2/1
f 3/4/1 8/177/1 7/5/1
f 4/6/1 7/5/1 5/7/1
s 0
f 4/6/2 1/1/2 9/8/2
s 1
f 9/8/1 11/178/1 12/10/1
s 0
f 12/10/4 11/178/4 13/11/4
s 1
f 13/11/1 20/17/1 22/13/1
f 25/14/1 26/179/1 24/15/1
f 24/15/1 22/13/1 20/17/1
f 47/18/1 48/180/1 33/19/1
f 39/21/1 27/38/1 28/22/1
f 30/24/1 31/181/1 34/25/1
f 34/25/1 31/181/1 29/20/1
f 32/26/1 26/179/1 25/14/1
f 39/21/1 36/23/1 38/27/1
f 38/27/1 37/182/1 42/29/1
f 42/29/1 37/182/1 35/30/1
f 44/32/1 40/31/1 35/30/1
f 19/34/1 46/37/1 45/35/1
f 46/37/1 44/32/1 43/33/1
f 27/38/1 48/180/1 47/18/1
f 15/39/1 16/183/1 18/40/1
f 15/39/1 17/41/1 19/34/1
f 50/42/3 54/184/3 53/43/3
f 55/45/3 56/185/3 51/46/3
f 53/43/3 55/45/3 52/47/3
s 0
f 52/47/2 58/50/2 57/48/2
s 1
f 60/49/3 59/52/3 57/48/3
s 0
f 60/49/4 62/54/4 61/51/4
s 1
f 70/53/3 68/58/3 61/51/3
f 69/55/3 72/59/3 74/56/3
f 68/58/3 70/53/3 72/59/3
f 95/60/3 77/69/3 81/61/3
f 76/63/3 75/82/3 87/64/3
f 82/66/3 79/70/3 78/67/3
f 82/66/3 81/61/3 77/69/3
f 73/57/3 74/56/3 80/68/3
f 87/64/3 89/73/3 86/71/3
f 90/72/3 85/75/3 86/71/3
f 90/72/3 88/186/3 83/74/3
f 83/74/3 88/186/3 92/76/3
f 93/78/3 94/81/3 67/79/3
f 91/77/3 92/76/3 94/81/3
f 95/60/3 96/62/3 75/82/3
f 65/83/3 66/187/3 64/84/3
f 67/79/3 65/83/3 63/85/3
f 29/86/5 77/188/5 95/87/5
f 60/89/6 58/171/6 10/90/6
f 73/92/7 78/189/8 30/93/8
f 54/95/9 50/107/9 2/96/9
f 70/98/6 62/124/6 14/99/6
f 92/101/10 88/170/10 40/102/10
f 80/104/11 74/159/11 26/105/11
f 50/107/12 49/166/12 1/108/12
f 61/109/9 68/190/9 20/110/9
f 28/112/13 76/191/13 84/113/13
f 59/115/2 61/109/2 13/111/2
f 96/117/14 81/172/14 33/118/14
f 21/120/15 69/169/15 73/92/15
f 87/121/16 75/155/16 27/122/16
f 62/124/2 60/89/2 12/91/2
f 89/125/17 87/121/17 39/123/17
f 52/127/18 51/192/18 3/128/18
f 83/130/19 91/165/20 43/131/20
f 15/133/12 63/175/12 64/134/12
f 3/128/6 51/192/6 56/136/6
f 95/87/21 76/191/21 28/112/21
f 93/138/22 71/193/22 23/139/22
f 64/141/2 66/147/2 18/142/2
f 84/113/23 86/161/23 38/144/23
f 8/137/24 56/136/24 55/145/24
f 66/147/18 65/173/18 17/148/18
f 55/145/4 53/158/4 5/149/4
f 82/150/25 80/104/25 32/106/25
f 67/152/26 94/168/26 46/153/26
f 75/155/27 96/117/27 48/119/27
f 90/156/28 89/125/28 41/126/28
f 53/158/29 54/95/29 6/97/29
f 74/159/30 72/174/30 24/160/30
f 86/161/31 85/194/31 37/162/31
f 30/93/8 78/189/8 79/163/32
f 91/165/33 93/138/33 45/140/33
f 49/166/2 57/176/2 9/167/2
f 94/168/35 92/101/35 44/103/35
f 20/110/36 68/190/36 69/169/36
f 88/170/37 90/156/37 42/157/37
f 58/171/2 52/127/2 4/129/2
f 81/172/38 82/150/38 34/151/38
f 65/173/39 67/152/39 19/154/39
f 72/174/40 70/98/40 22/100/40
f 37/162/41 85/194/41 83/130/19
f 79/163/32 77/188/42 29/86/42
f 23/139/43 71/193/43 63/175/43
f 57/176/9 59/115/9 11/116/9
