{
	"asset":{
		"generator":"Khronos glTF Blender I/O v4.4.56",
		"version":"2.0"
	},
	"scene":0,
	"scenes":[
		{
			"name":"Scene",
			"nodes":[
				3
			]
		}
	],
	"nodes":[
		{
			"name":"\u30dc\u30fc\u30f3",
			"rotation":[
				-0.7071068286895752,
				0,
				0.7071067094802856,
				4.2146844236867764e-08
			],
			"scale":[
				0.9999999403953552,
				0.9999998211860657,
				0.9999998807907104
			]
		},
		{
			"name":"neutral_bone",
			"rotation":[
				-0.7071067690849304,
				0,
				0,
				0.7071067690849304
			]
		},
		{
			"mesh":0,
			"name":"\u30c8\u30fc\u30e9\u30b9",
			"skin":0
		},
		{
			"children":[
				2,
				0,
				1
			],
			"name":"\u30a2\u30fc\u30de\u30c1\u30e5\u30a2",
			"translation":[
				0,
				12.004164695739746,
				0
			]
		}
	],
	"animations":[
		{
			"channels":[
				{
					"sampler":0,
					"target":{
						"node":0,
						"path":"translation"
					}
				},
				{
					"sampler":1,
					"target":{
						"node":0,
						"path":"rotation"
					}
				},
				{
					"sampler":2,
					"target":{
						"node":0,
						"path":"scale"
					}
				}
			],
			"name":"Spin",
			"samplers":[
				{
					"input":8,
					"interpolation":"STEP",
					"output":9
				},
				{
					"input":10,
					"interpolation":"LINEAR",
					"output":11
				},
				{
					"input":8,
					"interpolation":"STEP",
					"output":12
				}
			]
		}
	],
	"materials":[
		{
			"doubleSided":true,
			"name":"\u30de\u30c6\u30ea\u30a2\u30eb",
			"pbrMetallicRoughness":{
				"baseColorTexture":{
					"index":0
				},
				"metallicFactor":0,
				"roughnessFactor":0.5
			}
		}
	],
	"meshes":[
		{
			"name":"\u30c8\u30fc\u30e9\u30b9",
			"primitives":[
				{
					"attributes":{
						"POSITION":0,
						"NORMAL":1,
						"TEXCOORD_0":2,
						"TEXCOORD_1":3,
						"JOINTS_0":4,
						"WEIGHTS_0":5
					},
					"indices":6,
					"material":0
				}
			]
		}
	],
	"textures":[
		{
			"sampler":0,
			"source":0
		}
	],
	"images":[
		{
			"mimeType":"image/png",
			"name":"RotatingPlaygroundEquipment",
			"uri":"RotatingPlaygroundEquipment.png"
		}
	],
	"skins":[
		{
			"inverseBindMatrices":7,
			"joints":[
				0,
				1
			],
			"name":"\u30a2\u30fc\u30de\u30c1\u30e5\u30a2"
		}
	],
	"accessors":[
		{
			"bufferView":0,
			"componentType":5126,
			"count":2007,
			"max":[
				13.535670280456543,
				12.081945419311523,
				13.535670280456543
			],
			"min":[
				-13.535670280456543,
				-8.697580337524414,
				-13.535670280456543
			],
			"type":"VEC3"
		},
		{
			"bufferView":1,
			"componentType":5126,
			"count":2007,
			"type":"VEC3"
		},
		{
			"bufferView":2,
			"componentType":5126,
			"count":2007,
			"type":"VEC2"
		},
		{
			"bufferView":3,
			"componentType":5126,
			"count":2007,
			"type":"VEC2"
		},
		{
			"bufferView":4,
			"componentType":5121,
			"count":2007,
			"type":"VEC4"
		},
		{
			"bufferView":5,
			"componentType":5126,
			"count":2007,
			"type":"VEC4"
		},
		{
			"bufferView":6,
			"componentType":5123,
			"count":8646,
			"type":"SCALAR"
		},
		{
			"bufferView":7,
			"componentType":5126,
			"count":2,
			"type":"MAT4"
		},
		{
			"bufferView":8,
			"componentType":5126,
			"count":2,
			"max":[
				1.875
			],
			"min":[
				0
			],
			"type":"SCALAR"
		},
		{
			"bufferView":9,
			"componentType":5126,
			"count":2,
			"type":"VEC3"
		},
		{
			"bufferView":10,
			"componentType":5126,
			"count":46,
			"max":[
				1.875
			],
			"min":[
				0
			],
			"type":"SCALAR"
		},
		{
			"bufferView":11,
			"componentType":5126,
			"count":46,
			"type":"VEC4"
		},
		{
			"bufferView":12,
			"componentType":5126,
			"count":2,
			"type":"VEC3"
		}
	],
	"bufferViews":[
		{
			"buffer":0,
			"byteLength":24084,
			"byteOffset":0,
			"target":34962
		},
		{
			"buffer":0,
			"byteLength":24084,
			"byteOffset":24084,
			"target":34962
		},
		{
			"buffer":0,
			"byteLength":16056,
			"byteOffset":48168,
			"target":34962
		},
		{
			"buffer":0,
			"byteLength":16056,
			"byteOffset":64224,
			"target":34962
		},
		{
			"buffer":0,
			"byteLength":8028,
			"byteOffset":80280,
			"target":34962
		},
		{
			"buffer":0,
			"byteLength":32112,
			"byteOffset":88308,
			"target":34962
		},
		{
			"buffer":0,
			"byteLength":17292,
			"byteOffset":120420,
			"target":34963
		},
		{
			"buffer":0,
			"byteLength":128,
			"byteOffset":137712
		},
		{
			"buffer":0,
			"byteLength":8,
			"byteOffset":137840
		},
		{
			"buffer":0,
			"byteLength":24,
			"byteOffset":137848
		},
		{
			"buffer":0,
			"byteLength":184,
			"byteOffset":137872
		},
		{
			"buffer":0,
			"byteLength":736,
			"byteOffset":138056
		},
		{
			"buffer":0,
			"byteLength":24,
			"byteOffset":138792
		}
	],
	"samplers":[
		{
			"magFilter":9729,
			"minFilter":9987
		}
	],
	"buffers":[
		{
			"byteLength":138816,
			"uri":"RotatingPlaygroundEquipment.bin"
		}
	]
}
