# Blender 4.4.1
# www.blender.org
mtllib playerModel.mtl
o Cube
v -0.718951 1.000000 -0.550684
v -1.000000 -1.000000 -1.000000
v 0.718951 1.000000 -0.550685
v 1.000000 -1.000000 -1.000000
v -0.718951 1.000000 1.000000
v -1.000000 -1.000000 1.000000
v 0.718951 1.000000 1.000000
v 1.000000 -1.000000 1.000000
v -0.799066 0.000000 -0.735835
v 1.000000 0.000000 1.000000
v 0.799065 0.000000 -0.735835
v -1.000000 0.000000 1.000000
v 0.000000 -1.000000 1.000000
v -0.000000 1.000000 -0.890891
v 0.000000 1.000000 1.000000
v -0.000000 -1.000000 -1.000000
v -0.000000 0.000000 -0.884760
v 0.000000 0.000000 1.000000
v 1.000000 0.500000 1.000000
v -1.000000 0.500000 -0.818491
v 1.000000 0.500000 -0.818491
v -1.000000 0.500000 1.000000
v -0.000000 0.500000 -0.942380
v 0.000000 0.500000 1.000000
v -0.596326 -0.500000 -0.744796
v 0.596325 -0.500000 -0.744796
v -1.000000 -0.500000 1.000000
v 1.000000 -0.500000 1.000000
v 0.000000 -0.500000 1.000000
v -0.000000 -0.500000 -0.893721
vn -0.0000 1.0000 -0.0000
vn 0.8717 0.4900 -0.0000
vn -0.0000 -0.0000 1.0000
vn -0.0000 -1.0000 -0.0000
vn 0.1054 0.5149 -0.8507
vn -0.8717 0.4900 -0.0000
vn -0.9074 -0.3642 -0.2099
vn 0.2423 0.0174 -0.9701
vn 0.9074 -0.3642 -0.2099
vn -0.2423 0.0174 -0.9701
vn -0.1054 0.5149 -0.8507
vn -0.1821 -0.1126 -0.9768
vn -0.9934 -0.0000 -0.1150
vn 0.1821 -0.1126 -0.9768
vn 0.9934 -0.0000 -0.1150
vn -0.0000 0.4546 -0.8907
vn 0.7781 0.6282 -0.0000
vn -0.7781 0.6282 -0.0000
vn 0.4259 0.0927 -0.9000
vn 0.1829 -0.0566 -0.9815
vn -0.1829 -0.0566 -0.9815
vn -0.4259 0.0927 -0.9000
vn -0.1202 -0.2088 -0.9705
vn -0.9279 -0.3729 -0.0000
vn 0.1202 -0.2088 -0.9705
vn 0.9279 -0.3729 -0.0000
vn -0.2373 0.2020 -0.9502
vn 0.9743 -0.0000 -0.2254
vn 0.2373 0.2020 -0.9502
vn -0.9743 -0.0000 -0.2254
vt 0.875000 0.625000
vt 0.625000 0.750000
vt 0.625000 0.625000
vt 0.562500 1.000000
vt 0.562500 0.750000
vt 0.562500 0.125000
vt 0.625000 0.250000
vt 0.562500 0.250000
vt 0.375000 0.625000
vt 0.125000 0.750000
vt 0.125000 0.625000
vt 0.562500 0.625000
vt 0.625000 0.500000
vt 0.562500 0.500000
vt 0.437500 0.250000
vt 0.500000 0.500000
vt 0.437500 0.500000
vt 0.500000 0.625000
vt 0.437500 0.750000
vt 0.437500 0.625000
vt 0.500000 0.125000
vt 0.437500 0.125000
vt 0.500000 0.750000
vt 0.437500 1.000000
vt 0.500000 0.000000
vt 0.437500 0.000000
vt 0.375000 0.500000
vt 0.125000 0.500000
vt 0.625000 0.000000
vt 0.562500 0.000000
vt 0.500000 0.250000
vt 0.500000 1.000000
vt 0.375000 0.125000
vt 0.375000 0.000000
vt 0.375000 1.000000
vt 0.375000 0.750000
vt 0.375000 0.250000
vt 0.875000 0.750000
vt 0.625000 1.000000
vt 0.625000 0.125000
vt 0.875000 0.500000
s 0
usemtl Material
f 15/1/1 3/2/1 14/3/1
f 3/2/2 19/4/2 21/5/2
f 24/6/3 5/7/3 22/8/3
f 16/9/4 8/10/4 13/11/4
f 23/12/5 3/2/5 21/5/5
f 22/8/6 1/13/6 20/14/6
f 27/15/7 9/16/7 25/17/7
f 17/18/8 26/19/8 30/20/8
f 18/21/3 27/15/3 29/22/3
f 11/23/9 28/24/9 26/19/9
f 10/25/3 29/22/3 28/26/3
f 25/17/10 17/18/10 30/20/10
f 1/13/11 23/12/11 20/14/11
f 2/27/4 13/11/4 6/28/4
f 7/29/3 24/6/3 19/30/3
f 1/13/1 15/1/1 14/3/1
f 19/30/3 18/21/3 10/25/3
f 9/16/12 23/12/12 17/18/12
f 22/8/13 9/16/13 12/31/13
f 23/12/14 11/23/14 17/18/14
f 24/6/3 12/31/3 18/21/3
f 11/23/15 19/4/15 10/32/15
f 25/17/16 16/9/16 2/27/16
f 28/26/3 13/33/3 8/34/3
f 26/19/17 8/35/17 4/36/17
f 29/22/3 6/37/3 13/33/3
f 16/9/16 26/19/16 4/36/16
f 6/37/18 25/17/18 2/27/18
f 15/1/1 7/38/1 3/2/1
f 3/2/2 7/39/2 19/4/2
f 24/6/3 15/40/3 5/7/3
f 16/9/4 4/36/4 8/10/4
f 23/12/19 14/3/19 3/2/19
f 22/8/6 5/7/6 1/13/6
f 27/15/13 12/31/13 9/16/13
f 17/18/20 11/23/20 26/19/20
f 18/21/3 12/31/3 27/15/3
f 11/23/15 10/32/15 28/24/15
f 10/25/3 18/21/3 29/22/3
f 25/17/21 9/16/21 17/18/21
f 1/13/22 14/3/22 23/12/22
f 2/27/4 16/9/4 13/11/4
f 7/29/3 15/40/3 24/6/3
f 1/13/1 5/41/1 15/1/1
f 19/30/3 24/6/3 18/21/3
f 9/16/23 20/14/23 23/12/23
f 22/8/24 20/14/24 9/16/24
f 23/12/25 21/5/25 11/23/25
f 24/6/3 22/8/3 12/31/3
f 11/23/26 21/5/26 19/4/26
f 25/17/27 30/20/27 16/9/27
f 28/26/3 29/22/3 13/33/3
f 26/19/28 28/24/28 8/35/28
f 29/22/3 27/15/3 6/37/3
f 16/9/29 30/20/29 26/19/29
f 6/37/30 27/15/30 25/17/30
