# Blender 4.4.1
# www.blender.org
mtllib playerModel.mtl
o 立方体.003
v -0.849087 -0.803672 0.128478
v -0.849087 0.139856 0.128478
v -0.849087 -0.803672 -0.128478
v -0.849087 0.139856 -0.128478
v -0.615976 -0.803672 0.128478
v -0.615976 0.139856 0.128478
v -0.615976 -0.803672 -0.128478
v -0.615976 0.139856 -0.128478
v -0.657979 0.317914 0.657979
v -1.000000 1.000000 1.000000
v -0.657979 0.317914 -0.657979
v -1.000000 1.000000 -1.000000
v 0.657979 0.317914 0.657979
v 1.000000 1.000000 1.000000
v 0.657979 0.317914 -0.657979
v 1.000000 1.000000 -1.000000
v -0.627922 -0.802476 0.627922
v -0.627922 0.277352 0.627922
v -0.627922 -0.802476 -0.627922
v -0.627922 0.277352 -0.627922
v 0.627922 -0.802476 0.627922
v 0.627922 0.277352 0.627922
v 0.627922 -0.802476 -0.627922
v 0.627922 0.277352 -0.627922
v 0.626672 -0.803672 0.128478
v 0.626672 0.139856 0.128478
v 0.626672 -0.803672 -0.128478
v 0.626672 0.139856 -0.128478
v 0.859782 -0.803672 0.128478
v 0.859782 0.139856 0.128478
v 0.859782 -0.803672 -0.128478
v 0.859782 0.139856 -0.128478
vn -1.0000 -0.0000 -0.0000
vn -0.0000 -0.0000 -1.0000
vn 1.0000 -0.0000 -0.0000
vn -0.0000 -0.0000 1.0000
vn -0.0000 -1.0000 -0.0000
vn -0.0000 1.0000 -0.0000
vn -0.8939 -0.4482 -0.0000
vn -0.0000 -0.4482 -0.8939
vn 0.8939 -0.4482 -0.0000
vn -0.0000 -0.4482 0.8939
vt 0.250000 0.000173
vt 0.125087 0.125087
vt 0.125087 0.000173
vt 0.250000 0.125087
vt 0.125087 0.250000
vt 0.250000 0.250000
vt 0.125087 0.374913
vt 0.250000 0.374913
vt 0.125087 0.499827
vt 0.000173 0.374913
vt 0.000173 0.250000
vt 0.374913 0.250000
vt 0.625087 0.000173
vt 0.500173 0.125087
vt 0.500173 0.000173
vt 0.625087 0.125087
vt 0.500173 0.250000
vt 0.625087 0.250000
vt 0.500173 0.374913
vt 0.625087 0.374913
vt 0.500173 0.499827
vt 0.375260 0.374913
vt 0.375260 0.250000
vt 0.750000 0.250000
vt 0.250000 0.500173
vt 0.125087 0.625087
vt 0.125087 0.500173
vt 0.250000 0.625087
vt 0.125087 0.750000
vt 0.250000 0.750000
vt 0.125087 0.874913
vt 0.250000 0.874913
vt 0.125087 0.999827
vt 0.000173 0.874913
vt 0.000173 0.750000
vt 0.374913 0.750000
vt 0.625087 0.500173
vt 0.500173 0.625087
vt 0.500173 0.500173
vt 0.625087 0.625087
vt 0.500173 0.750000
vt 0.625087 0.750000
vt 0.500173 0.874913
vt 0.625087 0.874913
vt 0.500173 0.999827
vt 0.375260 0.874913
vt 0.375260 0.750000
vt 0.750000 0.750000
vt 0.250000 0.499827
vt 0.374913 0.374913
vt 0.625087 0.499827
vt 0.750000 0.374913
vt 0.250000 0.999827
vt 0.374913 0.874913
vt 0.625087 0.999827
vt 0.750000 0.874913
s 0
usemtl マテリアル
f 2/1/1 3/2/1 1/3/1
f 4/4/2 7/5/2 3/2/2
f 8/6/3 5/7/3 7/5/3
f 6/8/4 1/9/4 5/7/4
f 7/5/5 1/10/5 3/11/5
f 4/12/6 6/8/6 8/6/6
f 10/13/7 11/14/7 9/15/7
f 12/16/8 15/17/8 11/14/8
f 16/18/9 13/19/9 15/17/9
f 14/20/10 9/21/10 13/19/10
f 15/17/5 9/22/5 11/23/5
f 12/24/6 14/20/6 16/18/6
f 18/25/1 19/26/1 17/27/1
f 20/28/2 23/29/2 19/26/2
f 24/30/3 21/31/3 23/29/3
f 22/32/4 17/33/4 21/31/4
f 23/29/5 17/34/5 19/35/5
f 20/36/6 22/32/6 24/30/6
f 26/37/1 27/38/1 25/39/1
f 28/40/2 31/41/2 27/38/2
f 32/42/3 29/43/3 31/41/3
f 30/44/4 25/45/4 29/43/4
f 31/41/5 25/46/5 27/47/5
f 28/48/6 30/44/6 32/42/6
f 2/1/1 4/4/1 3/2/1
f 4/4/2 8/6/2 7/5/2
f 8/6/3 6/8/3 5/7/3
f 6/8/4 2/49/4 1/9/4
f 7/5/5 5/7/5 1/10/5
f 4/12/6 2/50/6 6/8/6
f 10/13/7 12/16/7 11/14/7
f 12/16/8 16/18/8 15/17/8
f 16/18/9 14/20/9 13/19/9
f 14/20/10 10/51/10 9/21/10
f 15/17/5 13/19/5 9/22/5
f 12/24/6 10/52/6 14/20/6
f 18/25/1 20/28/1 19/26/1
f 20/28/2 24/30/2 23/29/2
f 24/30/3 22/32/3 21/31/3
f 22/32/4 18/53/4 17/33/4
f 23/29/5 21/31/5 17/34/5
f 20/36/6 18/54/6 22/32/6
f 26/37/1 28/40/1 27/38/1
f 28/40/2 32/42/2 31/41/2
f 32/42/3 30/44/3 29/43/3
f 30/44/4 26/55/4 25/45/4
f 31/41/5 29/43/5 25/46/5
f 28/48/6 26/56/6 30/44/6
