# Blender 4.4.1
# www.blender.org
mtllib restRoom.mtl
o Cube.007
v 20.000000 0.000000 -6.994080
v 4.899999 0.000000 -6.994080
v -6.999997 0.000000 -6.994080
v 4.683405 0.000000 14.958597
v 4.099998 0.000000 -6.994080
v 4.574101 5.945944 -6.994080
v 4.547890 0.000000 -6.728628
v -5.074926 0.000000 14.958597
v 20.000000 0.000000 13.074907
v -7.000002 5.945944 13.039455
v -7.000001 0.000000 3.155414
v -7.000000 5.945944 3.155414
v 4.634379 0.000000 3.162797
v 4.586380 5.945944 3.162764
v 4.667969 5.945944 13.054264
v 4.099998 1.800463 -6.994079
v 4.899999 1.800463 -6.994079
v -6.999997 5.945944 -6.994080
v 4.683405 5.945944 14.958597
v 19.999998 5.945944 -6.994080
v 5.701437 0.000000 -6.994080
v -7.000001 0.000000 13.039455
v 18.074936 0.000000 14.958597
v -5.074924 5.945944 14.958597
v 20.000000 5.945944 13.074907
v 18.074936 5.945944 14.958597
v 20.000000 0.000000 3.173140
v 20.000000 5.945944 3.173140
v 3.371011 0.000000 -6.994080
vn 0.0005 1.0000 -0.0000
vn -0.0000 1.0000 -0.0000
vn -0.0000 0.9063 -0.4227
vn 1.0000 -0.0000 -0.0000
vn 0.3476 0.6258 0.6983
vn 0.2146 0.9767 -0.0000
vn -0.0000 -0.0000 1.0000
vn -0.0000 -1.0000 -0.0000
vn -0.0039 -0.8827 -0.4699
vn 0.3180 -0.9481 0.0002
vn 0.5030 0.8312 -0.2367
vn -0.0035 0.3835 0.9235
vn -0.6067 -0.7949 -0.0000
vn 0.1201 0.8482 -0.5158
vn -0.3495 0.8689 -0.3505
vn -1.0000 -0.0000 -0.0000
vn -0.3835 0.9235 0.0035
vn -0.9063 -0.0000 0.4227
vn -0.8401 0.5424 -0.0000
vn -0.9235 0.0035 0.3835
vn 0.9767 0.2146 -0.0000
vn -0.0000 -0.0000 -1.0000
vn 0.6067 -0.0000 -0.7949
vn -0.0005 -0.0000 -1.0000
vn -0.9169 0.3991 0.0084
vn 0.7060 -0.0000 -0.7082
vn -0.6994 -0.0000 -0.7147
vn 0.1885 -0.4577 0.8689
vn 0.8401 -0.0000 0.5424
vn 0.6258 0.6983 0.3476
vn 0.2267 -0.4786 0.8482
vn 0.9169 0.0084 0.3991
vn 0.6983 0.3476 0.6258
vn 0.0014 0.9375 0.3481
vt 0.215837 0.012362
vt 0.482210 0.044608
vt 0.482210 0.216811
vt 0.265872 0.802236
vt 0.037708 0.668569
vt 0.037708 0.802236
vt 0.012649 0.217120
vt 0.046128 0.011878
vt 0.378380 0.864193
vt 0.042493 0.956406
vt 0.385629 0.956406
vt 0.989048 0.217399
vt 0.720961 0.044624
vt 0.719534 0.217580
vt 0.213480 0.389015
vt 0.482210 0.393631
vt 0.550603 0.011355
vt 0.721231 0.011841
vt 0.719320 0.395177
vt 0.516942 0.217709
vt 0.516942 0.395177
vt 0.516942 0.044882
vt 0.955388 0.010780
vt 0.989048 0.044263
vt 0.205691 0.393631
vt 0.219604 0.393631
vt 0.731729 0.803006
vt 0.962396 0.668108
vt 0.731729 0.668109
vt 0.233541 0.393631
vt 0.042493 0.824143
vt 0.989048 0.395177
vt 0.488068 0.668569
vt 0.265872 0.668569
vt 0.396175 0.864193
vt 0.042496 0.649668
vt 0.261198 0.649668
vt 0.261198 0.516408
vt 0.193013 0.393370
vt 0.561327 0.516408
vt 0.738591 0.956565
vt 0.802670 0.822898
vt 0.738591 0.822898
vt 0.661663 0.956370
vt 0.726244 0.821473
vt 0.661663 0.821473
vt 0.378380 0.824143
vt 0.360553 0.824143
vt 0.507085 0.803006
vt 0.507085 0.668109
vt 0.643086 0.956406
vt 0.643086 0.824143
vt 0.396175 0.824143
vt 0.412391 0.824143
vt 0.042496 0.516408
vt 0.012649 0.389015
vt 0.214984 0.216991
vt 0.448731 0.011307
vt 0.012649 0.045225
vt 0.962396 0.803006
vt 0.488068 0.802236
vt 0.561327 0.649668
vt 0.802670 0.956565
vt 0.726244 0.956370
s 1
usemtl Material.007
f 4/1/1 9/2/2 27/3/3
f 12/4/4 3/5/5 18/6/4
f 11/7/6 8/8/2 4/1/1
f 17/9/7 20/10/7 6/11/7
f 28/12/8 15/13/9 14/14/10
f 7/15/11 27/3/3 1/16/12
f 24/17/8 15/13/9 19/18/13
f 6/19/8 12/20/8 18/21/8
f 14/14/10 10/22/8 12/20/8
f 26/23/8 15/13/9 25/24/8
f 5/25/14 7/15/11 2/26/15
f 28/27/16 1/28/17 27/29/18
f 7/15/11 21/30/19 2/26/15
f 1/31/20 20/10/7 17/9/7
f 14/14/10 20/32/8 28/12/8
f 12/4/4 22/33/4 11/34/21
f 16/35/7 17/9/7 6/11/7
f 24/36/22 19/37/23 4/38/24
f 29/39/25 7/15/11 5/25/14
f 19/37/23 23/40/22 4/38/24
f 10/41/26 8/42/26 22/43/26
f 26/44/27 9/45/27 23/46/27
f 2/47/28 21/48/29 17/9/7
f 25/49/16 27/29/18 9/50/16
f 16/35/7 6/11/7 18/51/7
f 16/35/7 18/51/7 3/52/30
f 5/53/31 16/35/7 29/54/32
f 8/55/22 24/36/22 4/38/24
f 11/7/6 7/15/11 3/56/33
f 29/54/32 16/35/7 3/52/30
f 21/48/29 1/31/20 17/9/7
f 27/3/3 13/57/34 4/1/1
f 4/1/1 23/58/2 9/2/2
f 12/4/4 11/34/21 3/5/5
f 4/1/1 13/57/34 11/7/6
f 11/7/6 22/59/2 8/8/2
f 28/12/8 25/24/8 15/13/9
f 7/15/11 13/57/34 27/3/3
f 24/17/8 10/22/8 15/13/9
f 6/19/8 14/14/10 12/20/8
f 14/14/10 15/13/9 10/22/8
f 26/23/8 19/18/13 15/13/9
f 28/27/16 20/60/16 1/28/17
f 7/15/11 1/16/12 21/30/19
f 14/14/10 6/19/8 20/32/8
f 12/4/4 10/61/4 22/33/4
f 29/39/25 3/56/33 7/15/11
f 19/37/23 26/62/22 23/40/22
f 10/41/26 24/63/26 8/42/26
f 26/44/27 25/64/27 9/45/27
f 25/49/16 28/27/16 27/29/18
f 11/7/6 13/57/34 7/15/11
