{
	"asset":{
		"generator":"Khronos glTF Blender I/O v4.4.56",
		"version":"2.0"
	},
	"scene":0,
	"scenes":[
		{
			"name":"Scene",
			"nodes":[
				5,
				6
			]
		}
	],
	"nodes":[
		{
			"name":"drawer.000",
			"rotation":[
				-1.1520229037387253e-07,
				0.7071067094802856,
				0.7071068286895752,
				5.338507591545749e-08
			],
			"translation":[
				-3.76512758748504e-08,
				0.224145770072937,
				0.1579209417104721
			]
		},
		{
			"name":"drawer.001",
			"rotation":[
				-1.1520227616301781e-07,
				0.7071066498756409,
				0.70710688829422,
				5.3385061704602776e-08
			],
			"translation":[
				-3.76512758748504e-08,
				0.46230071783065796,
				0.1579209417104721
			]
		},
		{
			"name":"drawer.002",
			"rotation":[
				-1.1520227616301781e-07,
				0.7071067690849304,
				0.7071067690849304,
				5.338507591545749e-08
			],
			"translation":[
				-3.76512758748504e-08,
				0.646966278553009,
				0.1579209417104721
			]
		},
		{
			"children":[
				0,
				1,
				2
			],
			"name":"drawerRoot",
			"rotation":[
				-3.552713678800501e-15,
				1.1920926112907182e-07,
				-4.235164736271502e-22,
				1
			],
			"translation":[
				0.43484288454055786,
				5.492568379850127e-05,
				0
			]
		},
		{
			"children":[
				3
			],
			"name":"root",
			"rotation":[
				-2.980232594040899e-08,
				0,
				0,
				1
			],
			"scale":[
				1,
				0.9999999403953552,
				0.9999999403953552
			]
		},
		{
			"mesh":0,
			"name":"drawer",
			"skin":0
		},
		{
			"children":[
				4
			],
			"name":"Armature"
		}
	],
	"animations":[
		{
			"channels":[
				{
					"sampler":0,
					"target":{
						"node":4,
						"path":"translation"
					}
				},
				{
					"sampler":1,
					"target":{
						"node":4,
						"path":"rotation"
					}
				},
				{
					"sampler":2,
					"target":{
						"node":4,
						"path":"scale"
					}
				},
				{
					"sampler":3,
					"target":{
						"node":3,
						"path":"translation"
					}
				},
				{
					"sampler":4,
					"target":{
						"node":3,
						"path":"rotation"
					}
				},
				{
					"sampler":5,
					"target":{
						"node":3,
						"path":"scale"
					}
				},
				{
					"sampler":6,
					"target":{
						"node":0,
						"path":"translation"
					}
				},
				{
					"sampler":7,
					"target":{
						"node":0,
						"path":"rotation"
					}
				},
				{
					"sampler":8,
					"target":{
						"node":0,
						"path":"scale"
					}
				},
				{
					"sampler":9,
					"target":{
						"node":1,
						"path":"translation"
					}
				},
				{
					"sampler":10,
					"target":{
						"node":1,
						"path":"rotation"
					}
				},
				{
					"sampler":11,
					"target":{
						"node":1,
						"path":"scale"
					}
				},
				{
					"sampler":12,
					"target":{
						"node":2,
						"path":"translation"
					}
				},
				{
					"sampler":13,
					"target":{
						"node":2,
						"path":"rotation"
					}
				},
				{
					"sampler":14,
					"target":{
						"node":2,
						"path":"scale"
					}
				}
			],
			"name":"Close",
			"samplers":[
				{
					"input":7,
					"interpolation":"STEP",
					"output":8
				},
				{
					"input":7,
					"interpolation":"STEP",
					"output":9
				},
				{
					"input":7,
					"interpolation":"STEP",
					"output":10
				},
				{
					"input":7,
					"interpolation":"STEP",
					"output":11
				},
				{
					"input":7,
					"interpolation":"STEP",
					"output":12
				},
				{
					"input":7,
					"interpolation":"STEP",
					"output":13
				},
				{
					"input":7,
					"interpolation":"STEP",
					"output":14
				},
				{
					"input":7,
					"interpolation":"STEP",
					"output":15
				},
				{
					"input":7,
					"interpolation":"STEP",
					"output":16
				},
				{
					"input":7,
					"interpolation":"STEP",
					"output":17
				},
				{
					"input":7,
					"interpolation":"STEP",
					"output":18
				},
				{
					"input":7,
					"interpolation":"STEP",
					"output":19
				},
				{
					"input":20,
					"interpolation":"LINEAR",
					"output":21
				},
				{
					"input":7,
					"interpolation":"STEP",
					"output":22
				},
				{
					"input":7,
					"interpolation":"STEP",
					"output":23
				}
			]
		},
		{
			"channels":[
				{
					"sampler":0,
					"target":{
						"node":4,
						"path":"translation"
					}
				},
				{
					"sampler":1,
					"target":{
						"node":4,
						"path":"rotation"
					}
				},
				{
					"sampler":2,
					"target":{
						"node":4,
						"path":"scale"
					}
				},
				{
					"sampler":3,
					"target":{
						"node":3,
						"path":"translation"
					}
				},
				{
					"sampler":4,
					"target":{
						"node":3,
						"path":"rotation"
					}
				},
				{
					"sampler":5,
					"target":{
						"node":3,
						"path":"scale"
					}
				},
				{
					"sampler":6,
					"target":{
						"node":0,
						"path":"translation"
					}
				},
				{
					"sampler":7,
					"target":{
						"node":0,
						"path":"rotation"
					}
				},
				{
					"sampler":8,
					"target":{
						"node":0,
						"path":"scale"
					}
				},
				{
					"sampler":9,
					"target":{
						"node":1,
						"path":"translation"
					}
				},
				{
					"sampler":10,
					"target":{
						"node":1,
						"path":"rotation"
					}
				},
				{
					"sampler":11,
					"target":{
						"node":1,
						"path":"scale"
					}
				},
				{
					"sampler":12,
					"target":{
						"node":2,
						"path":"translation"
					}
				},
				{
					"sampler":13,
					"target":{
						"node":2,
						"path":"rotation"
					}
				},
				{
					"sampler":14,
					"target":{
						"node":2,
						"path":"scale"
					}
				}
			],
			"name":"Open",
			"samplers":[
				{
					"input":7,
					"interpolation":"STEP",
					"output":24
				},
				{
					"input":7,
					"interpolation":"STEP",
					"output":25
				},
				{
					"input":7,
					"interpolation":"STEP",
					"output":26
				},
				{
					"input":7,
					"interpolation":"STEP",
					"output":27
				},
				{
					"input":7,
					"interpolation":"STEP",
					"output":28
				},
				{
					"input":7,
					"interpolation":"STEP",
					"output":29
				},
				{
					"input":7,
					"interpolation":"STEP",
					"output":30
				},
				{
					"input":7,
					"interpolation":"STEP",
					"output":31
				},
				{
					"input":7,
					"interpolation":"STEP",
					"output":32
				},
				{
					"input":7,
					"interpolation":"STEP",
					"output":33
				},
				{
					"input":7,
					"interpolation":"STEP",
					"output":34
				},
				{
					"input":7,
					"interpolation":"STEP",
					"output":35
				},
				{
					"input":20,
					"interpolation":"LINEAR",
					"output":36
				},
				{
					"input":7,
					"interpolation":"STEP",
					"output":37
				},
				{
					"input":7,
					"interpolation":"STEP",
					"output":38
				}
			]
		}
	],
	"materials":[
		{
			"doubleSided":true,
			"name":"Material.003",
			"pbrMetallicRoughness":{
				"baseColorTexture":{
					"index":0
				},
				"metallicFactor":0,
				"roughnessFactor":0.5
			}
		}
	],
	"meshes":[
		{
			"name":"Cube.005",
			"primitives":[
				{
					"attributes":{
						"POSITION":0,
						"NORMAL":1,
						"TEXCOORD_0":2,
						"JOINTS_0":3,
						"WEIGHTS_0":4
					},
					"indices":5,
					"material":0
				}
			]
		}
	],
	"textures":[
		{
			"sampler":0,
			"source":0
		}
	],
	"images":[
		{
			"mimeType":"image/png",
			"name":"tex",
			"uri":"tex.png"
		}
	],
	"skins":[
		{
			"inverseBindMatrices":6,
			"joints":[
				4,
				3,
				0,
				1,
				2
			],
			"name":"Armature"
		}
	],
	"accessors":[
		{
			"bufferView":0,
			"componentType":5126,
			"count":904,
			"max":[
				0.8000001311302185,
				0.7916631698608398,
				0.350000262260437
			],
			"min":[
				-0.8000001311302185,
				0.0017050392925739288,
				-0.350000262260437
			],
			"type":"VEC3"
		},
		{
			"bufferView":1,
			"componentType":5126,
			"count":904,
			"type":"VEC3"
		},
		{
			"bufferView":2,
			"componentType":5126,
			"count":904,
			"type":"VEC2"
		},
		{
			"bufferView":3,
			"componentType":5121,
			"count":904,
			"type":"VEC4"
		},
		{
			"bufferView":4,
			"componentType":5126,
			"count":904,
			"type":"VEC4"
		},
		{
			"bufferView":5,
			"componentType":5123,
			"count":2556,
			"type":"SCALAR"
		},
		{
			"bufferView":6,
			"componentType":5126,
			"count":5,
			"type":"MAT4"
		},
		{
			"bufferView":7,
			"componentType":5126,
			"count":2,
			"max":[
				1.25
			],
			"min":[
				0.041666666666666664
			],
			"type":"SCALAR"
		},
		{
			"bufferView":8,
			"componentType":5126,
			"count":2,
			"type":"VEC3"
		},
		{
			"bufferView":9,
			"componentType":5126,
			"count":2,
			"type":"VEC4"
		},
		{
			"bufferView":10,
			"componentType":5126,
			"count":2,
			"type":"VEC3"
		},
		{
			"bufferView":11,
			"componentType":5126,
			"count":2,
			"type":"VEC3"
		},
		{
			"bufferView":12,
			"componentType":5126,
			"count":2,
			"type":"VEC4"
		},
		{
			"bufferView":13,
			"componentType":5126,
			"count":2,
			"type":"VEC3"
		},
		{
			"bufferView":14,
			"componentType":5126,
			"count":2,
			"type":"VEC3"
		},
		{
			"bufferView":15,
			"componentType":5126,
			"count":2,
			"type":"VEC4"
		},
		{
			"bufferView":16,
			"componentType":5126,
			"count":2,
			"type":"VEC3"
		},
		{
			"bufferView":17,
			"componentType":5126,
			"count":2,
			"type":"VEC3"
		},
		{
			"bufferView":18,
			"componentType":5126,
			"count":2,
			"type":"VEC4"
		},
		{
			"bufferView":19,
			"componentType":5126,
			"count":2,
			"type":"VEC3"
		},
		{
			"bufferView":20,
			"componentType":5126,
			"count":30,
			"max":[
				1.25
			],
			"min":[
				0.041666666666666664
			],
			"type":"SCALAR"
		},
		{
			"bufferView":21,
			"componentType":5126,
			"count":30,
			"type":"VEC3"
		},
		{
			"bufferView":22,
			"componentType":5126,
			"count":2,
			"type":"VEC4"
		},
		{
			"bufferView":23,
			"componentType":5126,
			"count":2,
			"type":"VEC3"
		},
		{
			"bufferView":24,
			"componentType":5126,
			"count":2,
			"type":"VEC3"
		},
		{
			"bufferView":25,
			"componentType":5126,
			"count":2,
			"type":"VEC4"
		},
		{
			"bufferView":26,
			"componentType":5126,
			"count":2,
			"type":"VEC3"
		},
		{
			"bufferView":27,
			"componentType":5126,
			"count":2,
			"type":"VEC3"
		},
		{
			"bufferView":28,
			"componentType":5126,
			"count":2,
			"type":"VEC4"
		},
		{
			"bufferView":29,
			"componentType":5126,
			"count":2,
			"type":"VEC3"
		},
		{
			"bufferView":30,
			"componentType":5126,
			"count":2,
			"type":"VEC3"
		},
		{
			"bufferView":31,
			"componentType":5126,
			"count":2,
			"type":"VEC4"
		},
		{
			"bufferView":32,
			"componentType":5126,
			"count":2,
			"type":"VEC3"
		},
		{
			"bufferView":33,
			"componentType":5126,
			"count":2,
			"type":"VEC3"
		},
		{
			"bufferView":34,
			"componentType":5126,
			"count":2,
			"type":"VEC4"
		},
		{
			"bufferView":35,
			"componentType":5126,
			"count":2,
			"type":"VEC3"
		},
		{
			"bufferView":36,
			"componentType":5126,
			"count":30,
			"type":"VEC3"
		},
		{
			"bufferView":37,
			"componentType":5126,
			"count":2,
			"type":"VEC4"
		},
		{
			"bufferView":38,
			"componentType":5126,
			"count":2,
			"type":"VEC3"
		}
	],
	"bufferViews":[
		{
			"buffer":0,
			"byteLength":10848,
			"byteOffset":0,
			"target":34962
		},
		{
			"buffer":0,
			"byteLength":10848,
			"byteOffset":10848,
			"target":34962
		},
		{
			"buffer":0,
			"byteLength":7232,
			"byteOffset":21696,
			"target":34962
		},
		{
			"buffer":0,
			"byteLength":3616,
			"byteOffset":28928,
			"target":34962
		},
		{
			"buffer":0,
			"byteLength":14464,
			"byteOffset":32544,
			"target":34962
		},
		{
			"buffer":0,
			"byteLength":5112,
			"byteOffset":47008,
			"target":34963
		},
		{
			"buffer":0,
			"byteLength":320,
			"byteOffset":52120
		},
		{
			"buffer":0,
			"byteLength":8,
			"byteOffset":52440
		},
		{
			"buffer":0,
			"byteLength":24,
			"byteOffset":52448
		},
		{
			"buffer":0,
			"byteLength":32,
			"byteOffset":52472
		},
		{
			"buffer":0,
			"byteLength":24,
			"byteOffset":52504
		},
		{
			"buffer":0,
			"byteLength":24,
			"byteOffset":52528
		},
		{
			"buffer":0,
			"byteLength":32,
			"byteOffset":52552
		},
		{
			"buffer":0,
			"byteLength":24,
			"byteOffset":52584
		},
		{
			"buffer":0,
			"byteLength":24,
			"byteOffset":52608
		},
		{
			"buffer":0,
			"byteLength":32,
			"byteOffset":52632
		},
		{
			"buffer":0,
			"byteLength":24,
			"byteOffset":52664
		},
		{
			"buffer":0,
			"byteLength":24,
			"byteOffset":52688
		},
		{
			"buffer":0,
			"byteLength":32,
			"byteOffset":52712
		},
		{
			"buffer":0,
			"byteLength":24,
			"byteOffset":52744
		},
		{
			"buffer":0,
			"byteLength":120,
			"byteOffset":52768
		},
		{
			"buffer":0,
			"byteLength":360,
			"byteOffset":52888
		},
		{
			"buffer":0,
			"byteLength":32,
			"byteOffset":53248
		},
		{
			"buffer":0,
			"byteLength":24,
			"byteOffset":53280
		},
		{
			"buffer":0,
			"byteLength":24,
			"byteOffset":53304
		},
		{
			"buffer":0,
			"byteLength":32,
			"byteOffset":53328
		},
		{
			"buffer":0,
			"byteLength":24,
			"byteOffset":53360
		},
		{
			"buffer":0,
			"byteLength":24,
			"byteOffset":53384
		},
		{
			"buffer":0,
			"byteLength":32,
			"byteOffset":53408
		},
		{
			"buffer":0,
			"byteLength":24,
			"byteOffset":53440
		},
		{
			"buffer":0,
			"byteLength":24,
			"byteOffset":53464
		},
		{
			"buffer":0,
			"byteLength":32,
			"byteOffset":53488
		},
		{
			"buffer":0,
			"byteLength":24,
			"byteOffset":53520
		},
		{
			"buffer":0,
			"byteLength":24,
			"byteOffset":53544
		},
		{
			"buffer":0,
			"byteLength":32,
			"byteOffset":53568
		},
		{
			"buffer":0,
			"byteLength":24,
			"byteOffset":53600
		},
		{
			"buffer":0,
			"byteLength":360,
			"byteOffset":53624
		},
		{
			"buffer":0,
			"byteLength":32,
			"byteOffset":53984
		},
		{
			"buffer":0,
			"byteLength":24,
			"byteOffset":54016
		}
	],
	"samplers":[
		{
			"magFilter":9729,
			"minFilter":9987
		}
	],
	"buffers":[
		{
			"byteLength":54040,
			"uri":"desk.bin"
		}
	]
}
