{
	"asset":{
		"generator":"Khronos glTF Blender I/O v4.4.56",
		"version":"2.0"
	},
	"scene":0,
	"scenes":[
		{
			"name":"Scene",
			"nodes":[
				10
			]
		}
	],
	"nodes":[
		{
			"name":"\u89e6\u899a\u4e0a",
			"rotation":[
				0.2429148554801941,
				-3.3003193067315806e-08,
				-3.3838412491604686e-05,
				0.9700475931167603
			],
			"scale":[
				1,
				1.0000001192092896,
				0.9999999403953552
			],
			"translation":[
				2.9103830456733704e-09,
				0.7346951961517334,
				-6.162736099213362e-09
			]
		},
		{
			"children":[
				0
			],
			"name":"\u89e6\u899a\u4e0b",
			"rotation":[
				0.1914118081331253,
				-4.7566988570224567e-08,
				-0.014251168817281723,
				0.9814063906669617
			],
			"scale":[
				0.9999999403953552,
				0.9999999403953552,
				0.9999999403953552
			],
			"translation":[
				0,
				2.5946261882781982,
				0
			]
		},
		{
			"children":[
				1
			],
			"name":"\u771f\u3093\u4e2d"
		},
		{
			"name":"\u524d\u53f3",
			"rotation":[
				-0.0034266705624759197,
				0.00327568082138896,
				-0.7123935222625732,
				0.7017642259597778
			],
			"translation":[
				-1.3957158223894318e-25,
				1.3913213014602661,
				0
			]
		},
		{
			"name":"\u524d\u5de6",
			"rotation":[
				-0.004746878519654274,
				-0.004754635971039534,
				0.7157002091407776,
				0.6983752846717834
			],
			"scale":[
				1.0000001192092896,
				1.0000001192092896,
				1
			],
			"translation":[
				-1.3957158223894318e-25,
				1.3913213014602661,
				0
			]
		},
		{
			"children":[
				3,
				4
			],
			"name":"\u4e0b\u524d\u65b9",
			"rotation":[
				-0.7037950754165649,
				-7.336639668947866e-19,
				-7.336640702923631e-19,
				0.7104031443595886
			],
			"scale":[
				1,
				0.9999999403953552,
				0.9999999403953552
			]
		},
		{
			"name":"\u5f8c\u53f3",
			"rotation":[
				-3.524359271978028e-05,
				-3.536698568495922e-05,
				0.710844874382019,
				0.7033488154411316
			],
			"scale":[
				0.9999998807907104,
				0.9999998807907104,
				1
			],
			"translation":[
				0,
				1.378319501876831,
				9.313225746154785e-10
			]
		},
		{
			"name":"\u5f8c\u5de6",
			"rotation":[
				0.0014340034686028957,
				-0.0014977512182667851,
				-0.710269033908844,
				0.7039273381233215
			],
			"scale":[
				1,
				0.9999999403953552,
				1
			],
			"translation":[
				0,
				1.378319501876831,
				9.313225746154785e-10
			]
		},
		{
			"children":[
				6,
				7
			],
			"name":"\u4e0b\u5f8c\u65b9",
			"rotation":[
				5.363630251054019e-08,
				0.7037636637687683,
				0.7104341983795166,
				5.313268047757447e-08
			],
			"scale":[
				1,
				1.0000004768371582,
				1
			]
		},
		{
			"mesh":0,
			"name":"Cube",
			"skin":0
		},
		{
			"children":[
				9,
				2,
				5,
				8
			],
			"name":"\u30a2\u30fc\u30de\u30c1\u30e5\u30a2"
		}
	],
	"animations":[
		{
			"channels":[
				{
					"sampler":0,
					"target":{
						"node":2,
						"path":"translation"
					}
				},
				{
					"sampler":1,
					"target":{
						"node":2,
						"path":"rotation"
					}
				},
				{
					"sampler":2,
					"target":{
						"node":2,
						"path":"scale"
					}
				},
				{
					"sampler":3,
					"target":{
						"node":1,
						"path":"translation"
					}
				},
				{
					"sampler":4,
					"target":{
						"node":1,
						"path":"rotation"
					}
				},
				{
					"sampler":5,
					"target":{
						"node":1,
						"path":"scale"
					}
				},
				{
					"sampler":6,
					"target":{
						"node":0,
						"path":"translation"
					}
				},
				{
					"sampler":7,
					"target":{
						"node":0,
						"path":"rotation"
					}
				},
				{
					"sampler":8,
					"target":{
						"node":0,
						"path":"scale"
					}
				},
				{
					"sampler":9,
					"target":{
						"node":5,
						"path":"translation"
					}
				},
				{
					"sampler":10,
					"target":{
						"node":5,
						"path":"rotation"
					}
				},
				{
					"sampler":11,
					"target":{
						"node":5,
						"path":"scale"
					}
				},
				{
					"sampler":12,
					"target":{
						"node":3,
						"path":"translation"
					}
				},
				{
					"sampler":13,
					"target":{
						"node":3,
						"path":"rotation"
					}
				},
				{
					"sampler":14,
					"target":{
						"node":3,
						"path":"scale"
					}
				},
				{
					"sampler":15,
					"target":{
						"node":4,
						"path":"translation"
					}
				},
				{
					"sampler":16,
					"target":{
						"node":4,
						"path":"rotation"
					}
				},
				{
					"sampler":17,
					"target":{
						"node":4,
						"path":"scale"
					}
				},
				{
					"sampler":18,
					"target":{
						"node":8,
						"path":"translation"
					}
				},
				{
					"sampler":19,
					"target":{
						"node":8,
						"path":"rotation"
					}
				},
				{
					"sampler":20,
					"target":{
						"node":8,
						"path":"scale"
					}
				},
				{
					"sampler":21,
					"target":{
						"node":6,
						"path":"translation"
					}
				},
				{
					"sampler":22,
					"target":{
						"node":6,
						"path":"rotation"
					}
				},
				{
					"sampler":23,
					"target":{
						"node":6,
						"path":"scale"
					}
				},
				{
					"sampler":24,
					"target":{
						"node":7,
						"path":"translation"
					}
				},
				{
					"sampler":25,
					"target":{
						"node":7,
						"path":"rotation"
					}
				},
				{
					"sampler":26,
					"target":{
						"node":7,
						"path":"scale"
					}
				}
			],
			"name":"Idle",
			"samplers":[
				{
					"input":8,
					"interpolation":"LINEAR",
					"output":9
				},
				{
					"input":8,
					"interpolation":"LINEAR",
					"output":10
				},
				{
					"input":8,
					"interpolation":"LINEAR",
					"output":11
				},
				{
					"input":8,
					"interpolation":"LINEAR",
					"output":12
				},
				{
					"input":8,
					"interpolation":"LINEAR",
					"output":13
				},
				{
					"input":8,
					"interpolation":"LINEAR",
					"output":14
				},
				{
					"input":8,
					"interpolation":"LINEAR",
					"output":15
				},
				{
					"input":8,
					"interpolation":"LINEAR",
					"output":16
				},
				{
					"input":8,
					"interpolation":"LINEAR",
					"output":17
				},
				{
					"input":8,
					"interpolation":"LINEAR",
					"output":18
				},
				{
					"input":8,
					"interpolation":"LINEAR",
					"output":19
				},
				{
					"input":8,
					"interpolation":"LINEAR",
					"output":20
				},
				{
					"input":8,
					"interpolation":"LINEAR",
					"output":21
				},
				{
					"input":8,
					"interpolation":"LINEAR",
					"output":22
				},
				{
					"input":8,
					"interpolation":"LINEAR",
					"output":23
				},
				{
					"input":8,
					"interpolation":"LINEAR",
					"output":24
				},
				{
					"input":8,
					"interpolation":"LINEAR",
					"output":25
				},
				{
					"input":8,
					"interpolation":"LINEAR",
					"output":26
				},
				{
					"input":8,
					"interpolation":"LINEAR",
					"output":27
				},
				{
					"input":8,
					"interpolation":"LINEAR",
					"output":28
				},
				{
					"input":8,
					"interpolation":"LINEAR",
					"output":29
				},
				{
					"input":8,
					"interpolation":"LINEAR",
					"output":30
				},
				{
					"input":8,
					"interpolation":"LINEAR",
					"output":31
				},
				{
					"input":8,
					"interpolation":"LINEAR",
					"output":32
				},
				{
					"input":8,
					"interpolation":"LINEAR",
					"output":33
				},
				{
					"input":8,
					"interpolation":"LINEAR",
					"output":34
				},
				{
					"input":8,
					"interpolation":"LINEAR",
					"output":35
				}
			]
		},
		{
			"channels":[
				{
					"sampler":0,
					"target":{
						"node":2,
						"path":"translation"
					}
				},
				{
					"sampler":1,
					"target":{
						"node":2,
						"path":"rotation"
					}
				},
				{
					"sampler":2,
					"target":{
						"node":2,
						"path":"scale"
					}
				},
				{
					"sampler":3,
					"target":{
						"node":1,
						"path":"translation"
					}
				},
				{
					"sampler":4,
					"target":{
						"node":1,
						"path":"rotation"
					}
				},
				{
					"sampler":5,
					"target":{
						"node":1,
						"path":"scale"
					}
				},
				{
					"sampler":6,
					"target":{
						"node":0,
						"path":"translation"
					}
				},
				{
					"sampler":7,
					"target":{
						"node":0,
						"path":"rotation"
					}
				},
				{
					"sampler":8,
					"target":{
						"node":0,
						"path":"scale"
					}
				},
				{
					"sampler":9,
					"target":{
						"node":5,
						"path":"translation"
					}
				},
				{
					"sampler":10,
					"target":{
						"node":5,
						"path":"rotation"
					}
				},
				{
					"sampler":11,
					"target":{
						"node":5,
						"path":"scale"
					}
				},
				{
					"sampler":12,
					"target":{
						"node":3,
						"path":"translation"
					}
				},
				{
					"sampler":13,
					"target":{
						"node":3,
						"path":"rotation"
					}
				},
				{
					"sampler":14,
					"target":{
						"node":3,
						"path":"scale"
					}
				},
				{
					"sampler":15,
					"target":{
						"node":4,
						"path":"translation"
					}
				},
				{
					"sampler":16,
					"target":{
						"node":4,
						"path":"rotation"
					}
				},
				{
					"sampler":17,
					"target":{
						"node":4,
						"path":"scale"
					}
				},
				{
					"sampler":18,
					"target":{
						"node":8,
						"path":"translation"
					}
				},
				{
					"sampler":19,
					"target":{
						"node":8,
						"path":"rotation"
					}
				},
				{
					"sampler":20,
					"target":{
						"node":8,
						"path":"scale"
					}
				},
				{
					"sampler":21,
					"target":{
						"node":6,
						"path":"translation"
					}
				},
				{
					"sampler":22,
					"target":{
						"node":6,
						"path":"rotation"
					}
				},
				{
					"sampler":23,
					"target":{
						"node":6,
						"path":"scale"
					}
				},
				{
					"sampler":24,
					"target":{
						"node":7,
						"path":"translation"
					}
				},
				{
					"sampler":25,
					"target":{
						"node":7,
						"path":"rotation"
					}
				},
				{
					"sampler":26,
					"target":{
						"node":7,
						"path":"scale"
					}
				}
			],
			"name":"Run",
			"samplers":[
				{
					"input":36,
					"interpolation":"STEP",
					"output":37
				},
				{
					"input":36,
					"interpolation":"STEP",
					"output":38
				},
				{
					"input":36,
					"interpolation":"STEP",
					"output":39
				},
				{
					"input":36,
					"interpolation":"STEP",
					"output":40
				},
				{
					"input":41,
					"interpolation":"LINEAR",
					"output":42
				},
				{
					"input":36,
					"interpolation":"STEP",
					"output":43
				},
				{
					"input":36,
					"interpolation":"STEP",
					"output":44
				},
				{
					"input":41,
					"interpolation":"LINEAR",
					"output":45
				},
				{
					"input":36,
					"interpolation":"STEP",
					"output":46
				},
				{
					"input":36,
					"interpolation":"STEP",
					"output":47
				},
				{
					"input":36,
					"interpolation":"STEP",
					"output":48
				},
				{
					"input":36,
					"interpolation":"STEP",
					"output":49
				},
				{
					"input":36,
					"interpolation":"STEP",
					"output":50
				},
				{
					"input":41,
					"interpolation":"LINEAR",
					"output":51
				},
				{
					"input":36,
					"interpolation":"STEP",
					"output":52
				},
				{
					"input":36,
					"interpolation":"STEP",
					"output":53
				},
				{
					"input":41,
					"interpolation":"LINEAR",
					"output":54
				},
				{
					"input":36,
					"interpolation":"STEP",
					"output":55
				},
				{
					"input":36,
					"interpolation":"STEP",
					"output":56
				},
				{
					"input":36,
					"interpolation":"STEP",
					"output":57
				},
				{
					"input":36,
					"interpolation":"STEP",
					"output":58
				},
				{
					"input":36,
					"interpolation":"STEP",
					"output":59
				},
				{
					"input":41,
					"interpolation":"LINEAR",
					"output":60
				},
				{
					"input":36,
					"interpolation":"STEP",
					"output":61
				},
				{
					"input":36,
					"interpolation":"STEP",
					"output":62
				},
				{
					"input":41,
					"interpolation":"LINEAR",
					"output":63
				},
				{
					"input":36,
					"interpolation":"STEP",
					"output":64
				}
			]
		}
	],
	"materials":[
		{
			"alphaMode":"BLEND",
			"doubleSided":true,
			"name":"Material",
			"pbrMetallicRoughness":{
				"baseColorTexture":{
					"index":0
				},
				"metallicFactor":0,
				"roughnessFactor":0.5
			}
		}
	],
	"meshes":[
		{
			"name":"Cube",
			"primitives":[
				{
					"attributes":{
						"POSITION":0,
						"NORMAL":1,
						"TEXCOORD_0":2,
						"TEXCOORD_1":3,
						"JOINTS_0":4,
						"WEIGHTS_0":5
					},
					"indices":6,
					"material":0
				}
			]
		}
	],
	"textures":[
		{
			"sampler":0,
			"source":0
		}
	],
	"images":[
		{
			"mimeType":"image/png",
			"name":"radicon",
			"uri":"radicon.png"
		}
	],
	"skins":[
		{
			"inverseBindMatrices":7,
			"joints":[
				2,
				1,
				0,
				5,
				3,
				4,
				8,
				6,
				7
			],
			"name":"\u30a2\u30fc\u30de\u30c1\u30e5\u30a2"
		}
	],
	"accessors":[
		{
			"bufferView":0,
			"componentType":5126,
			"count":2857,
			"max":[
				1.9064735174179077,
				4.029820442199707,
				2.7532448768615723
			],
			"min":[
				-1.9064735174179077,
				-0.7024052739143372,
				-3.687493085861206
			],
			"type":"VEC3"
		},
		{
			"bufferView":1,
			"componentType":5126,
			"count":2857,
			"type":"VEC3"
		},
		{
			"bufferView":2,
			"componentType":5126,
			"count":2857,
			"type":"VEC2"
		},
		{
			"bufferView":3,
			"componentType":5126,
			"count":2857,
			"type":"VEC2"
		},
		{
			"bufferView":4,
			"componentType":5121,
			"count":2857,
			"type":"VEC4"
		},
		{
			"bufferView":5,
			"componentType":5126,
			"count":2857,
			"type":"VEC4"
		},
		{
			"bufferView":6,
			"componentType":5123,
			"count":11772,
			"type":"SCALAR"
		},
		{
			"bufferView":7,
			"componentType":5126,
			"count":9,
			"type":"MAT4"
		},
		{
			"bufferView":8,
			"componentType":5126,
			"count":1,
			"max":[
				0
			],
			"min":[
				0
			],
			"type":"SCALAR"
		},
		{
			"bufferView":9,
			"componentType":5126,
			"count":1,
			"type":"VEC3"
		},
		{
			"bufferView":10,
			"componentType":5126,
			"count":1,
			"type":"VEC4"
		},
		{
			"bufferView":11,
			"componentType":5126,
			"count":1,
			"type":"VEC3"
		},
		{
			"bufferView":12,
			"componentType":5126,
			"count":1,
			"type":"VEC3"
		},
		{
			"bufferView":13,
			"componentType":5126,
			"count":1,
			"type":"VEC4"
		},
		{
			"bufferView":14,
			"componentType":5126,
			"count":1,
			"type":"VEC3"
		},
		{
			"bufferView":15,
			"componentType":5126,
			"count":1,
			"type":"VEC3"
		},
		{
			"bufferView":16,
			"componentType":5126,
			"count":1,
			"type":"VEC4"
		},
		{
			"bufferView":17,
			"componentType":5126,
			"count":1,
			"type":"VEC3"
		},
		{
			"bufferView":18,
			"componentType":5126,
			"count":1,
			"type":"VEC3"
		},
		{
			"bufferView":19,
			"componentType":5126,
			"count":1,
			"type":"VEC4"
		},
		{
			"bufferView":20,
			"componentType":5126,
			"count":1,
			"type":"VEC3"
		},
		{
			"bufferView":21,
			"componentType":5126,
			"count":1,
			"type":"VEC3"
		},
		{
			"bufferView":22,
			"componentType":5126,
			"count":1,
			"type":"VEC4"
		},
		{
			"bufferView":23,
			"componentType":5126,
			"count":1,
			"type":"VEC3"
		},
		{
			"bufferView":24,
			"componentType":5126,
			"count":1,
			"type":"VEC3"
		},
		{
			"bufferView":25,
			"componentType":5126,
			"count":1,
			"type":"VEC4"
		},
		{
			"bufferView":26,
			"componentType":5126,
			"count":1,
			"type":"VEC3"
		},
		{
			"bufferView":27,
			"componentType":5126,
			"count":1,
			"type":"VEC3"
		},
		{
			"bufferView":28,
			"componentType":5126,
			"count":1,
			"type":"VEC4"
		},
		{
			"bufferView":29,
			"componentType":5126,
			"count":1,
			"type":"VEC3"
		},
		{
			"bufferView":30,
			"componentType":5126,
			"count":1,
			"type":"VEC3"
		},
		{
			"bufferView":31,
			"componentType":5126,
			"count":1,
			"type":"VEC4"
		},
		{
			"bufferView":32,
			"componentType":5126,
			"count":1,
			"type":"VEC3"
		},
		{
			"bufferView":33,
			"componentType":5126,
			"count":1,
			"type":"VEC3"
		},
		{
			"bufferView":34,
			"componentType":5126,
			"count":1,
			"type":"VEC4"
		},
		{
			"bufferView":35,
			"componentType":5126,
			"count":1,
			"type":"VEC3"
		},
		{
			"bufferView":36,
			"componentType":5126,
			"count":2,
			"max":[
				0.8333333333333334
			],
			"min":[
				0
			],
			"type":"SCALAR"
		},
		{
			"bufferView":37,
			"componentType":5126,
			"count":2,
			"type":"VEC3"
		},
		{
			"bufferView":38,
			"componentType":5126,
			"count":2,
			"type":"VEC4"
		},
		{
			"bufferView":39,
			"componentType":5126,
			"count":2,
			"type":"VEC3"
		},
		{
			"bufferView":40,
			"componentType":5126,
			"count":2,
			"type":"VEC3"
		},
		{
			"bufferView":41,
			"componentType":5126,
			"count":21,
			"max":[
				0.8333333333333334
			],
			"min":[
				0
			],
			"type":"SCALAR"
		},
		{
			"bufferView":42,
			"componentType":5126,
			"count":21,
			"type":"VEC4"
		},
		{
			"bufferView":43,
			"componentType":5126,
			"count":2,
			"type":"VEC3"
		},
		{
			"bufferView":44,
			"componentType":5126,
			"count":2,
			"type":"VEC3"
		},
		{
			"bufferView":45,
			"componentType":5126,
			"count":21,
			"type":"VEC4"
		},
		{
			"bufferView":46,
			"componentType":5126,
			"count":2,
			"type":"VEC3"
		},
		{
			"bufferView":47,
			"componentType":5126,
			"count":2,
			"type":"VEC3"
		},
		{
			"bufferView":48,
			"componentType":5126,
			"count":2,
			"type":"VEC4"
		},
		{
			"bufferView":49,
			"componentType":5126,
			"count":2,
			"type":"VEC3"
		},
		{
			"bufferView":50,
			"componentType":5126,
			"count":2,
			"type":"VEC3"
		},
		{
			"bufferView":51,
			"componentType":5126,
			"count":21,
			"type":"VEC4"
		},
		{
			"bufferView":52,
			"componentType":5126,
			"count":2,
			"type":"VEC3"
		},
		{
			"bufferView":53,
			"componentType":5126,
			"count":2,
			"type":"VEC3"
		},
		{
			"bufferView":54,
			"componentType":5126,
			"count":21,
			"type":"VEC4"
		},
		{
			"bufferView":55,
			"componentType":5126,
			"count":2,
			"type":"VEC3"
		},
		{
			"bufferView":56,
			"componentType":5126,
			"count":2,
			"type":"VEC3"
		},
		{
			"bufferView":57,
			"componentType":5126,
			"count":2,
			"type":"VEC4"
		},
		{
			"bufferView":58,
			"componentType":5126,
			"count":2,
			"type":"VEC3"
		},
		{
			"bufferView":59,
			"componentType":5126,
			"count":2,
			"type":"VEC3"
		},
		{
			"bufferView":60,
			"componentType":5126,
			"count":21,
			"type":"VEC4"
		},
		{
			"bufferView":61,
			"componentType":5126,
			"count":2,
			"type":"VEC3"
		},
		{
			"bufferView":62,
			"componentType":5126,
			"count":2,
			"type":"VEC3"
		},
		{
			"bufferView":63,
			"componentType":5126,
			"count":21,
			"type":"VEC4"
		},
		{
			"bufferView":64,
			"componentType":5126,
			"count":2,
			"type":"VEC3"
		}
	],
	"bufferViews":[
		{
			"buffer":0,
			"byteLength":34284,
			"byteOffset":0,
			"target":34962
		},
		{
			"buffer":0,
			"byteLength":34284,
			"byteOffset":34284,
			"target":34962
		},
		{
			"buffer":0,
			"byteLength":22856,
			"byteOffset":68568,
			"target":34962
		},
		{
			"buffer":0,
			"byteLength":22856,
			"byteOffset":91424,
			"target":34962
		},
		{
			"buffer":0,
			"byteLength":11428,
			"byteOffset":114280,
			"target":34962
		},
		{
			"buffer":0,
			"byteLength":45712,
			"byteOffset":125708,
			"target":34962
		},
		{
			"buffer":0,
			"byteLength":23544,
			"byteOffset":171420,
			"target":34963
		},
		{
			"buffer":0,
			"byteLength":576,
			"byteOffset":194964
		},
		{
			"buffer":0,
			"byteLength":4,
			"byteOffset":195540
		},
		{
			"buffer":0,
			"byteLength":12,
			"byteOffset":195544
		},
		{
			"buffer":0,
			"byteLength":16,
			"byteOffset":195556
		},
		{
			"buffer":0,
			"byteLength":12,
			"byteOffset":195572
		},
		{
			"buffer":0,
			"byteLength":12,
			"byteOffset":195584
		},
		{
			"buffer":0,
			"byteLength":16,
			"byteOffset":195596
		},
		{
			"buffer":0,
			"byteLength":12,
			"byteOffset":195612
		},
		{
			"buffer":0,
			"byteLength":12,
			"byteOffset":195624
		},
		{
			"buffer":0,
			"byteLength":16,
			"byteOffset":195636
		},
		{
			"buffer":0,
			"byteLength":12,
			"byteOffset":195652
		},
		{
			"buffer":0,
			"byteLength":12,
			"byteOffset":195664
		},
		{
			"buffer":0,
			"byteLength":16,
			"byteOffset":195676
		},
		{
			"buffer":0,
			"byteLength":12,
			"byteOffset":195692
		},
		{
			"buffer":0,
			"byteLength":12,
			"byteOffset":195704
		},
		{
			"buffer":0,
			"byteLength":16,
			"byteOffset":195716
		},
		{
			"buffer":0,
			"byteLength":12,
			"byteOffset":195732
		},
		{
			"buffer":0,
			"byteLength":12,
			"byteOffset":195744
		},
		{
			"buffer":0,
			"byteLength":16,
			"byteOffset":195756
		},
		{
			"buffer":0,
			"byteLength":12,
			"byteOffset":195772
		},
		{
			"buffer":0,
			"byteLength":12,
			"byteOffset":195784
		},
		{
			"buffer":0,
			"byteLength":16,
			"byteOffset":195796
		},
		{
			"buffer":0,
			"byteLength":12,
			"byteOffset":195812
		},
		{
			"buffer":0,
			"byteLength":12,
			"byteOffset":195824
		},
		{
			"buffer":0,
			"byteLength":16,
			"byteOffset":195836
		},
		{
			"buffer":0,
			"byteLength":12,
			"byteOffset":195852
		},
		{
			"buffer":0,
			"byteLength":12,
			"byteOffset":195864
		},
		{
			"buffer":0,
			"byteLength":16,
			"byteOffset":195876
		},
		{
			"buffer":0,
			"byteLength":12,
			"byteOffset":195892
		},
		{
			"buffer":0,
			"byteLength":8,
			"byteOffset":195904
		},
		{
			"buffer":0,
			"byteLength":24,
			"byteOffset":195912
		},
		{
			"buffer":0,
			"byteLength":32,
			"byteOffset":195936
		},
		{
			"buffer":0,
			"byteLength":24,
			"byteOffset":195968
		},
		{
			"buffer":0,
			"byteLength":24,
			"byteOffset":195992
		},
		{
			"buffer":0,
			"byteLength":84,
			"byteOffset":196016
		},
		{
			"buffer":0,
			"byteLength":336,
			"byteOffset":196100
		},
		{
			"buffer":0,
			"byteLength":24,
			"byteOffset":196436
		},
		{
			"buffer":0,
			"byteLength":24,
			"byteOffset":196460
		},
		{
			"buffer":0,
			"byteLength":336,
			"byteOffset":196484
		},
		{
			"buffer":0,
			"byteLength":24,
			"byteOffset":196820
		},
		{
			"buffer":0,
			"byteLength":24,
			"byteOffset":196844
		},
		{
			"buffer":0,
			"byteLength":32,
			"byteOffset":196868
		},
		{
			"buffer":0,
			"byteLength":24,
			"byteOffset":196900
		},
		{
			"buffer":0,
			"byteLength":24,
			"byteOffset":196924
		},
		{
			"buffer":0,
			"byteLength":336,
			"byteOffset":196948
		},
		{
			"buffer":0,
			"byteLength":24,
			"byteOffset":197284
		},
		{
			"buffer":0,
			"byteLength":24,
			"byteOffset":197308
		},
		{
			"buffer":0,
			"byteLength":336,
			"byteOffset":197332
		},
		{
			"buffer":0,
			"byteLength":24,
			"byteOffset":197668
		},
		{
			"buffer":0,
			"byteLength":24,
			"byteOffset":197692
		},
		{
			"buffer":0,
			"byteLength":32,
			"byteOffset":197716
		},
		{
			"buffer":0,
			"byteLength":24,
			"byteOffset":197748
		},
		{
			"buffer":0,
			"byteLength":24,
			"byteOffset":197772
		},
		{
			"buffer":0,
			"byteLength":336,
			"byteOffset":197796
		},
		{
			"buffer":0,
			"byteLength":24,
			"byteOffset":198132
		},
		{
			"buffer":0,
			"byteLength":24,
			"byteOffset":198156
		},
		{
			"buffer":0,
			"byteLength":336,
			"byteOffset":198180
		},
		{
			"buffer":0,
			"byteLength":24,
			"byteOffset":198516
		}
	],
	"samplers":[
		{
			"magFilter":9729,
			"minFilter":9987
		}
	],
	"buffers":[
		{
			"byteLength":198540,
			"uri":"Radicon.bin"
		}
	]
}
