# Blender 4.4.1
# www.blender.org
mtllib light.mtl
o Cylinder
v -0.000000 0.012641 -0.010157
v -0.000000 0.062107 -0.017353
v 0.003887 0.012641 -0.009383
v 0.006641 0.062107 -0.016032
v 0.007182 0.012641 -0.007182
v 0.012270 0.062107 -0.012270
v 0.009383 0.012641 -0.003887
v 0.016032 0.062107 -0.006641
v 0.010157 0.012641 0.000000
v 0.017353 0.062107 0.000000
v 0.009383 0.012641 0.003887
v 0.016032 0.062107 0.006641
v 0.007182 0.012641 0.007182
v 0.012270 0.062107 0.012270
v 0.003887 0.012641 0.009383
v 0.006641 0.062107 0.016032
v -0.000000 0.012641 0.010157
v -0.000000 0.062107 0.017353
v -0.003887 0.012641 0.009383
v -0.006641 0.062107 0.016032
v -0.007182 0.012641 0.007182
v -0.012270 0.062107 0.012270
v -0.009383 0.012641 0.003887
v -0.016032 0.062107 0.006641
v -0.010157 0.012641 0.000000
v -0.017353 0.062107 0.000000
v -0.009383 0.012641 -0.003887
v -0.016032 0.062107 -0.006641
v -0.007182 0.012641 -0.007182
v -0.012270 0.062107 -0.012270
v -0.003887 0.012641 -0.009383
v -0.006641 0.062107 -0.016032
v -0.000000 0.022515 -0.019614
v 0.007506 0.022515 -0.018121
v 0.013869 0.022515 -0.013869
v 0.018121 0.022515 -0.007506
v 0.019614 0.022515 0.000000
v 0.018121 0.022515 0.007506
v 0.013869 0.022515 0.013869
v 0.007506 0.022515 0.018121
v -0.000000 0.022515 0.019614
v -0.007506 0.022515 0.018121
v -0.013869 0.022515 0.013869
v -0.018121 0.022515 0.007506
v -0.019614 0.022515 0.000000
v -0.018121 0.022515 -0.007506
v -0.013869 0.022515 -0.013869
v -0.007506 0.022515 -0.018121
v -0.000000 -0.096845 -0.006224
v 0.002382 -0.096845 -0.005750
v 0.004401 -0.096845 -0.004401
v 0.005750 -0.096845 -0.002382
v 0.006224 -0.096845 0.000000
v 0.005750 -0.096845 0.002382
v 0.004401 -0.096845 0.004401
v 0.002382 -0.096845 0.005750
v -0.000000 -0.096845 0.006224
v -0.002382 -0.096845 0.005750
v -0.004401 -0.096845 0.004401
v -0.005750 -0.096845 0.002382
v -0.006224 -0.096845 0.000000
v -0.005750 -0.096845 -0.002382
v -0.004401 -0.096845 -0.004401
v -0.002382 -0.096845 -0.005750
v 0.007506 0.062291 -0.018121
v -0.000000 0.062291 -0.019614
v 0.013869 0.062291 -0.013869
v 0.018121 0.062291 -0.007506
v 0.019614 0.062291 0.000000
v 0.018121 0.062291 0.007506
v 0.013869 0.062291 0.013869
v 0.007506 0.062291 0.018121
v -0.000000 0.062291 0.019614
v -0.007506 0.062291 0.018121
v -0.013869 0.062291 0.013869
v -0.018121 0.062291 0.007506
v -0.019614 0.062291 0.000000
v -0.018121 0.062291 -0.007506
v -0.013869 0.062291 -0.013869
v -0.007506 0.062291 -0.018121
v 0.000000 0.054039 0.000000
v -0.000000 -0.096845 -0.010157
v 0.003887 -0.096845 -0.009383
v 0.007182 -0.096845 -0.007182
v 0.009383 -0.096845 -0.003887
v 0.010157 -0.096845 0.000000
v 0.009383 -0.096845 0.003887
v 0.007182 -0.096845 0.007182
v 0.003887 -0.096845 0.009383
v -0.000000 -0.096845 0.010157
v -0.003887 -0.096845 0.009383
v -0.007182 -0.096845 0.007182
v -0.009383 -0.096845 0.003887
v -0.010157 -0.096845 0.000000
v -0.009383 -0.096845 -0.003887
v -0.007182 -0.096845 -0.007182
v -0.003887 -0.096845 -0.009383
v -0.000000 -0.102079 0.000000
v -0.000000 -0.102079 -0.005499
v 0.002104 -0.102079 -0.005080
v 0.003888 -0.102079 -0.003888
v 0.005080 -0.102079 -0.002104
v 0.005499 -0.102079 0.000000
v 0.005080 -0.102079 0.002104
v 0.003888 -0.102079 0.003888
v 0.002104 -0.102079 0.005080
v -0.000000 -0.102079 0.005499
v -0.002104 -0.102079 0.005080
v -0.003888 -0.102079 0.003888
v -0.005080 -0.102079 0.002104
v -0.005499 -0.102079 0.000000
v -0.005080 -0.102079 -0.002104
v -0.003888 -0.102079 -0.003888
v -0.002104 -0.102079 -0.005080
v 0.006641 0.047961 -0.016032
v -0.000000 0.047961 -0.017353
v 0.012270 0.047961 -0.012270
v 0.016032 0.047961 -0.006641
v 0.017353 0.047961 0.000000
v 0.016032 0.047961 0.006641
v 0.012270 0.047961 0.012270
v 0.006641 0.047961 0.016032
v -0.000000 0.047961 0.017353
v -0.006641 0.047961 0.016032
v -0.012270 0.047961 0.012270
v -0.016032 0.047961 0.006641
v -0.017353 0.047961 0.000000
v -0.016032 0.047961 -0.006641
v -0.012270 0.047961 -0.012270
v -0.006641 0.047961 -0.016032
v -0.000000 0.052043 -0.009529
v 0.003647 0.052043 -0.008804
v 0.006738 0.052043 -0.006738
v 0.008804 0.052043 -0.003647
v 0.009529 0.052043 0.000000
v 0.008804 0.052043 0.003647
v 0.006738 0.052043 0.006738
v 0.003647 0.052043 0.008804
v -0.000000 0.052043 0.009529
v -0.003647 0.052043 0.008804
v -0.006738 0.052043 0.006738
v -0.008804 0.052043 0.003647
v -0.009529 0.052043 0.000000
v -0.008804 0.052043 -0.003647
v -0.006738 0.052043 -0.006738
v -0.003647 0.052043 -0.008804
vn -0.0000 -0.0000 -1.0000
vn 0.3827 -0.0000 -0.9239
vn 0.7071 -0.0000 -0.7071
vn 0.9239 -0.0000 -0.3827
vn 1.0000 -0.0000 -0.0000
vn 0.9239 -0.0000 0.3827
vn 0.7071 -0.0000 0.7071
vn 0.3827 -0.0000 0.9239
vn -0.0000 -0.0000 1.0000
vn -0.3827 -0.0000 0.9239
vn -0.7071 -0.0000 0.7071
vn -0.9239 -0.0000 0.3827
vn -1.0000 -0.0000 -0.0000
vn -0.9239 -0.0000 -0.3827
vn -0.7071 -0.0000 -0.7071
vn -0.3827 -0.0000 -0.9239
vn -0.0000 -0.6917 -0.7222
vn 0.2764 -0.6917 -0.6672
vn 0.5106 -0.6917 -0.5106
vn 0.6672 -0.6917 -0.2764
vn 0.7222 -0.6917 -0.0000
vn 0.6672 -0.6917 0.2764
vn 0.5106 -0.6917 0.5107
vn 0.5106 -0.6917 0.5106
vn 0.2764 -0.6917 0.6672
vn -0.0000 -0.6917 0.7222
vn -0.2764 -0.6917 0.6672
vn -0.5107 -0.6917 0.5106
vn -0.5106 -0.6917 0.5106
vn -0.6672 -0.6917 0.2764
vn -0.7222 -0.6917 -0.0000
vn -0.6672 -0.6917 -0.2764
vn -0.5106 -0.6917 -0.5107
vn -0.5106 -0.6917 -0.5106
vn -0.2764 -0.6917 -0.6672
vn -0.9905 -0.1372 -0.0000
vn -0.9151 -0.1372 0.3791
vn -0.0000 0.9967 0.0811
vn -0.0310 0.9967 0.0749
vn -0.0573 0.9967 0.0573
vn -0.0749 0.9967 0.0310
vn -0.0811 0.9967 -0.0000
vn -0.0749 0.9967 -0.0310
vn -0.0573 0.9967 -0.0573
vn -0.0310 0.9967 -0.0749
vn -0.0000 0.9967 -0.0811
vn 0.0310 0.9967 -0.0749
vn 0.0573 0.9967 -0.0573
vn 0.0749 0.9967 -0.0310
vn 0.0811 0.9967 -0.0000
vn 0.0749 0.9967 0.0310
vn 0.0573 0.9967 0.0573
vn 0.0310 0.9967 0.0749
vn -0.0000 1.0000 -0.0000
vn -0.0000 0.9360 -0.3519
vn -0.1347 0.9360 -0.3251
vn -0.0000 -1.0000 -0.0000
vn 0.9151 -0.1372 0.3791
vn 0.9905 -0.1372 -0.0000
vn -0.9151 -0.1372 -0.3791
vn 0.7004 -0.1372 0.7004
vn -0.7004 -0.1372 -0.7004
vn 0.3791 -0.1372 0.9151
vn -0.3791 -0.1372 -0.9151
vn -0.0000 -0.1372 0.9905
vn 0.3791 -0.1372 -0.9151
vn -0.0000 -0.1372 -0.9905
vn -0.3791 -0.1372 0.9151
vn 0.7004 -0.1372 -0.7004
vn -0.7004 -0.1372 0.7004
vn 0.9151 -0.1372 -0.3791
vn 0.1347 0.9360 -0.3251
vn -0.0000 0.8866 -0.4626
vn 0.2489 0.9360 -0.2489
vn 0.1770 0.8866 -0.4274
vn 0.3251 0.9360 -0.1347
vn 0.3271 0.8866 -0.3271
vn 0.4626 0.8866 -0.0000
vn 0.4274 0.8866 -0.1770
vn 0.3251 0.9360 0.1347
vn 0.3519 0.9360 -0.0000
vn 0.2489 0.9360 0.2489
vn 0.4274 0.8866 0.1770
vn 0.1347 0.9360 0.3251
vn 0.3271 0.8866 0.3271
vn -0.0000 0.9360 0.3519
vn 0.1770 0.8866 0.4274
vn -0.1347 0.9360 0.3251
vn -0.0000 0.8866 0.4626
vn -0.2489 0.9360 0.2489
vn -0.1770 0.8866 0.4274
vn -0.3251 0.9360 0.1347
vn -0.3271 0.8866 0.3271
vn -0.4626 0.8866 -0.0000
vn -0.4274 0.8866 0.1770
vn -0.3251 0.9360 -0.1347
vn -0.3519 0.9360 -0.0000
vn -0.3271 0.8866 -0.3271
vn -0.4274 0.8866 -0.1770
vn -0.2489 0.9360 -0.2489
vn -0.1770 0.8866 -0.4274
vt 0.054023 0.547344
vt 0.262706 0.626669
vt 0.268619 0.589007
vt 0.046754 0.590684
vt 0.257716 0.664605
vt 0.040639 0.633926
vt 0.253816 0.702857
vt 0.035537 0.677027
vt 0.248722 0.740941
vt 0.031330 0.720250
vt 0.246422 0.779630
vt 0.028183 0.763375
vt 0.244920 0.818864
vt 0.025948 0.806397
vt 0.244759 0.859026
vt 0.024493 0.849248
vt 0.246774 0.900825
vt 0.170211 0.215792
vt 0.352752 0.335598
vt 0.373569 0.299563
vt 0.144188 0.247860
vt 0.334291 0.370434
vt 0.127484 0.289473
vt 0.318956 0.405946
vt 0.111657 0.331607
vt 0.304885 0.441511
vt 0.097081 0.374342
vt 0.294145 0.477998
vt 0.084119 0.417376
vt 0.285020 0.514938
vt 0.610676 0.232079
vt 0.627912 0.310355
vt 0.585323 0.254894
vt 0.072682 0.460525
vt 0.275344 0.551606
vt 0.062599 0.503943
vt 0.771625 0.981889
vt 0.795314 0.374329
vt 0.793535 0.982070
vt 0.343934 0.603801
vt 0.337636 0.639059
vt 0.332119 0.674398
vt 0.326871 0.709472
vt 0.326319 0.745182
vt 0.322844 0.779069
vt 0.320824 0.810545
vt 0.320635 0.838377
vt 0.324314 0.861547
vt 0.427263 0.373755
vt 0.411054 0.391235
vt 0.397371 0.414021
vt 0.384951 0.440338
vt 0.376583 0.470367
vt 0.366111 0.501701
vt 0.356504 0.534273
vt 0.351517 0.568901
vt 0.893201 0.431817
vt 0.889312 0.460758
vt 0.873876 0.439772
vt 0.574475 0.981660
vt 0.596807 0.374227
vt 0.596398 0.981575
vt 0.749720 0.981737
vt 0.773265 0.374192
vt 0.552544 0.981763
vt 0.574770 0.374344
vt 0.727820 0.981618
vt 0.751209 0.374088
vt 0.530604 0.981884
vt 0.552741 0.374469
vt 0.705921 0.981533
vt 0.729149 0.374017
vt 0.508655 0.982026
vt 0.530722 0.374593
vt 0.684023 0.981481
vt 0.707087 0.373978
vt 0.486695 0.982205
vt 0.508712 0.374700
vt 0.662124 0.981461
vt 0.685024 0.373971
vt 0.464726 0.982387
vt 0.486713 0.374776
vt 0.618312 0.981511
vt 0.640905 0.374047
vt 0.640220 0.981472
vt 0.662963 0.373995
vt 0.817125 0.377329
vt 0.815514 0.982133
vt 0.618853 0.374126
vt 0.097399 0.033337
vt 0.134412 0.013849
vt 0.093067 0.021544
vt 0.133940 0.026404
vt 0.175343 0.022499
vt 0.170131 0.033931
vt 0.209690 0.046096
vt 0.220537 0.085484
vt 0.200527 0.054690
vt 0.239659 0.121939
vt 0.232275 0.081012
vt 0.227103 0.121617
vt 0.230619 0.162663
vt 0.219139 0.157575
vt 0.206321 0.196744
vt 0.165908 0.207750
vt 0.197698 0.187815
vt 0.135730 0.224842
vt 0.091827 0.226785
vt 0.097364 0.215509
vt 0.055548 0.201932
vt 0.042390 0.160453
vt 0.064621 0.193235
vt 0.023614 0.121503
vt 0.030611 0.164776
vt 0.036148 0.122256
vt 0.033167 0.079520
vt 0.044493 0.084934
vt 0.057538 0.044539
vt 0.066007 0.053815
vt 0.836958 0.138443
vt 0.826497 0.189862
vt 0.807535 0.182064
vt 0.495977 0.104622
vt 0.510008 0.025709
vt 0.528131 0.093246
vt 0.571293 0.333808
vt 0.553169 0.266270
vt 0.571293 0.025709
vt 0.562191 0.095040
vt 0.510008 0.333808
vt 0.519110 0.264476
vt 0.627912 0.049161
vt 0.592971 0.109732
vt 0.453388 0.310355
vt 0.488329 0.249784
vt 0.671247 0.092496
vt 0.615786 0.135085
vt 0.410053 0.267020
vt 0.465514 0.224431
vt 0.694700 0.149116
vt 0.627163 0.167239
vt 0.386601 0.210401
vt 0.454138 0.192277
vt 0.694700 0.210400
vt 0.625368 0.201299
vt 0.386601 0.149116
vt 0.455932 0.158218
vt 0.671247 0.267020
vt 0.470624 0.127437
vt 0.453388 0.049161
vt 0.410053 0.092496
vt 0.886716 0.327735
vt 0.913283 0.336144
vt 0.891853 0.340052
vt 0.913152 0.357716
vt 0.891806 0.353257
vt 0.886658 0.365292
vt 0.904715 0.377569
vt 0.877194 0.374297
vt 0.889212 0.392569
vt 0.869189 0.400319
vt 0.864890 0.378865
vt 0.848118 0.399668
vt 0.851628 0.378280
vt 0.839275 0.372557
vt 0.829840 0.391454
vt 0.828673 0.363119
vt 0.822535 0.352926
vt 0.799257 0.338525
vt 0.822332 0.339981
vt 0.827654 0.327327
vt 0.809890 0.314893
vt 0.837741 0.317777
vt 0.827130 0.298893
vt 0.848176 0.291192
vt 0.850726 0.312741
vt 0.870056 0.291977
vt 0.864570 0.312889
vt 0.890027 0.300636
vt 0.877168 0.318192
vt 0.905197 0.316130
vt 0.892126 0.536773
vt 0.908107 0.512381
vt 0.912593 0.536781
vt 0.914223 0.431880
vt 0.899466 0.457083
vt 0.873130 0.528558
vt 0.897220 0.511446
vt 0.933760 0.440073
vt 0.910219 0.457598
vt 0.858215 0.513692
vt 0.887494 0.506644
vt 0.949009 0.455119
vt 0.919871 0.462256
vt 0.851356 0.493997
vt 0.880531 0.498465
vt 0.955898 0.496138
vt 0.931485 0.480013
vt 0.955898 0.475161
vt 0.926754 0.470373
vt 0.876610 0.477852
vt 0.875797 0.488721
vt 0.947647 0.515791
vt 0.930482 0.490750
vt 0.859129 0.454402
vt 0.851137 0.473425
vt 0.931945 0.529911
vt 0.925410 0.500142
vt 0.881302 0.468049
vt 0.918059 0.507938
vt 0.903514 0.484432
vt 0.846996 0.190102
vt 0.816815 0.237483
vt 0.865914 0.182210
vt 0.856204 0.237411
vt 0.880572 0.167889
vt 0.892757 0.222721
vt 0.936029 0.158530
vt 0.920560 0.194795
vt 0.888527 0.128455
vt 0.888343 0.148935
vt 0.880814 0.109452
vt 0.936034 0.119092
vt 0.866426 0.094818
vt 0.921072 0.082676
vt 0.847456 0.087051
vt 0.893282 0.054841
vt 0.826963 0.086861
vt 0.857047 0.039380
vt 0.807936 0.094542
vt 0.817641 0.039380
vt 0.793499 0.109093
vt 0.781288 0.054419
vt 0.738052 0.118376
vt 0.753136 0.081977
vt 0.785294 0.148478
vt 0.785481 0.127955
vt 0.752698 0.194238
vt 0.738022 0.157705
vt 0.793201 0.167400
vt 0.780593 0.222029
vt 0.023614 0.891739
vt 0.464726 0.375048
s 1
usemtl Material
f 66/1/1 34/2/2 33/3/1
f 65/4/2 35/5/3 34/2/2
f 67/6/3 36/7/4 35/5/3
f 68/8/4 37/9/5 36/7/4
f 69/10/5 38/11/6 37/9/5
f 70/12/6 39/13/7 38/11/6
f 71/14/7 40/15/8 39/13/7
f 72/16/8 41/17/9 40/15/8
f 73/18/9 42/19/10 41/20/9
f 74/21/10 43/22/11 42/19/10
f 75/23/11 44/24/12 43/22/11
f 76/25/12 45/26/13 44/24/12
f 77/27/13 46/28/14 45/26/13
f 78/29/14 47/30/15 46/28/14
f 18/31/1 124/32/2 20/33/2
f 79/34/15 48/35/16 47/30/15
f 80/36/16 33/3/1 48/35/16
f 21/37/11 91/38/10 19/39/10
f 1/40/17 34/2/18 3/41/18
f 5/42/19 34/2/18 35/5/19
f 5/42/19 36/7/20 7/43/20
f 7/43/20 37/9/21 9/44/21
f 11/45/22 37/9/21 38/11/22
f 11/45/22 39/13/23 13/46/24
f 13/46/24 40/15/25 15/47/25
f 15/47/25 41/17/26 17/48/26
f 17/49/26 42/19/27 19/50/27
f 19/50/27 43/22/28 21/51/29
f 21/51/29 44/24/30 23/52/30
f 23/52/30 45/26/31 25/53/31
f 25/53/31 46/28/32 27/54/32
f 27/54/32 47/30/33 29/55/34
f 29/55/34 48/35/35 31/56/35
f 31/56/35 33/3/17 1/40/17
f 61/57/36 110/58/37 60/59/37
f 7/60/4 84/61/3 5/62/3
f 23/63/12 92/64/11 21/37/11
f 9/65/5 85/66/4 7/60/4
f 25/67/13 93/68/12 23/63/12
f 11/69/6 86/70/5 9/65/5
f 27/71/14 94/72/13 25/67/13
f 13/73/7 87/74/6 11/69/6
f 29/75/15 95/76/14 27/71/14
f 15/77/8 88/78/7 13/73/7
f 31/79/16 96/80/15 29/75/15
f 17/81/9 89/82/8 15/77/8
f 3/83/2 82/84/1 1/85/1
f 1/85/1 97/86/16 31/79/16
f 19/39/10 90/87/9 17/88/9
f 5/62/3 83/89/2 3/83/2
f 2/90/38 65/91/39 66/92/38
f 4/93/39 67/94/40 65/91/39
f 6/95/40 68/96/41 67/94/40
f 10/97/42 68/96/41 8/98/41
f 10/97/42 70/99/43 69/100/42
f 12/101/43 71/102/44 70/99/43
f 14/103/44 72/104/45 71/102/44
f 18/105/46 72/104/45 16/106/45
f 18/105/46 74/21/47 73/18/46
f 20/107/47 75/108/48 74/21/47
f 22/109/48 76/110/49 75/108/48
f 26/111/50 76/110/49 24/112/49
f 26/111/50 78/113/51 77/114/50
f 28/115/51 79/116/52 78/113/51
f 30/117/52 80/118/53 79/116/52
f 2/90/38 80/118/53 32/119/53
f 81/120/54 131/121/55 146/122/56
f 4/123/10 117/124/11 6/125/11
f 20/33/2 125/126/3 22/127/3
f 6/125/11 118/128/12 8/129/12
f 22/127/3 126/130/4 24/131/4
f 8/129/12 119/132/13 10/133/13
f 24/131/4 127/134/5 26/135/5
f 10/133/13 120/136/14 12/137/14
f 26/135/5 128/138/6 28/139/6
f 12/137/14 121/140/15 14/141/15
f 28/139/6 129/142/7 30/143/7
f 14/141/15 122/144/16 16/145/16
f 30/143/7 130/146/8 32/147/8
f 16/145/16 123/148/1 18/31/1
f 2/149/9 115/150/10 4/123/10
f 32/147/8 116/151/9 2/149/9
f 49/152/57 83/153/57 50/154/57
f 50/154/57 84/155/57 51/156/57
f 52/157/57 84/155/57 85/158/57
f 53/159/57 85/158/57 86/160/57
f 53/159/57 87/161/57 54/162/57
f 54/162/57 88/163/57 55/164/57
f 56/165/57 88/163/57 89/166/57
f 57/167/57 89/166/57 90/87/57
f 57/167/57 91/38/57 58/168/57
f 58/168/57 92/169/57 59/170/57
f 60/171/57 92/169/57 93/172/57
f 61/173/57 93/172/57 94/174/57
f 61/173/57 95/175/57 62/176/57
f 62/176/57 96/177/57 63/178/57
f 63/178/57 97/179/57 64/180/57
f 49/152/57 97/179/57 82/181/57
f 54/182/58 103/183/59 53/184/59
f 62/185/60 111/186/36 61/57/36
f 55/187/61 104/188/58 54/182/58
f 63/189/62 112/190/60 62/185/60
f 56/191/63 105/192/61 55/187/61
f 64/193/64 113/194/62 63/189/62
f 57/195/65 106/196/63 56/191/63
f 50/197/66 99/198/67 49/199/67
f 64/193/64 99/198/67 114/200/64
f 57/195/65 108/201/68 107/202/65
f 51/203/69 100/204/66 50/197/66
f 59/205/70 108/201/68 58/206/68
f 52/207/71 101/208/69 51/203/69
f 60/59/37 109/209/70 59/205/70
f 52/207/71 103/183/59 102/210/71
f 98/211/57 99/198/57 100/204/57
f 98/211/57 100/204/57 101/208/57
f 98/211/57 101/208/57 102/210/57
f 98/211/57 102/210/57 103/183/57
f 98/211/57 103/183/57 104/188/57
f 98/211/57 104/188/57 105/192/57
f 98/211/57 105/192/57 106/196/57
f 98/211/57 106/196/57 107/202/57
f 98/211/57 107/202/57 108/201/57
f 98/211/57 108/201/57 109/209/57
f 98/211/57 109/209/57 110/58/57
f 98/211/57 110/58/57 111/186/57
f 98/211/57 111/186/57 112/190/57
f 98/211/57 112/190/57 113/194/57
f 98/211/57 113/194/57 114/200/57
f 98/211/57 114/200/57 99/198/57
f 132/212/72 116/213/73 131/121/55
f 133/214/74 115/215/75 132/212/72
f 134/216/76 117/217/77 133/214/74
f 134/216/76 119/218/78 118/219/79
f 136/220/80 119/218/78 135/221/81
f 137/222/82 120/223/83 136/220/80
f 138/224/84 121/225/85 137/222/82
f 139/226/86 122/227/87 138/224/84
f 140/228/88 123/229/89 139/226/86
f 141/230/90 124/231/91 140/228/88
f 142/232/92 125/233/93 141/230/90
f 142/232/92 127/234/94 126/235/95
f 144/236/96 127/234/94 143/237/97
f 144/236/96 129/238/98 128/239/99
f 146/122/56 129/238/98 145/240/100
f 146/122/56 116/213/73 130/241/101
f 81/120/54 146/122/56 145/240/100
f 81/120/54 145/240/100 144/236/96
f 81/120/54 144/236/96 143/237/97
f 81/120/54 143/237/97 142/232/92
f 81/120/54 142/232/92 141/230/90
f 81/120/54 141/230/90 140/228/88
f 81/120/54 140/228/88 139/226/86
f 81/120/54 139/226/86 138/224/84
f 81/120/54 138/224/84 137/222/82
f 81/120/54 137/222/82 136/220/80
f 81/120/54 136/220/80 135/221/81
f 81/120/54 135/221/81 134/216/76
f 81/120/54 134/216/76 133/214/74
f 81/120/54 133/214/74 132/212/72
f 81/120/54 132/212/72 131/121/55
f 66/1/1 65/4/2 34/2/2
f 65/4/2 67/6/3 35/5/3
f 67/6/3 68/8/4 36/7/4
f 68/8/4 69/10/5 37/9/5
f 69/10/5 70/12/6 38/11/6
f 70/12/6 71/14/7 39/13/7
f 71/14/7 72/16/8 40/15/8
f 72/16/8 73/242/9 41/17/9
f 73/18/9 74/21/10 42/19/10
f 74/21/10 75/23/11 43/22/11
f 75/23/11 76/25/12 44/24/12
f 76/25/12 77/27/13 45/26/13
f 77/27/13 78/29/14 46/28/14
f 78/29/14 79/34/15 47/30/15
f 18/31/1 123/148/1 124/32/2
f 79/34/15 80/36/16 48/35/16
f 80/36/16 66/1/1 33/3/1
f 21/37/11 92/64/11 91/38/10
f 1/40/17 33/3/17 34/2/18
f 5/42/19 3/41/18 34/2/18
f 5/42/19 35/5/19 36/7/20
f 7/43/20 36/7/20 37/9/21
f 11/45/22 9/44/21 37/9/21
f 11/45/22 38/11/22 39/13/23
f 13/46/24 39/13/23 40/15/25
f 15/47/25 40/15/25 41/17/26
f 17/49/26 41/20/26 42/19/27
f 19/50/27 42/19/27 43/22/28
f 21/51/29 43/22/28 44/24/30
f 23/52/30 44/24/30 45/26/31
f 25/53/31 45/26/31 46/28/32
f 27/54/32 46/28/32 47/30/33
f 29/55/34 47/30/33 48/35/35
f 31/56/35 48/35/35 33/3/17
f 61/57/36 111/186/36 110/58/37
f 7/60/4 85/66/4 84/61/3
f 23/63/12 93/68/12 92/64/11
f 9/65/5 86/70/5 85/66/4
f 25/67/13 94/72/13 93/68/12
f 11/69/6 87/74/6 86/70/5
f 27/71/14 95/76/14 94/72/13
f 13/73/7 88/78/7 87/74/6
f 29/75/15 96/80/15 95/76/14
f 15/77/8 89/82/8 88/78/7
f 31/79/16 97/86/16 96/80/15
f 17/81/9 90/243/9 89/82/8
f 3/83/2 83/89/2 82/84/1
f 1/85/1 82/84/1 97/86/16
f 19/39/10 91/38/10 90/87/9
f 5/62/3 84/61/3 83/89/2
f 2/90/38 4/93/39 65/91/39
f 4/93/39 6/95/40 67/94/40
f 6/95/40 8/98/41 68/96/41
f 10/97/42 69/100/42 68/96/41
f 10/97/42 12/101/43 70/99/43
f 12/101/43 14/103/44 71/102/44
f 14/103/44 16/106/45 72/104/45
f 18/105/46 73/18/46 72/104/45
f 18/105/46 20/107/47 74/21/47
f 20/107/47 22/109/48 75/108/48
f 22/109/48 24/112/49 76/110/49
f 26/111/50 77/114/50 76/110/49
f 26/111/50 28/115/51 78/113/51
f 28/115/51 30/117/52 79/116/52
f 30/117/52 32/119/53 80/118/53
f 2/90/38 66/92/38 80/118/53
f 4/123/10 115/150/10 117/124/11
f 20/33/2 124/32/2 125/126/3
f 6/125/11 117/124/11 118/128/12
f 22/127/3 125/126/3 126/130/4
f 8/129/12 118/128/12 119/132/13
f 24/131/4 126/130/4 127/134/5
f 10/133/13 119/132/13 120/136/14
f 26/135/5 127/134/5 128/138/6
f 12/137/14 120/136/14 121/140/15
f 28/139/6 128/138/6 129/142/7
f 14/141/15 121/140/15 122/144/16
f 30/143/7 129/142/7 130/146/8
f 16/145/16 122/144/16 123/148/1
f 2/149/9 116/151/9 115/150/10
f 32/147/8 130/146/8 116/151/9
f 49/152/57 82/181/57 83/153/57
f 50/154/57 83/153/57 84/155/57
f 52/157/57 51/156/57 84/155/57
f 53/159/57 52/157/57 85/158/57
f 53/159/57 86/160/57 87/161/57
f 54/162/57 87/161/57 88/163/57
f 56/165/57 55/164/57 88/163/57
f 57/167/57 56/165/57 89/166/57
f 57/167/57 90/87/57 91/38/57
f 58/168/57 91/38/57 92/169/57
f 60/171/57 59/170/57 92/169/57
f 61/173/57 60/171/57 93/172/57
f 61/173/57 94/174/57 95/175/57
f 62/176/57 95/175/57 96/177/57
f 63/178/57 96/177/57 97/179/57
f 49/152/57 64/180/57 97/179/57
f 54/182/58 104/188/58 103/183/59
f 62/185/60 112/190/60 111/186/36
f 55/187/61 105/192/61 104/188/58
f 63/189/62 113/194/62 112/190/60
f 56/191/63 106/196/63 105/192/61
f 64/193/64 114/200/64 113/194/62
f 57/195/65 107/202/65 106/196/63
f 50/197/66 100/204/66 99/198/67
f 64/193/64 49/199/67 99/198/67
f 57/195/65 58/206/68 108/201/68
f 51/203/69 101/208/69 100/204/66
f 59/205/70 109/209/70 108/201/68
f 52/207/71 102/210/71 101/208/69
f 60/59/37 110/58/37 109/209/70
f 52/207/71 53/184/59 103/183/59
f 132/212/72 115/215/75 116/213/73
f 133/214/74 117/217/77 115/215/75
f 134/216/76 118/219/79 117/217/77
f 134/216/76 135/221/81 119/218/78
f 136/220/80 120/223/83 119/218/78
f 137/222/82 121/225/85 120/223/83
f 138/224/84 122/227/87 121/225/85
f 139/226/86 123/229/89 122/227/87
f 140/228/88 124/231/91 123/229/89
f 141/230/90 125/233/93 124/231/91
f 142/232/92 126/235/95 125/233/93
f 142/232/92 143/237/97 127/234/94
f 144/236/96 128/239/99 127/234/94
f 144/236/96 145/240/100 129/238/98
f 146/122/56 130/241/101 129/238/98
f 146/122/56 131/121/55 116/213/73
