# Blender 4.4.1
# www.blender.org
mtllib room1.mtl
o Cube.007
v -7.000019 -0.002335 6.299079
v -7.000019 3.997665 6.299079
v -7.000019 -0.002335 -6.821382
v -7.000019 3.997665 -6.821382
v 6.999981 -0.002335 6.299079
v 6.999981 3.997665 6.299079
v 6.999981 -0.002335 -6.821382
v 6.999981 3.997665 -6.821382
v -7.000019 -0.002335 -2.447895
v -7.000019 -0.002335 1.925592
v -7.000019 3.997665 1.925592
v -7.000019 3.997665 -2.447895
v 6.999981 -0.002335 1.925592
v 6.999981 -0.002335 -2.447895
v 6.999981 3.997665 -2.447895
v 6.999981 3.997665 1.925592
v 4.199981 -0.002335 -6.821382
v 1.399981 -0.002335 -6.821382
v -1.400019 -0.002335 -6.821382
v -4.200019 -0.002335 -6.821382
v -4.200019 3.997665 -6.821382
v -1.400019 3.997665 -6.821382
v 1.399981 3.997665 -6.821382
v 4.199981 3.997665 -6.821382
v -1.400019 -0.002335 6.299079
v 1.399981 -0.002335 6.299079
v 4.199981 3.997665 6.299079
v 1.399981 3.997665 6.299079
v -1.400019 3.997665 6.299079
v -4.200019 3.997665 6.299079
v -4.200019 3.997665 -2.447895
v -1.400019 3.997665 -2.447895
v 1.399981 3.997665 -2.447895
v 4.199981 3.997665 -2.447895
v -4.200019 3.997665 1.925592
v -1.400019 3.997665 1.925592
v 1.399981 3.997665 1.925592
v 4.199981 3.997665 1.925592
v 4.394974 0.166692 -6.821382
v 4.394974 3.828638 -6.821382
v 6.804989 3.828638 -6.821382
v 6.804989 0.166692 -6.821382
v -6.805027 0.166692 -6.821382
v -6.805027 3.828638 -6.821382
v -4.395011 3.828638 -6.821382
v -4.395011 0.166692 -6.821382
v -4.005027 0.166692 -6.821382
v -4.005027 3.828638 -6.821382
v -1.595011 3.828638 -6.821382
v -1.595011 0.166692 -6.821382
v -1.205027 0.166692 -6.821382
v -1.205027 3.828638 -6.821382
v 1.204989 3.828638 -6.821382
v 1.204989 0.166692 -6.821382
v 1.594974 0.166692 -6.821382
v 1.594974 3.828638 -6.821382
v 4.004989 3.828638 -6.821382
v 4.004989 0.166692 -6.821382
v 4.394974 3.828638 -6.982311
v 4.394974 0.166692 -6.982311
v 6.804989 0.166692 -6.982311
v 6.804989 3.828638 -6.982311
v -6.805027 3.828638 -6.982311
v -6.805027 0.166692 -6.982311
v -4.395011 0.166692 -6.982311
v -4.395011 3.828638 -6.982311
v -4.005027 3.828638 -6.982311
v -4.005027 0.166692 -6.982311
v -1.595011 0.166692 -6.982311
v -1.595011 3.828638 -6.982311
v -1.205027 3.828638 -6.982311
v -1.205027 0.166692 -6.982311
v 1.204989 0.166692 -6.982311
v 1.204989 3.828638 -6.982311
v 1.594974 3.828638 -6.982311
v 1.594974 0.166692 -6.982311
v 4.004989 0.166692 -6.982311
v 4.004989 3.828638 -6.982311
v 1.034776 3.997665 -1.187001
v -1.034814 3.997665 -1.187001
v -1.034814 3.997665 0.664698
v 1.034776 3.997665 0.664698
v -0.922015 3.911065 -1.117936
v 0.936387 3.911065 -1.117936
v 0.936387 3.911065 0.544808
v -0.922015 3.911065 0.544808
v -7.000019 -0.002335 7.017690
v -7.000019 3.997665 7.017690
v 6.371890 3.997665 7.017690
v 6.371890 -0.002335 7.017690
v 4.199981 -0.002335 7.017690
v -4.200019 3.997665 7.017690
v -4.200019 -0.002335 7.017690
v -1.400019 -0.002335 7.017690
v 1.399981 -0.002335 7.017690
v 4.199981 3.997665 7.017690
v 1.399981 3.997665 7.017690
v -1.400019 3.997665 7.017690
v 6.339467 3.997665 6.299079
v 6.339467 -0.002335 6.299079
v 6.339467 3.997665 7.017690
v 6.339467 -0.002335 7.017690
v -4.405537 0.203183 7.017690
v -6.794501 0.203183 7.017690
v -6.794501 3.792147 7.017690
v -4.405537 3.792147 7.017690
v 6.159863 0.203183 7.017690
v 4.405499 0.203183 7.017690
v 4.405499 3.792147 7.017690
v 6.159863 3.792147 7.017690
v 3.994463 0.203183 7.017690
v 1.605499 0.203183 7.017690
v 1.605499 3.792147 7.017690
v 3.994463 3.792147 7.017690
v -1.605537 0.203183 7.017690
v -3.994501 0.203183 7.017690
v -3.994501 3.792147 7.017690
v -1.605537 3.792147 7.017690
v 6.159863 3.792147 7.189690
v 6.159863 0.203183 7.189690
v 4.405499 0.203183 7.189690
v -6.794501 0.203183 7.189690
v -4.405537 0.203183 7.189690
v -3.994501 0.203183 7.189690
v -1.605537 0.203183 7.189690
v 1.605499 0.203183 7.189690
v 3.994463 0.203183 7.189690
v -4.405537 3.792147 7.189690
v -6.794501 3.792147 7.189690
v 4.405499 3.792147 7.189690
v 3.994463 3.792147 7.189690
v 1.605499 3.792147 7.189690
v -1.605537 3.792147 7.189690
v -3.994501 3.792147 7.189690
vn 1.0000 -0.0000 -0.0000
vn -0.0000 1.0000 -0.0000
vn -1.0000 -0.0000 -0.0000
vn -0.0000 -1.0000 -0.0000
vn -0.6090 -0.7932 -0.0000
vn -0.0000 -0.0000 -1.0000
vn -0.0000 -0.0000 1.0000
vn -0.0000 -0.6235 -0.7818
vn -0.0000 -0.8106 0.5856
vn 0.6607 -0.7506 -0.0000
vt 0.661806 0.011218
vt 0.766394 0.342179
vt 0.766398 0.011219
vt 0.758844 0.445659
vt 0.754314 0.391463
vt 0.754314 0.445659
vt 0.661805 0.011219
vt 0.772123 0.342179
vt 0.772125 0.011220
vt 0.392894 0.017932
vt 0.327411 0.127069
vt 0.392894 0.127069
vt 0.392894 0.236207
vt 0.327411 0.345344
vt 0.392894 0.345344
vt 0.327411 0.236207
vt 0.882445 0.011220
vt 0.992763 0.342180
vt 0.992765 0.011221
vt 0.882443 0.342180
vt 0.870989 0.011220
vt 0.975577 0.342181
vt 0.975580 0.011222
vt 0.870985 0.342180
vt 0.654823 0.127069
vt 0.589340 0.236207
vt 0.654823 0.236207
vt 0.589340 0.127069
vt 0.523858 0.236207
vt 0.912364 0.414685
vt 0.919533 0.371469
vt 0.912364 0.368477
vt 0.458376 0.127069
vt 0.458376 0.236207
vt 0.589340 0.345344
vt 0.654823 0.345344
vt 0.523858 0.345344
vt 0.458376 0.345344
vt 0.654823 0.017932
vt 0.589340 0.017932
vt 0.523858 0.127069
vt 0.523858 0.017932
vt 0.458376 0.017932
vt 0.992762 0.342181
vt 0.992764 0.011220
vt 0.661804 0.342179
vt 0.661804 0.011220
vt 0.727996 0.342179
vt 0.727996 0.011220
vt 0.392894 0.000000
vt 0.327411 0.017932
vt 0.703906 0.685080
vt 0.699891 0.385459
vt 0.699891 0.685080
vt 0.763373 0.445659
vt 0.758844 0.391463
vt 0.758844 0.445659
vt 0.707922 0.685080
vt 0.703906 0.385459
vt 0.703906 0.685080
vt 0.711938 0.685080
vt 0.707922 0.385459
vt 0.707922 0.685080
vt 0.336984 0.427969
vt 0.023443 0.432529
vt 0.350817 0.432529
vt 0.037277 0.427968
vt 0.023443 0.367046
vt 0.037277 0.371607
vt 0.350817 0.367046
vt 0.336984 0.371607
vt 0.336983 0.689898
vt 0.023443 0.694458
vt 0.350817 0.694458
vt 0.037277 0.689898
vt 0.023443 0.628975
vt 0.037277 0.633536
vt 0.350817 0.628975
vt 0.336983 0.633536
vt 0.336983 0.624415
vt 0.037277 0.624415
vt 0.023443 0.563493
vt 0.037277 0.568053
vt 0.350817 0.563493
vt 0.336983 0.568053
vt 0.336983 0.558933
vt 0.037277 0.558933
vt 0.023443 0.498011
vt 0.037277 0.502571
vt 0.350817 0.498011
vt 0.336983 0.502571
vt 0.336984 0.493451
vt 0.037277 0.493451
vt 0.037277 0.437089
vt 0.336984 0.437089
vt 0.715954 0.685080
vt 0.711938 0.385459
vt 0.767902 0.445659
vt 0.763373 0.391463
vt 0.763373 0.445659
vt 0.793114 0.445603
vt 0.789099 0.389241
vt 0.789099 0.445603
vt 0.719970 0.685080
vt 0.715954 0.385459
vt 0.715954 0.685080
vt 0.772432 0.445659
vt 0.767903 0.391463
vt 0.767903 0.445659
vt 0.785083 0.445603
vt 0.781067 0.389241
vt 0.781067 0.445603
vt 0.719970 0.385459
vt 0.723986 0.685047
vt 0.723986 0.385459
vt 0.801146 0.445603
vt 0.797130 0.389241
vt 0.797130 0.445603
vt 0.805162 0.445603
vt 0.801146 0.389241
vt 0.723986 0.385459
vt 0.728002 0.685047
vt 0.728002 0.385459
vt 0.785083 0.389241
vt 0.728001 0.385459
vt 0.732017 0.685047
vt 0.732017 0.385459
vt 0.797130 0.445603
vt 0.793114 0.389241
vt 0.732017 0.385459
vt 0.736033 0.685047
vt 0.736033 0.385459
vt 0.736033 0.385459
vt 0.740049 0.685047
vt 0.740049 0.385459
vt 0.515317 0.204742
vt 0.466917 0.204742
vt 0.466917 0.158534
vt 0.515317 0.158534
vt 0.933962 0.371242
vt 0.975454 0.414703
vt 0.975454 0.371242
vt 0.898088 0.416878
vt 0.905231 0.371115
vt 0.898088 0.368477
vt 0.912364 0.414240
vt 0.905231 0.368477
vt 0.905231 0.416878
vt 0.928258 0.412961
vt 0.921107 0.369745
vt 0.921107 0.415953
vt 0.233848 0.182407
vt 0.228730 0.111315
vt 0.233848 0.111315
vt 0.208256 0.111315
vt 0.213375 0.218117
vt 0.208256 0.218117
vt 0.238967 0.253499
vt 0.238967 0.182407
vt 0.274321 0.166528
vt 0.269202 0.114320
vt 0.274321 0.114320
vt 0.458376 0.000000
vt 0.654823 0.000000
vt 0.992764 0.342179
vt 0.589340 0.000000
vt 0.181135 0.090274
vt 0.103926 0.096389
vt 0.097811 0.090274
vt 0.181135 0.209308
vt 0.175019 0.096389
vt 0.097811 0.209308
vt 0.175019 0.203192
vt 0.103926 0.203192
vt 0.098658 0.224187
vt 0.026131 0.229140
vt 0.015334 0.224187
vt 0.098658 0.343221
vt 0.088065 0.229131
vt 0.026119 0.338265
vt 0.088052 0.338281
vt 0.015334 0.343221
vt 0.187650 0.222021
vt 0.110442 0.228137
vt 0.104326 0.222021
vt 0.187650 0.341054
vt 0.181534 0.228137
vt 0.104326 0.341054
vt 0.181534 0.334938
vt 0.110442 0.334938
vt 0.020602 0.096389
vt 0.014487 0.090274
vt 0.091695 0.096389
vt 0.014487 0.209308
vt 0.091695 0.203192
vt 0.020602 0.203192
vt 0.218493 0.218117
vt 0.213375 0.111315
vt 0.218493 0.111315
vt 0.213375 0.324919
vt 0.238967 0.111315
vt 0.218493 0.324919
vt 0.279439 0.166528
vt 0.279439 0.114320
vt 0.223611 0.218117
vt 0.238967 0.324591
vt 0.233848 0.253499
vt 0.223611 0.324919
vt 0.228730 0.218117
vt 0.223611 0.111315
vt 0.228730 0.182407
vt 0.228730 0.324919
vt 0.233848 0.324591
vt 0.228730 0.253499
vt 0.661803 0.342178
vt 0.758844 0.391463
vt 0.661803 0.342178
vt 0.919533 0.412961
vt 0.992766 0.011222
vt 0.327411 0.000000
vt 0.703906 0.385459
vt 0.763373 0.391463
vt 0.711938 0.385459
vt 0.715954 0.385459
vt 0.767902 0.391463
vt 0.719970 0.385459
vt 0.772432 0.391463
vt 0.785083 0.389241
vt 0.719970 0.685047
vt 0.805162 0.389241
vt 0.723986 0.685047
vt 0.728001 0.685047
vt 0.797130 0.389241
vt 0.732017 0.685047
vt 0.736033 0.685047
vt 0.933962 0.414703
vt 0.905231 0.414577
vt 0.912364 0.370778
vt 0.928258 0.371468
vt 0.269202 0.166528
vt 0.523858 0.000000
vt 0.208256 0.324919
vt 0.228730 0.324591
s 0
usemtl Material.011
f 3/1/1 12/2/1 9/3/1
f 65/4/2 43/5/2 46/6/2
f 5/7/3 16/8/3 13/9/3
f 30/10/4 11/11/4 35/12/4
f 31/13/4 4/14/4 21/15/4
f 35/12/4 12/16/4 31/13/4
f 14/17/3 8/18/3 7/19/3
f 13/9/3 15/20/3 14/17/3
f 10/21/1 2/22/1 1/23/1
f 9/3/1 11/24/1 10/21/1
f 16/25/4 34/26/4 15/27/4
f 38/28/4 33/29/4 34/26/4
f 80/30/5 86/31/5 81/32/5
f 36/33/4 31/13/4 32/34/4
f 15/27/4 24/35/4 8/36/4
f 34/26/4 23/37/4 24/35/4
f 33/29/4 22/38/4 23/37/4
f 32/34/4 21/15/4 22/38/4
f 6/39/4 38/28/4 16/25/4
f 27/40/4 37/41/4 38/28/4
f 28/42/4 36/33/4 37/41/4
f 29/43/4 35/12/4 36/33/4
f 88/44/1 1/23/1 2/22/1
f 94/45/3 29/46/3 25/47/3
f 25/47/6 28/48/6 26/49/6
f 92/50/4 2/51/4 30/10/4
f 68/52/1 48/53/1 47/54/1
f 61/55/2 39/56/2 42/57/2
f 64/58/1 44/59/1 43/60/1
f 60/61/1 40/62/1 39/63/1
f 39/64/7 24/65/7 17/66/7
f 40/67/7 8/68/7 24/65/7
f 41/69/7 7/70/7 8/68/7
f 42/71/7 17/66/7 7/70/7
f 43/72/7 4/73/7 3/74/7
f 44/75/7 21/76/7 4/73/7
f 45/77/7 20/78/7 21/76/7
f 46/79/7 3/74/7 20/78/7
f 47/80/7 21/76/7 20/78/7
f 48/81/7 22/82/7 21/76/7
f 49/83/7 19/84/7 22/82/7
f 50/85/7 20/78/7 19/84/7
f 51/86/7 22/82/7 19/84/7
f 52/87/7 23/88/7 22/82/7
f 53/89/7 18/90/7 23/88/7
f 54/91/7 19/84/7 18/90/7
f 55/92/7 23/88/7 18/90/7
f 56/93/7 24/65/7 23/88/7
f 57/94/7 17/66/7 24/65/7
f 58/95/7 18/90/7 17/66/7
f 72/96/1 52/97/1 51/61/1
f 59/98/4 41/99/4 40/100/4
f 69/101/2 47/102/2 50/103/2
f 76/104/1 56/105/1 55/106/1
f 63/107/4 45/108/4 44/109/4
f 73/110/2 51/111/2 54/112/2
f 62/113/3 42/114/3 41/115/3
f 67/116/4 49/117/4 48/118/4
f 77/119/2 55/120/2 58/116/2
f 66/121/3 46/122/3 45/123/3
f 71/103/4 53/124/4 52/110/4
f 70/125/3 50/126/3 49/127/3
f 75/128/4 57/129/4 56/101/4
f 74/130/3 54/131/3 53/132/3
f 78/133/3 58/134/3 57/135/3
f 79/136/4 32/34/4 33/29/4
f 80/137/4 36/33/4 32/34/4
f 81/138/4 37/41/4 36/33/4
f 82/139/4 33/29/4 37/41/4
f 85/140/4 83/141/4 84/142/4
f 79/143/8 83/144/8 80/145/8
f 86/146/9 82/147/9 81/148/9
f 85/149/10 79/150/10 82/151/10
f 116/152/2 125/153/2 115/154/2
f 103/155/3 128/156/3 106/157/3
f 104/158/2 123/152/2 103/159/2
f 108/160/2 120/161/2 107/162/2
f 98/163/4 30/10/4 29/43/4
f 100/45/6 6/46/6 5/47/6
f 89/164/4 27/40/4 6/39/4
f 97/46/1 26/45/1 28/165/1
f 96/166/4 28/42/4 27/40/4
f 102/45/3 99/46/3 100/47/3
f 87/167/6 103/168/6 93/169/6
f 88/170/6 104/171/6 87/167/6
f 92/172/6 105/173/6 88/170/6
f 93/169/6 106/174/6 92/172/6
f 91/175/6 107/176/6 90/177/6
f 96/178/6 108/179/6 91/175/6
f 96/178/6 110/180/6 109/181/6
f 90/177/6 110/180/6 89/182/6
f 95/183/6 111/184/6 91/185/6
f 97/186/6 112/187/6 95/183/6
f 96/188/6 113/189/6 97/186/6
f 91/185/6 114/190/6 96/188/6
f 93/169/6 115/191/6 94/192/6
f 92/172/6 116/193/6 93/169/6
f 98/194/6 117/195/6 92/172/6
f 94/192/6 118/196/6 98/194/6
f 109/197/1 121/198/1 108/199/1
f 105/200/1 122/157/1 104/156/1
f 112/159/2 127/154/2 111/201/2
f 111/156/3 131/202/3 114/200/3
f 110/203/4 130/162/4 109/204/4
f 115/199/3 133/205/3 118/197/3
f 106/206/4 129/207/4 105/158/4
f 113/208/1 126/197/1 112/205/1
f 117/209/1 124/210/1 116/153/1
f 114/207/4 132/211/4 113/152/4
f 107/205/3 119/212/3 110/208/3
f 118/213/4 134/214/4 117/207/4
f 3/1/1 4/215/1 12/2/1
f 65/4/2 64/216/2 43/5/2
f 5/7/3 6/217/3 16/8/3
f 30/10/4 2/51/4 11/11/4
f 31/13/4 12/16/4 4/14/4
f 35/12/4 11/11/4 12/16/4
f 14/17/3 15/20/3 8/18/3
f 13/9/3 16/8/3 15/20/3
f 10/21/1 11/24/1 2/22/1
f 9/3/1 12/2/1 11/24/1
f 16/25/4 38/28/4 34/26/4
f 38/28/4 37/41/4 33/29/4
f 80/30/5 83/218/5 86/31/5
f 36/33/4 35/12/4 31/13/4
f 15/27/4 34/26/4 24/35/4
f 34/26/4 33/29/4 23/37/4
f 33/29/4 32/34/4 22/38/4
f 32/34/4 31/13/4 21/15/4
f 6/39/4 27/40/4 38/28/4
f 27/40/4 28/42/4 37/41/4
f 28/42/4 29/43/4 36/33/4
f 29/43/4 30/10/4 35/12/4
f 88/44/1 87/219/1 1/23/1
f 94/45/3 98/165/3 29/46/3
f 25/47/6 29/46/6 28/48/6
f 92/50/4 88/220/4 2/51/4
f 68/52/1 67/221/1 48/53/1
f 61/55/2 60/222/2 39/56/2
f 64/58/1 63/62/1 44/59/1
f 60/61/1 59/223/1 40/62/1
f 39/64/7 40/67/7 24/65/7
f 40/67/7 41/69/7 8/68/7
f 41/69/7 42/71/7 7/70/7
f 42/71/7 39/64/7 17/66/7
f 43/72/7 44/75/7 4/73/7
f 44/75/7 45/77/7 21/76/7
f 45/77/7 46/79/7 20/78/7
f 46/79/7 43/72/7 3/74/7
f 47/80/7 48/81/7 21/76/7
f 48/81/7 49/83/7 22/82/7
f 49/83/7 50/85/7 19/84/7
f 50/85/7 47/80/7 20/78/7
f 51/86/7 52/87/7 22/82/7
f 52/87/7 53/89/7 23/88/7
f 53/89/7 54/91/7 18/90/7
f 54/91/7 51/86/7 19/84/7
f 55/92/7 56/93/7 23/88/7
f 56/93/7 57/94/7 24/65/7
f 57/94/7 58/95/7 17/66/7
f 58/95/7 55/92/7 18/90/7
f 72/96/1 71/224/1 52/97/1
f 59/98/4 62/225/4 41/99/4
f 69/101/2 68/129/2 47/102/2
f 76/104/1 75/226/1 56/105/1
f 63/107/4 66/227/4 45/108/4
f 73/110/2 72/228/2 51/111/2
f 62/113/3 61/229/3 42/114/3
f 67/116/4 70/120/4 49/117/4
f 77/119/2 76/230/2 55/120/2
f 66/121/3 65/231/3 46/122/3
f 71/103/4 74/102/4 53/124/4
f 70/125/3 69/232/3 50/126/3
f 75/128/4 78/233/4 57/129/4
f 74/130/3 73/234/3 54/131/3
f 78/133/3 77/235/3 58/134/3
f 79/136/4 80/137/4 32/34/4
f 80/137/4 81/138/4 36/33/4
f 81/138/4 82/139/4 37/41/4
f 82/139/4 79/136/4 33/29/4
f 85/140/4 86/236/4 83/141/4
f 79/143/8 84/237/8 83/144/8
f 86/146/9 85/238/9 82/147/9
f 85/149/10 84/239/10 79/150/10
f 116/152/2 124/211/2 125/153/2
f 103/155/3 123/198/3 128/156/3
f 104/158/2 122/207/2 123/152/2
f 108/160/2 121/240/2 120/161/2
f 98/163/4 92/50/4 30/10/4
f 100/45/6 99/165/6 6/46/6
f 89/164/4 96/166/4 27/40/4
f 97/46/1 95/47/1 26/45/1
f 96/166/4 97/241/4 28/42/4
f 102/45/3 101/165/3 99/46/3
f 87/167/6 104/171/6 103/168/6
f 88/170/6 105/173/6 104/171/6
f 92/172/6 106/174/6 105/173/6
f 93/169/6 103/168/6 106/174/6
f 91/175/6 108/179/6 107/176/6
f 96/178/6 109/181/6 108/179/6
f 96/178/6 89/182/6 110/180/6
f 90/177/6 107/176/6 110/180/6
f 95/183/6 112/187/6 111/184/6
f 97/186/6 113/189/6 112/187/6
f 96/188/6 114/190/6 113/189/6
f 91/185/6 111/184/6 114/190/6
f 93/169/6 116/193/6 115/191/6
f 92/172/6 117/195/6 116/193/6
f 98/194/6 118/196/6 117/195/6
f 94/192/6 115/191/6 118/196/6
f 109/197/1 130/156/1 121/198/1
f 105/200/1 129/242/1 122/157/1
f 112/159/2 126/152/2 127/154/2
f 111/156/3 127/197/3 131/202/3
f 110/203/4 119/160/4 130/162/4
f 115/199/3 125/210/3 133/205/3
f 106/206/4 128/213/4 129/207/4
f 113/208/1 132/202/1 126/197/1
f 117/209/1 134/205/1 124/210/1
f 114/207/4 131/214/4 132/211/4
f 107/205/3 120/209/3 119/212/3
f 118/213/4 133/243/4 134/214/4
