# Blender 4.4.1
# www.blender.org
mtllib room1.mtl
o Cube.007
v -6.299078 -0.002335 -7.000020
v -6.299078 3.997665 -7.000020
v 6.821383 -0.002336 -7.000019
v 6.821383 3.997664 -7.000019
v -6.299079 -0.002335 6.999980
v -6.299079 3.997665 6.999980
v 6.821382 -0.002336 6.999981
v 6.821382 3.997664 6.999981
v 2.447895 -0.002335 -7.000019
v -1.925592 -0.002335 -7.000019
v -1.925591 3.997665 -7.000019
v 2.447896 3.997665 -7.000019
v -1.925592 -0.002335 6.999981
v 2.447895 -0.002335 6.999981
v 2.447895 3.997665 6.999981
v -1.925592 3.997665 6.999981
v 6.821382 -0.002336 4.199982
v 6.821382 -0.002336 1.399981
v 6.821382 -0.002336 -1.400019
v 6.821382 -0.002336 -4.200018
v 6.821383 3.997664 -4.200018
v 6.821383 3.997664 -1.400019
v 6.821383 3.997664 1.399981
v 6.821382 3.997664 4.199982
v -6.299079 -0.002335 -1.400019
v -6.299079 -0.002335 1.399981
v -6.299079 3.997665 4.199981
v -6.299078 3.997665 1.399981
v -6.299078 3.997665 -1.400019
v -6.299078 3.997665 -4.200019
v 2.447896 3.997665 -4.200019
v 2.447896 3.997665 -1.400019
v 2.447895 3.997665 1.399981
v 2.447895 3.997665 4.199981
v -1.925591 3.997665 -4.200019
v -1.925592 3.997665 -1.400019
v -1.925592 3.997665 1.399981
v -1.925592 3.997665 4.199981
v 6.821382 0.166691 4.394975
v 6.821382 3.828638 4.394975
v 6.821382 3.828638 6.804989
v 6.821382 0.166691 6.804989
v 6.821383 0.166691 -6.805027
v 6.821383 3.828638 -6.805027
v 6.821383 3.828638 -4.395010
v 6.821382 0.166691 -4.395010
v 6.821382 0.166691 -4.005026
v 6.821383 3.828638 -4.005026
v 6.821383 3.828638 -1.595011
v 6.821382 0.166691 -1.595011
v 6.821382 0.166691 -1.205027
v 6.821383 3.828638 -1.205027
v 6.821382 3.828638 1.204989
v 6.821382 0.166691 1.204989
v 6.821382 0.166691 1.594974
v 6.821382 3.828638 1.594974
v 6.821382 3.828638 4.004990
v 6.821382 0.166691 4.004990
v 6.982311 3.828638 4.394975
v 6.982311 0.166691 4.394975
v 6.982310 0.166691 6.804989
v 6.982311 3.828638 6.804989
v 6.982311 3.828638 -6.805027
v 6.982311 0.166691 -6.805027
v 6.982311 0.166691 -4.395010
v 6.982311 3.828638 -4.395010
v 6.982311 3.828638 -4.005026
v 6.982311 0.166691 -4.005026
v 6.982311 0.166691 -1.595011
v 6.982311 3.828638 -1.595011
v 6.982311 3.828638 -1.205027
v 6.982311 0.166691 -1.205027
v 6.982311 0.166691 1.204989
v 6.982311 3.828638 1.204989
v 6.982311 3.828638 1.594974
v 6.982311 0.166691 1.594974
v 6.982311 0.166691 4.004990
v 6.982311 3.828638 4.004990
v 1.187001 3.997665 1.034776
v 1.187001 3.997665 -1.034814
v -0.664698 3.997665 -1.034814
v -0.664698 3.997665 1.034776
v 1.117936 3.911065 -0.922015
v 1.117936 3.911065 0.936387
v -0.544808 3.911065 0.936387
v -0.544808 3.911065 -0.922015
v -7.017690 -0.002334 -7.000020
v -7.017690 3.997665 -7.000020
v -7.017690 3.997665 6.371890
v -7.017690 -0.002334 4.199981
v -7.017690 3.997665 -4.200019
v -7.017690 -0.002334 -4.200019
v -7.017690 -0.002334 -1.400019
v -7.017690 -0.002334 1.399981
v -7.017690 3.997665 4.199981
v -7.017690 3.997665 1.399981
v -7.017690 3.997665 -1.400019
v -6.299079 3.997665 6.339467
v -6.299079 -0.002335 6.339467
v -7.017690 3.997665 6.339467
v -7.017691 -0.002334 6.339467
vn -0.0000 -0.0000 1.0000
vn -0.0000 1.0000 -0.0000
vn -0.0000 -0.0000 -1.0000
vn -0.0000 -1.0000 -0.0000
vn -0.0000 -0.7932 -0.6090
vn 1.0000 -0.0000 -0.0000
vn -1.0000 -0.0000 -0.0000
vn 0.7818 -0.6235 -0.0000
vn -0.5855 -0.8106 -0.0000
vn -0.5856 -0.8106 -0.0000
vn -0.0000 -0.7506 0.6607
vt 0.661806 0.011218
vt 0.766394 0.342179
vt 0.766398 0.011219
vt 0.758844 0.445659
vt 0.754314 0.391463
vt 0.754314 0.445659
vt 0.661805 0.011219
vt 0.772123 0.342179
vt 0.772125 0.011220
vt 0.392894 0.017932
vt 0.327411 0.127069
vt 0.392894 0.127069
vt 0.392894 0.236207
vt 0.327411 0.345344
vt 0.392894 0.345344
vt 0.327411 0.236207
vt 0.882445 0.011220
vt 0.992763 0.342180
vt 0.992765 0.011221
vt 0.882443 0.342180
vt 0.870989 0.011220
vt 0.975577 0.342181
vt 0.975580 0.011222
vt 0.870985 0.342180
vt 0.654823 0.127069
vt 0.589340 0.236207
vt 0.654823 0.236207
vt 0.589340 0.127069
vt 0.523858 0.236207
vt 0.912364 0.414685
vt 0.919533 0.371469
vt 0.912364 0.368477
vt 0.458376 0.127069
vt 0.458376 0.236207
vt 0.589340 0.345344
vt 0.654823 0.345344
vt 0.523858 0.345344
vt 0.458376 0.345344
vt 0.654823 0.017932
vt 0.589340 0.017932
vt 0.523858 0.127069
vt 0.523858 0.017932
vt 0.458376 0.017932
vt 0.992762 0.342181
vt 0.992764 0.011220
vt 0.661804 0.342179
vt 0.661804 0.011220
vt 0.727996 0.342179
vt 0.727996 0.011220
vt 0.392894 0.000000
vt 0.327411 0.017932
vt 0.703906 0.685080
vt 0.699891 0.385459
vt 0.699891 0.685080
vt 0.763373 0.445659
vt 0.758844 0.391463
vt 0.707922 0.685080
vt 0.703906 0.385459
vt 0.711938 0.685080
vt 0.707922 0.385459
vt 0.336984 0.427969
vt 0.023443 0.432529
vt 0.350817 0.432529
vt 0.037277 0.427968
vt 0.023443 0.367046
vt 0.037277 0.371607
vt 0.350817 0.367046
vt 0.336984 0.371607
vt 0.336983 0.689898
vt 0.023443 0.694458
vt 0.350817 0.694458
vt 0.037277 0.689898
vt 0.023443 0.628975
vt 0.037277 0.633536
vt 0.350817 0.628975
vt 0.336983 0.633536
vt 0.336983 0.624415
vt 0.037277 0.624415
vt 0.023443 0.563493
vt 0.037277 0.568053
vt 0.350817 0.563493
vt 0.336983 0.568053
vt 0.336983 0.558933
vt 0.037277 0.558933
vt 0.023443 0.498011
vt 0.037277 0.502571
vt 0.350817 0.498011
vt 0.336983 0.502571
vt 0.336984 0.493451
vt 0.037277 0.493451
vt 0.037277 0.437089
vt 0.336984 0.437089
vt 0.715954 0.685080
vt 0.711938 0.385459
vt 0.767902 0.445659
vt 0.763373 0.391463
vt 0.793114 0.445603
vt 0.789099 0.389241
vt 0.789099 0.445603
vt 0.719970 0.685080
vt 0.715954 0.385459
vt 0.772432 0.445659
vt 0.767903 0.391463
vt 0.767903 0.445659
vt 0.785083 0.445603
vt 0.781067 0.389241
vt 0.781067 0.445603
vt 0.719970 0.385459
vt 0.723986 0.685047
vt 0.723986 0.385459
vt 0.801146 0.445603
vt 0.797130 0.389241
vt 0.797130 0.445603
vt 0.805162 0.445603
vt 0.801146 0.389241
vt 0.728002 0.685047
vt 0.728002 0.385459
vt 0.785083 0.389241
vt 0.728001 0.385459
vt 0.732017 0.685047
vt 0.732017 0.385459
vt 0.793114 0.389241
vt 0.736033 0.685047
vt 0.736033 0.385459
vt 0.740049 0.685047
vt 0.740049 0.385459
vt 0.515317 0.204742
vt 0.466917 0.204742
vt 0.466917 0.158534
vt 0.515317 0.158534
vt 0.933962 0.371242
vt 0.975454 0.414703
vt 0.975454 0.371242
vt 0.898088 0.416878
vt 0.905231 0.371115
vt 0.898088 0.368477
vt 0.912364 0.414240
vt 0.905231 0.368477
vt 0.905231 0.416878
vt 0.928258 0.412961
vt 0.921107 0.369745
vt 0.921107 0.415953
vt 0.458376 0.000000
vt 0.654823 0.000000
vt 0.992764 0.342179
vt 0.589340 0.000000
vt 0.926772 0.311853
vt 0.863067 0.013951
vt 0.863067 0.311853
vt 0.975450 0.013951
vt 0.926772 0.013951
vt 0.799362 0.311853
vt 0.735656 0.013951
vt 0.735656 0.311853
vt 0.671951 0.311853
vt 0.671951 0.013951
vt 0.661803 0.342178
vt 0.919533 0.412961
vt 0.992766 0.011222
vt 0.327411 0.000000
vt 0.767902 0.391463
vt 0.772432 0.391463
vt 0.719970 0.685047
vt 0.805162 0.389241
vt 0.728001 0.685047
vt 0.933962 0.414703
vt 0.905231 0.414577
vt 0.912364 0.370778
vt 0.928258 0.371468
vt 0.523858 0.000000
vt 0.975450 0.311853
vt 0.799362 0.013951
s 1
usemtl Material.003
f 3/1/1 12/2/1 9/3/1
f 65/4/2 43/5/2 46/6/2
f 5/7/3 16/8/3 13/9/3
f 30/10/4 11/11/4 35/12/4
f 31/13/4 4/14/4 21/15/4
f 35/12/4 12/16/4 31/13/4
f 14/17/3 8/18/3 7/19/3
f 13/9/3 15/20/3 14/17/3
f 10/21/1 2/22/1 1/23/1
f 9/3/1 11/24/1 10/21/1
f 16/25/4 34/26/4 15/27/4
f 38/28/4 33/29/4 34/26/4
f 80/30/5 86/31/5 81/32/5
f 36/33/4 31/13/4 32/34/4
f 15/27/4 24/35/4 8/36/4
f 34/26/4 23/37/4 24/35/4
f 33/29/4 22/38/4 23/37/4
f 32/34/4 21/15/4 22/38/4
f 6/39/4 38/28/4 16/25/4
f 27/40/4 37/41/4 38/28/4
f 28/42/4 36/33/4 37/41/4
f 29/43/4 35/12/4 36/33/4
f 88/44/1 1/23/1 2/22/1
f 93/45/3 29/46/3 25/47/3
f 25/47/6 28/48/6 26/49/6
f 91/50/4 2/51/4 30/10/4
f 68/52/1 48/53/1 47/54/1
f 61/55/2 39/56/2 42/4/2
f 64/57/1 44/58/1 43/52/1
f 60/59/1 40/60/1 39/57/1
f 39/61/7 24/62/7 17/63/7
f 40/64/7 8/65/7 24/62/7
f 41/66/7 7/67/7 8/65/7
f 42/68/7 17/63/7 7/67/7
f 43/69/7 4/70/7 3/71/7
f 44/72/7 21/73/7 4/70/7
f 45/74/7 20/75/7 21/73/7
f 46/76/7 3/71/7 20/75/7
f 47/77/7 21/73/7 20/75/7
f 48/78/7 22/79/7 21/73/7
f 49/80/7 19/81/7 22/79/7
f 50/82/7 20/75/7 19/81/7
f 51/83/7 22/79/7 19/81/7
f 52/84/7 23/85/7 22/79/7
f 53/86/7 18/87/7 23/85/7
f 54/88/7 19/81/7 18/87/7
f 55/89/7 23/85/7 18/87/7
f 56/90/7 24/62/7 23/85/7
f 57/91/7 17/63/7 24/62/7
f 58/92/7 18/87/7 17/63/7
f 72/93/1 52/94/1 51/59/1
f 59/95/4 41/96/4 40/55/4
f 69/97/2 47/98/2 50/99/2
f 76/100/1 56/101/1 55/93/1
f 63/102/4 45/103/4 44/104/4
f 73/105/2 51/106/2 54/107/2
f 62/108/3 42/109/3 41/110/3
f 67/111/4 49/112/4 48/113/4
f 77/114/2 55/115/2 58/111/2
f 66/110/3 46/116/3 45/117/3
f 71/99/4 53/118/4 52/105/4
f 70/119/3 50/120/3 49/121/3
f 75/113/4 57/122/4 56/97/4
f 74/121/3 54/123/3 53/124/3
f 78/124/3 58/125/3 57/126/3
f 79/127/4 32/34/4 33/29/4
f 80/128/4 36/33/4 32/34/4
f 81/129/4 37/41/4 36/33/4
f 82/130/4 33/29/4 37/41/4
f 85/131/4 83/132/4 84/133/4
f 79/134/8 83/135/8 80/136/8
f 86/137/9 82/138/9 81/139/10
f 85/140/11 79/141/11 82/142/11
f 97/143/4 30/10/4 29/43/4
f 99/45/6 6/46/6 5/47/6
f 89/144/4 27/40/4 6/39/4
f 96/46/1 26/45/1 28/145/1
f 95/146/4 28/42/4 27/40/4
f 101/45/3 98/46/3 99/47/3
f 95/147/6 94/148/6 96/149/6
f 95/147/6 101/150/6 90/151/6
f 97/152/6 92/153/6 91/154/6
f 88/155/6 92/153/6 87/156/6
f 3/1/1 4/157/1 12/2/1
f 65/4/2 64/56/2 43/5/2
f 5/7/3 6/157/3 16/8/3
f 30/10/4 2/51/4 11/11/4
f 31/13/4 12/16/4 4/14/4
f 35/12/4 11/11/4 12/16/4
f 14/17/3 15/20/3 8/18/3
f 13/9/3 16/8/3 15/20/3
f 10/21/1 11/24/1 2/22/1
f 9/3/1 12/2/1 11/24/1
f 16/25/4 38/28/4 34/26/4
f 38/28/4 37/41/4 33/29/4
f 80/30/5 83/158/5 86/31/5
f 36/33/4 35/12/4 31/13/4
f 15/27/4 34/26/4 24/35/4
f 34/26/4 33/29/4 23/37/4
f 33/29/4 32/34/4 22/38/4
f 32/34/4 31/13/4 21/15/4
f 6/39/4 27/40/4 38/28/4
f 27/40/4 28/42/4 37/41/4
f 28/42/4 29/43/4 36/33/4
f 29/43/4 30/10/4 35/12/4
f 88/44/1 87/159/1 1/23/1
f 93/45/3 97/145/3 29/46/3
f 25/47/6 29/46/6 28/48/6
f 91/50/4 88/160/4 2/51/4
f 68/52/1 67/58/1 48/53/1
f 61/55/2 60/96/2 39/56/2
f 64/57/1 63/60/1 44/58/1
f 60/59/1 59/94/1 40/60/1
f 39/61/7 40/64/7 24/62/7
f 40/64/7 41/66/7 8/65/7
f 41/66/7 42/68/7 7/67/7
f 42/68/7 39/61/7 17/63/7
f 43/69/7 44/72/7 4/70/7
f 44/72/7 45/74/7 21/73/7
f 45/74/7 46/76/7 20/75/7
f 46/76/7 43/69/7 3/71/7
f 47/77/7 48/78/7 21/73/7
f 48/78/7 49/80/7 22/79/7
f 49/80/7 50/82/7 19/81/7
f 50/82/7 47/77/7 20/75/7
f 51/83/7 52/84/7 22/79/7
f 52/84/7 53/86/7 23/85/7
f 53/86/7 54/88/7 18/87/7
f 54/88/7 51/83/7 19/81/7
f 55/89/7 56/90/7 23/85/7
f 56/90/7 57/91/7 24/62/7
f 57/91/7 58/92/7 17/63/7
f 58/92/7 55/89/7 18/87/7
f 72/93/1 71/101/1 52/94/1
f 59/95/4 62/161/4 41/96/4
f 69/97/2 68/122/2 47/98/2
f 76/100/1 75/108/1 56/101/1
f 63/102/4 66/162/4 45/103/4
f 73/105/2 72/118/2 51/106/2
f 62/108/3 61/163/3 42/109/3
f 67/111/4 70/115/4 49/112/4
f 77/114/2 76/164/2 55/115/2
f 66/110/3 65/109/3 46/116/3
f 71/99/4 74/98/4 53/118/4
f 70/119/3 69/165/3 50/120/3
f 75/113/4 78/112/4 57/122/4
f 74/121/3 73/120/3 54/123/3
f 78/124/3 77/123/3 58/125/3
f 79/127/4 80/128/4 32/34/4
f 80/128/4 81/129/4 36/33/4
f 81/129/4 82/130/4 37/41/4
f 82/130/4 79/127/4 33/29/4
f 85/131/4 86/166/4 83/132/4
f 79/134/8 84/167/8 83/135/8
f 86/137/9 85/168/9 82/138/9
f 85/140/11 84/169/11 79/141/11
f 97/143/4 91/50/4 30/10/4
f 99/45/6 98/145/6 6/46/6
f 89/144/4 95/146/4 27/40/4
f 96/46/1 94/47/1 26/45/1
f 95/146/4 96/170/4 28/42/4
f 101/45/3 100/145/3 98/46/3
f 95/147/6 90/151/6 94/148/6
f 95/147/6 100/171/6 101/150/6
f 97/152/6 93/172/6 92/153/6
f 88/155/6 91/154/6 92/153/6
