{
	"asset":{
		"generator":"Khronos glTF Blender I/O v4.4.56",
		"version":"2.0"
	},
	"scene":0,
	"scenes":[
		{
			"name":"Scene",
			"nodes":[
				2,
				3
			]
		}
	],
	"nodes":[
		{
			"name":"toiletLid",
			"rotation":[
				0.7071067690849304,
				5.338507591545749e-08,
				5.338507591545749e-08,
				0.7071067690849304
			],
			"translation":[
				4.355699509899259e-17,
				0.44557657837867737,
				-0.1329697221517563
			]
		},
		{
			"children":[
				0
			],
			"name":"Root"
		},
		{
			"mesh":0,
			"name":"Circle",
			"skin":0
		},
		{
			"children":[
				1
			],
			"name":"Armature"
		}
	],
	"animations":[
		{
			"channels":[
				{
					"sampler":0,
					"target":{
						"node":1,
						"path":"translation"
					}
				},
				{
					"sampler":1,
					"target":{
						"node":1,
						"path":"rotation"
					}
				},
				{
					"sampler":2,
					"target":{
						"node":1,
						"path":"scale"
					}
				},
				{
					"sampler":3,
					"target":{
						"node":0,
						"path":"translation"
					}
				},
				{
					"sampler":4,
					"target":{
						"node":0,
						"path":"rotation"
					}
				},
				{
					"sampler":5,
					"target":{
						"node":0,
						"path":"scale"
					}
				}
			],
			"name":"Close",
			"samplers":[
				{
					"input":7,
					"interpolation":"STEP",
					"output":8
				},
				{
					"input":7,
					"interpolation":"STEP",
					"output":9
				},
				{
					"input":7,
					"interpolation":"STEP",
					"output":10
				},
				{
					"input":7,
					"interpolation":"STEP",
					"output":11
				},
				{
					"input":12,
					"interpolation":"LINEAR",
					"output":13
				},
				{
					"input":7,
					"interpolation":"STEP",
					"output":14
				}
			]
		},
		{
			"channels":[
				{
					"sampler":0,
					"target":{
						"node":1,
						"path":"translation"
					}
				},
				{
					"sampler":1,
					"target":{
						"node":1,
						"path":"rotation"
					}
				},
				{
					"sampler":2,
					"target":{
						"node":1,
						"path":"scale"
					}
				},
				{
					"sampler":3,
					"target":{
						"node":0,
						"path":"translation"
					}
				},
				{
					"sampler":4,
					"target":{
						"node":0,
						"path":"rotation"
					}
				},
				{
					"sampler":5,
					"target":{
						"node":0,
						"path":"scale"
					}
				}
			],
			"name":"Open",
			"samplers":[
				{
					"input":7,
					"interpolation":"STEP",
					"output":15
				},
				{
					"input":7,
					"interpolation":"STEP",
					"output":16
				},
				{
					"input":7,
					"interpolation":"STEP",
					"output":17
				},
				{
					"input":7,
					"interpolation":"STEP",
					"output":18
				},
				{
					"input":12,
					"interpolation":"LINEAR",
					"output":19
				},
				{
					"input":7,
					"interpolation":"STEP",
					"output":20
				}
			]
		}
	],
	"materials":[
		{
			"doubleSided":true,
			"name":"Material",
			"pbrMetallicRoughness":{
				"baseColorTexture":{
					"index":0
				},
				"metallicFactor":0,
				"roughnessFactor":0.5
			}
		}
	],
	"meshes":[
		{
			"name":"Circle",
			"primitives":[
				{
					"attributes":{
						"POSITION":0,
						"NORMAL":1,
						"TEXCOORD_0":2,
						"JOINTS_0":3,
						"WEIGHTS_0":4
					},
					"indices":5,
					"material":0
				}
			]
		}
	],
	"textures":[
		{
			"sampler":0,
			"source":0
		}
	],
	"images":[
		{
			"mimeType":"image/png",
			"name":"white2x2",
			"uri":"white2x2.png"
		}
	],
	"skins":[
		{
			"inverseBindMatrices":6,
			"joints":[
				1,
				0
			],
			"name":"Armature"
		}
	],
	"accessors":[
		{
			"bufferView":0,
			"componentType":5126,
			"count":943,
			"max":[
				0.25272732973098755,
				0.8721067905426025,
				0.4007014036178589
			],
			"min":[
				-0.25272732973098755,
				-0.0037840604782104492,
				-0.4089040756225586
			],
			"type":"VEC3"
		},
		{
			"bufferView":1,
			"componentType":5126,
			"count":943,
			"type":"VEC3"
		},
		{
			"bufferView":2,
			"componentType":5126,
			"count":943,
			"type":"VEC2"
		},
		{
			"bufferView":3,
			"componentType":5121,
			"count":943,
			"type":"VEC4"
		},
		{
			"bufferView":4,
			"componentType":5126,
			"count":943,
			"type":"VEC4"
		},
		{
			"bufferView":5,
			"componentType":5123,
			"count":3732,
			"type":"SCALAR"
		},
		{
			"bufferView":6,
			"componentType":5126,
			"count":2,
			"type":"MAT4"
		},
		{
			"bufferView":7,
			"componentType":5126,
			"count":2,
			"max":[
				1.0166666666666666
			],
			"min":[
				0.016666666666666666
			],
			"type":"SCALAR"
		},
		{
			"bufferView":8,
			"componentType":5126,
			"count":2,
			"type":"VEC3"
		},
		{
			"bufferView":9,
			"componentType":5126,
			"count":2,
			"type":"VEC4"
		},
		{
			"bufferView":10,
			"componentType":5126,
			"count":2,
			"type":"VEC3"
		},
		{
			"bufferView":11,
			"componentType":5126,
			"count":2,
			"type":"VEC3"
		},
		{
			"bufferView":12,
			"componentType":5126,
			"count":61,
			"max":[
				1.0166666666666666
			],
			"min":[
				0.016666666666666666
			],
			"type":"SCALAR"
		},
		{
			"bufferView":13,
			"componentType":5126,
			"count":61,
			"type":"VEC4"
		},
		{
			"bufferView":14,
			"componentType":5126,
			"count":2,
			"type":"VEC3"
		},
		{
			"bufferView":15,
			"componentType":5126,
			"count":2,
			"type":"VEC3"
		},
		{
			"bufferView":16,
			"componentType":5126,
			"count":2,
			"type":"VEC4"
		},
		{
			"bufferView":17,
			"componentType":5126,
			"count":2,
			"type":"VEC3"
		},
		{
			"bufferView":18,
			"componentType":5126,
			"count":2,
			"type":"VEC3"
		},
		{
			"bufferView":19,
			"componentType":5126,
			"count":61,
			"type":"VEC4"
		},
		{
			"bufferView":20,
			"componentType":5126,
			"count":2,
			"type":"VEC3"
		}
	],
	"bufferViews":[
		{
			"buffer":0,
			"byteLength":11316,
			"byteOffset":0,
			"target":34962
		},
		{
			"buffer":0,
			"byteLength":11316,
			"byteOffset":11316,
			"target":34962
		},
		{
			"buffer":0,
			"byteLength":7544,
			"byteOffset":22632,
			"target":34962
		},
		{
			"buffer":0,
			"byteLength":3772,
			"byteOffset":30176,
			"target":34962
		},
		{
			"buffer":0,
			"byteLength":15088,
			"byteOffset":33948,
			"target":34962
		},
		{
			"buffer":0,
			"byteLength":7464,
			"byteOffset":49036,
			"target":34963
		},
		{
			"buffer":0,
			"byteLength":128,
			"byteOffset":56500
		},
		{
			"buffer":0,
			"byteLength":8,
			"byteOffset":56628
		},
		{
			"buffer":0,
			"byteLength":24,
			"byteOffset":56636
		},
		{
			"buffer":0,
			"byteLength":32,
			"byteOffset":56660
		},
		{
			"buffer":0,
			"byteLength":24,
			"byteOffset":56692
		},
		{
			"buffer":0,
			"byteLength":24,
			"byteOffset":56716
		},
		{
			"buffer":0,
			"byteLength":244,
			"byteOffset":56740
		},
		{
			"buffer":0,
			"byteLength":976,
			"byteOffset":56984
		},
		{
			"buffer":0,
			"byteLength":24,
			"byteOffset":57960
		},
		{
			"buffer":0,
			"byteLength":24,
			"byteOffset":57984
		},
		{
			"buffer":0,
			"byteLength":32,
			"byteOffset":58008
		},
		{
			"buffer":0,
			"byteLength":24,
			"byteOffset":58040
		},
		{
			"buffer":0,
			"byteLength":24,
			"byteOffset":58064
		},
		{
			"buffer":0,
			"byteLength":976,
			"byteOffset":58088
		},
		{
			"buffer":0,
			"byteLength":24,
			"byteOffset":59064
		}
	],
	"samplers":[
		{
			"magFilter":9729,
			"minFilter":9987
		}
	],
	"buffers":[
		{
			"byteLength":59088,
			"uri":"toilet.bin"
		}
	]
}
