# Blender 4.4.1
# www.blender.org
mtllib document.mtl
o Plane
v -0.105000 0.000076 0.148500
v 0.105000 0.000076 0.148500
v -0.105000 0.000076 -0.148500
v 0.105000 0.000076 -0.148500
v 0.105000 -0.000076 0.148500
v -0.105000 -0.000076 0.148500
v 0.105000 -0.000076 -0.148500
v -0.105000 -0.000076 -0.148500
vn -0.0000 1.0000 -0.0000
vn -0.0000 -1.0000 -0.0000
vt 1.000000 0.000000
vt 0.000000 1.000000
vt 0.000000 0.000000
vt 0.999862 0.000121
vt 1.000000 1.000000
s 0
usemtl Material.006
f 2/1/1 3/2/1 1/3/1
f 6/4/2 7/4/2 5/4/2
f 2/1/1 4/5/1 3/2/1
f 6/4/2 8/4/2 7/4/2
