{
	"asset":{
		"generator":"Khronos glTF Blender I/O v4.4.56",
		"version":"2.0"
	},
	"scene":0,
	"scenes":[
		{
			"name":"Scene",
			"nodes":[
				4
			]
		}
	],
	"nodes":[
		{
			"name":"\u30dc\u30fc\u30f3.002",
			"rotation":[
				-0.49774280190467834,
				0.502247154712677,
				0.4977426826953888,
				0.5022470355033875
			],
			"scale":[
				1,
				0.9999999403953552,
				1
			],
			"translation":[
				-0.4795440435409546,
				0.004320204257965088,
				-5.804593472547026e-10
			]
		},
		{
			"name":"\u30dc\u30fc\u30f3.004",
			"rotation":[
				-0.49774354696273804,
				-0.5022478699684143,
				-0.4977419972419739,
				0.5022463798522949
			],
			"scale":[
				1,
				0.9999999403953552,
				1
			],
			"translation":[
				0.4795440435409546,
				0.004320204257965088,
				-5.804593472547026e-10
			]
		},
		{
			"children":[
				0,
				1
			],
			"name":"\u30dc\u30fc\u30f3"
		},
		{
			"mesh":0,
			"name":"Cube",
			"skin":0
		},
		{
			"children":[
				3,
				2
			],
			"name":"\u30a2\u30fc\u30de\u30c1\u30e5\u30a2"
		}
	],
	"animations":[
		{
			"channels":[
				{
					"sampler":0,
					"target":{
						"node":2,
						"path":"translation"
					}
				},
				{
					"sampler":1,
					"target":{
						"node":2,
						"path":"rotation"
					}
				},
				{
					"sampler":2,
					"target":{
						"node":2,
						"path":"scale"
					}
				},
				{
					"sampler":3,
					"target":{
						"node":0,
						"path":"translation"
					}
				},
				{
					"sampler":4,
					"target":{
						"node":0,
						"path":"rotation"
					}
				},
				{
					"sampler":5,
					"target":{
						"node":0,
						"path":"scale"
					}
				},
				{
					"sampler":6,
					"target":{
						"node":1,
						"path":"translation"
					}
				},
				{
					"sampler":7,
					"target":{
						"node":1,
						"path":"rotation"
					}
				},
				{
					"sampler":8,
					"target":{
						"node":1,
						"path":"scale"
					}
				}
			],
			"name":"Close",
			"samplers":[
				{
					"input":8,
					"interpolation":"STEP",
					"output":9
				},
				{
					"input":8,
					"interpolation":"STEP",
					"output":10
				},
				{
					"input":8,
					"interpolation":"STEP",
					"output":11
				},
				{
					"input":12,
					"interpolation":"LINEAR",
					"output":13
				},
				{
					"input":8,
					"interpolation":"STEP",
					"output":14
				},
				{
					"input":8,
					"interpolation":"STEP",
					"output":15
				},
				{
					"input":12,
					"interpolation":"LINEAR",
					"output":16
				},
				{
					"input":8,
					"interpolation":"STEP",
					"output":17
				},
				{
					"input":8,
					"interpolation":"STEP",
					"output":18
				}
			]
		},
		{
			"channels":[
				{
					"sampler":0,
					"target":{
						"node":2,
						"path":"translation"
					}
				},
				{
					"sampler":1,
					"target":{
						"node":2,
						"path":"rotation"
					}
				},
				{
					"sampler":2,
					"target":{
						"node":2,
						"path":"scale"
					}
				},
				{
					"sampler":3,
					"target":{
						"node":0,
						"path":"translation"
					}
				},
				{
					"sampler":4,
					"target":{
						"node":0,
						"path":"rotation"
					}
				},
				{
					"sampler":5,
					"target":{
						"node":0,
						"path":"scale"
					}
				},
				{
					"sampler":6,
					"target":{
						"node":1,
						"path":"translation"
					}
				},
				{
					"sampler":7,
					"target":{
						"node":1,
						"path":"rotation"
					}
				},
				{
					"sampler":8,
					"target":{
						"node":1,
						"path":"scale"
					}
				}
			],
			"name":"Open",
			"samplers":[
				{
					"input":8,
					"interpolation":"STEP",
					"output":19
				},
				{
					"input":8,
					"interpolation":"STEP",
					"output":20
				},
				{
					"input":8,
					"interpolation":"STEP",
					"output":21
				},
				{
					"input":12,
					"interpolation":"LINEAR",
					"output":22
				},
				{
					"input":8,
					"interpolation":"STEP",
					"output":23
				},
				{
					"input":8,
					"interpolation":"STEP",
					"output":24
				},
				{
					"input":12,
					"interpolation":"LINEAR",
					"output":25
				},
				{
					"input":8,
					"interpolation":"STEP",
					"output":26
				},
				{
					"input":8,
					"interpolation":"STEP",
					"output":27
				}
			]
		},
		{
			"channels":[
				{
					"sampler":0,
					"target":{
						"node":2,
						"path":"translation"
					}
				},
				{
					"sampler":1,
					"target":{
						"node":2,
						"path":"rotation"
					}
				},
				{
					"sampler":2,
					"target":{
						"node":2,
						"path":"scale"
					}
				},
				{
					"sampler":3,
					"target":{
						"node":0,
						"path":"translation"
					}
				},
				{
					"sampler":4,
					"target":{
						"node":0,
						"path":"rotation"
					}
				},
				{
					"sampler":5,
					"target":{
						"node":0,
						"path":"scale"
					}
				},
				{
					"sampler":6,
					"target":{
						"node":1,
						"path":"translation"
					}
				},
				{
					"sampler":7,
					"target":{
						"node":1,
						"path":"rotation"
					}
				},
				{
					"sampler":8,
					"target":{
						"node":1,
						"path":"scale"
					}
				}
			],
			"name":"SneakWalk",
			"samplers":[
				{
					"input":28,
					"interpolation":"STEP",
					"output":29
				},
				{
					"input":28,
					"interpolation":"STEP",
					"output":30
				},
				{
					"input":28,
					"interpolation":"STEP",
					"output":31
				},
				{
					"input":28,
					"interpolation":"STEP",
					"output":32
				},
				{
					"input":28,
					"interpolation":"STEP",
					"output":33
				},
				{
					"input":28,
					"interpolation":"STEP",
					"output":34
				},
				{
					"input":28,
					"interpolation":"STEP",
					"output":35
				},
				{
					"input":28,
					"interpolation":"STEP",
					"output":36
				},
				{
					"input":28,
					"interpolation":"STEP",
					"output":37
				}
			]
		},
		{
			"channels":[
				{
					"sampler":0,
					"target":{
						"node":2,
						"path":"translation"
					}
				},
				{
					"sampler":1,
					"target":{
						"node":2,
						"path":"rotation"
					}
				},
				{
					"sampler":2,
					"target":{
						"node":2,
						"path":"scale"
					}
				},
				{
					"sampler":3,
					"target":{
						"node":0,
						"path":"translation"
					}
				},
				{
					"sampler":4,
					"target":{
						"node":0,
						"path":"rotation"
					}
				},
				{
					"sampler":5,
					"target":{
						"node":0,
						"path":"scale"
					}
				},
				{
					"sampler":6,
					"target":{
						"node":1,
						"path":"translation"
					}
				},
				{
					"sampler":7,
					"target":{
						"node":1,
						"path":"rotation"
					}
				},
				{
					"sampler":8,
					"target":{
						"node":1,
						"path":"scale"
					}
				}
			],
			"name":"Walk",
			"samplers":[
				{
					"input":28,
					"interpolation":"STEP",
					"output":38
				},
				{
					"input":28,
					"interpolation":"STEP",
					"output":39
				},
				{
					"input":28,
					"interpolation":"STEP",
					"output":40
				},
				{
					"input":28,
					"interpolation":"STEP",
					"output":41
				},
				{
					"input":28,
					"interpolation":"STEP",
					"output":42
				},
				{
					"input":28,
					"interpolation":"STEP",
					"output":43
				},
				{
					"input":28,
					"interpolation":"STEP",
					"output":44
				},
				{
					"input":28,
					"interpolation":"STEP",
					"output":45
				},
				{
					"input":28,
					"interpolation":"STEP",
					"output":46
				}
			]
		}
	],
	"materials":[
		{
			"doubleSided":true,
			"name":"\u30de\u30c6\u30ea\u30a2\u30eb",
			"pbrMetallicRoughness":{
				"baseColorTexture":{
					"index":0
				},
				"metallicFactor":0,
				"roughnessFactor":0.5
			}
		}
	],
	"meshes":[
		{
			"name":"Cube",
			"primitives":[
				{
					"attributes":{
						"POSITION":0,
						"NORMAL":1,
						"TEXCOORD_0":2,
						"TEXCOORD_1":3,
						"JOINTS_0":4,
						"WEIGHTS_0":5
					},
					"indices":6,
					"material":0
				}
			]
		}
	],
	"textures":[
		{
			"sampler":0,
			"source":0
		}
	],
	"images":[
		{
			"mimeType":"image/png",
			"name":"Elevator",
			"uri":"Elevator.png"
		}
	],
	"skins":[
		{
			"inverseBindMatrices":7,
			"joints":[
				2,
				0,
				1
			],
			"name":"\u30a2\u30fc\u30de\u30c1\u30e5\u30a2"
		}
	],
	"accessors":[
		{
			"bufferView":0,
			"componentType":5126,
			"count":188,
			"max":[
				1.8388627767562866,
				1.0005662441253662,
				2.275871753692627
			],
			"min":[
				-1.8387153148651123,
				-2.4326744079589844,
				-2.700038433074951
			],
			"type":"VEC3"
		},
		{
			"bufferView":1,
			"componentType":5126,
			"count":188,
			"type":"VEC3"
		},
		{
			"bufferView":2,
			"componentType":5126,
			"count":188,
			"type":"VEC2"
		},
		{
			"bufferView":3,
			"componentType":5126,
			"count":188,
			"type":"VEC2"
		},
		{
			"bufferView":4,
			"componentType":5121,
			"count":188,
			"type":"VEC4"
		},
		{
			"bufferView":5,
			"componentType":5126,
			"count":188,
			"type":"VEC4"
		},
		{
			"bufferView":6,
			"componentType":5123,
			"count":354,
			"type":"SCALAR"
		},
		{
			"bufferView":7,
			"componentType":5126,
			"count":3,
			"type":"MAT4"
		},
		{
			"bufferView":8,
			"componentType":5126,
			"count":2,
			"max":[
				1.6666666666666667
			],
			"min":[
				0.041666666666666664
			],
			"type":"SCALAR"
		},
		{
			"bufferView":9,
			"componentType":5126,
			"count":2,
			"type":"VEC3"
		},
		{
			"bufferView":10,
			"componentType":5126,
			"count":2,
			"type":"VEC4"
		},
		{
			"bufferView":11,
			"componentType":5126,
			"count":2,
			"type":"VEC3"
		},
		{
			"bufferView":12,
			"componentType":5126,
			"count":40,
			"max":[
				1.6666666666666667
			],
			"min":[
				0.041666666666666664
			],
			"type":"SCALAR"
		},
		{
			"bufferView":13,
			"componentType":5126,
			"count":40,
			"type":"VEC3"
		},
		{
			"bufferView":14,
			"componentType":5126,
			"count":2,
			"type":"VEC4"
		},
		{
			"bufferView":15,
			"componentType":5126,
			"count":2,
			"type":"VEC3"
		},
		{
			"bufferView":16,
			"componentType":5126,
			"count":40,
			"type":"VEC3"
		},
		{
			"bufferView":17,
			"componentType":5126,
			"count":2,
			"type":"VEC4"
		},
		{
			"bufferView":18,
			"componentType":5126,
			"count":2,
			"type":"VEC3"
		},
		{
			"bufferView":19,
			"componentType":5126,
			"count":2,
			"type":"VEC3"
		},
		{
			"bufferView":20,
			"componentType":5126,
			"count":2,
			"type":"VEC4"
		},
		{
			"bufferView":21,
			"componentType":5126,
			"count":2,
			"type":"VEC3"
		},
		{
			"bufferView":22,
			"componentType":5126,
			"count":40,
			"type":"VEC3"
		},
		{
			"bufferView":23,
			"componentType":5126,
			"count":2,
			"type":"VEC4"
		},
		{
			"bufferView":24,
			"componentType":5126,
			"count":2,
			"type":"VEC3"
		},
		{
			"bufferView":25,
			"componentType":5126,
			"count":40,
			"type":"VEC3"
		},
		{
			"bufferView":26,
			"componentType":5126,
			"count":2,
			"type":"VEC4"
		},
		{
			"bufferView":27,
			"componentType":5126,
			"count":2,
			"type":"VEC3"
		},
		{
			"bufferView":28,
			"componentType":5126,
			"count":2,
			"max":[
				2.5416666666666665
			],
			"min":[
				0.041666666666666664
			],
			"type":"SCALAR"
		},
		{
			"bufferView":29,
			"componentType":5126,
			"count":2,
			"type":"VEC3"
		},
		{
			"bufferView":30,
			"componentType":5126,
			"count":2,
			"type":"VEC4"
		},
		{
			"bufferView":31,
			"componentType":5126,
			"count":2,
			"type":"VEC3"
		},
		{
			"bufferView":32,
			"componentType":5126,
			"count":2,
			"type":"VEC3"
		},
		{
			"bufferView":33,
			"componentType":5126,
			"count":2,
			"type":"VEC4"
		},
		{
			"bufferView":34,
			"componentType":5126,
			"count":2,
			"type":"VEC3"
		},
		{
			"bufferView":35,
			"componentType":5126,
			"count":2,
			"type":"VEC3"
		},
		{
			"bufferView":36,
			"componentType":5126,
			"count":2,
			"type":"VEC4"
		},
		{
			"bufferView":37,
			"componentType":5126,
			"count":2,
			"type":"VEC3"
		},
		{
			"bufferView":38,
			"componentType":5126,
			"count":2,
			"type":"VEC3"
		},
		{
			"bufferView":39,
			"componentType":5126,
			"count":2,
			"type":"VEC4"
		},
		{
			"bufferView":40,
			"componentType":5126,
			"count":2,
			"type":"VEC3"
		},
		{
			"bufferView":41,
			"componentType":5126,
			"count":2,
			"type":"VEC3"
		},
		{
			"bufferView":42,
			"componentType":5126,
			"count":2,
			"type":"VEC4"
		},
		{
			"bufferView":43,
			"componentType":5126,
			"count":2,
			"type":"VEC3"
		},
		{
			"bufferView":44,
			"componentType":5126,
			"count":2,
			"type":"VEC3"
		},
		{
			"bufferView":45,
			"componentType":5126,
			"count":2,
			"type":"VEC4"
		},
		{
			"bufferView":46,
			"componentType":5126,
			"count":2,
			"type":"VEC3"
		}
	],
	"bufferViews":[
		{
			"buffer":0,
			"byteLength":2256,
			"byteOffset":0,
			"target":34962
		},
		{
			"buffer":0,
			"byteLength":2256,
			"byteOffset":2256,
			"target":34962
		},
		{
			"buffer":0,
			"byteLength":1504,
			"byteOffset":4512,
			"target":34962
		},
		{
			"buffer":0,
			"byteLength":1504,
			"byteOffset":6016,
			"target":34962
		},
		{
			"buffer":0,
			"byteLength":752,
			"byteOffset":7520,
			"target":34962
		},
		{
			"buffer":0,
			"byteLength":3008,
			"byteOffset":8272,
			"target":34962
		},
		{
			"buffer":0,
			"byteLength":708,
			"byteOffset":11280,
			"target":34963
		},
		{
			"buffer":0,
			"byteLength":192,
			"byteOffset":11988
		},
		{
			"buffer":0,
			"byteLength":8,
			"byteOffset":12180
		},
		{
			"buffer":0,
			"byteLength":24,
			"byteOffset":12188
		},
		{
			"buffer":0,
			"byteLength":32,
			"byteOffset":12212
		},
		{
			"buffer":0,
			"byteLength":24,
			"byteOffset":12244
		},
		{
			"buffer":0,
			"byteLength":160,
			"byteOffset":12268
		},
		{
			"buffer":0,
			"byteLength":480,
			"byteOffset":12428
		},
		{
			"buffer":0,
			"byteLength":32,
			"byteOffset":12908
		},
		{
			"buffer":0,
			"byteLength":24,
			"byteOffset":12940
		},
		{
			"buffer":0,
			"byteLength":480,
			"byteOffset":12964
		},
		{
			"buffer":0,
			"byteLength":32,
			"byteOffset":13444
		},
		{
			"buffer":0,
			"byteLength":24,
			"byteOffset":13476
		},
		{
			"buffer":0,
			"byteLength":24,
			"byteOffset":13500
		},
		{
			"buffer":0,
			"byteLength":32,
			"byteOffset":13524
		},
		{
			"buffer":0,
			"byteLength":24,
			"byteOffset":13556
		},
		{
			"buffer":0,
			"byteLength":480,
			"byteOffset":13580
		},
		{
			"buffer":0,
			"byteLength":32,
			"byteOffset":14060
		},
		{
			"buffer":0,
			"byteLength":24,
			"byteOffset":14092
		},
		{
			"buffer":0,
			"byteLength":480,
			"byteOffset":14116
		},
		{
			"buffer":0,
			"byteLength":32,
			"byteOffset":14596
		},
		{
			"buffer":0,
			"byteLength":24,
			"byteOffset":14628
		},
		{
			"buffer":0,
			"byteLength":8,
			"byteOffset":14652
		},
		{
			"buffer":0,
			"byteLength":24,
			"byteOffset":14660
		},
		{
			"buffer":0,
			"byteLength":32,
			"byteOffset":14684
		},
		{
			"buffer":0,
			"byteLength":24,
			"byteOffset":14716
		},
		{
			"buffer":0,
			"byteLength":24,
			"byteOffset":14740
		},
		{
			"buffer":0,
			"byteLength":32,
			"byteOffset":14764
		},
		{
			"buffer":0,
			"byteLength":24,
			"byteOffset":14796
		},
		{
			"buffer":0,
			"byteLength":24,
			"byteOffset":14820
		},
		{
			"buffer":0,
			"byteLength":32,
			"byteOffset":14844
		},
		{
			"buffer":0,
			"byteLength":24,
			"byteOffset":14876
		},
		{
			"buffer":0,
			"byteLength":24,
			"byteOffset":14900
		},
		{
			"buffer":0,
			"byteLength":32,
			"byteOffset":14924
		},
		{
			"buffer":0,
			"byteLength":24,
			"byteOffset":14956
		},
		{
			"buffer":0,
			"byteLength":24,
			"byteOffset":14980
		},
		{
			"buffer":0,
			"byteLength":32,
			"byteOffset":15004
		},
		{
			"buffer":0,
			"byteLength":24,
			"byteOffset":15036
		},
		{
			"buffer":0,
			"byteLength":24,
			"byteOffset":15060
		},
		{
			"buffer":0,
			"byteLength":32,
			"byteOffset":15084
		},
		{
			"buffer":0,
			"byteLength":24,
			"byteOffset":15116
		}
	],
	"samplers":[
		{
			"magFilter":9729,
			"minFilter":9987
		}
	],
	"buffers":[
		{
			"byteLength":15140,
			"uri":"Elevator.bin"
		}
	]
}
