{
	"asset":{
		"generator":"Khronos glTF Blender I/O v4.4.56",
		"version":"2.0"
	},
	"scene":0,
	"scenes":[
		{
			"name":"Scene",
			"nodes":[
				4,
				5
			]
		}
	],
	"nodes":[
		{
			"name":"\u30dc\u30fc\u30f3.002",
			"rotation":[
				-0.49774280190467834,
				0.502247154712677,
				0.4977426826953888,
				0.5022470355033875
			],
			"scale":[
				1,
				0.9999999403953552,
				1
			],
			"translation":[
				-0.4795440435409546,
				0.004320204257965088,
				-5.804593472547026e-10
			]
		},
		{
			"name":"\u30dc\u30fc\u30f3.004",
			"rotation":[
				-0.49774354696273804,
				-0.5022478699684143,
				-0.4977419972419739,
				0.5022463798522949
			],
			"scale":[
				1,
				0.9999999403953552,
				1
			],
			"translation":[
				0.4795440435409546,
				0.004320204257965088,
				-5.804593472547026e-10
			]
		},
		{
			"children":[
				0,
				1
			],
			"name":"\u30dc\u30fc\u30f3"
		},
		{
			"mesh":0,
			"name":"Cube",
			"skin":0
		},
		{
			"children":[
				3,
				2
			],
			"name":"\u30a2\u30fc\u30de\u30c1\u30e5\u30a2"
		},
		{
			"mesh":1,
			"name":"Cube.001"
		}
	],
	"animations":[
		{
			"channels":[
				{
					"sampler":0,
					"target":{
						"node":2,
						"path":"translation"
					}
				},
				{
					"sampler":1,
					"target":{
						"node":2,
						"path":"rotation"
					}
				},
				{
					"sampler":2,
					"target":{
						"node":2,
						"path":"scale"
					}
				},
				{
					"sampler":3,
					"target":{
						"node":0,
						"path":"translation"
					}
				},
				{
					"sampler":4,
					"target":{
						"node":0,
						"path":"rotation"
					}
				},
				{
					"sampler":5,
					"target":{
						"node":0,
						"path":"scale"
					}
				},
				{
					"sampler":6,
					"target":{
						"node":1,
						"path":"translation"
					}
				},
				{
					"sampler":7,
					"target":{
						"node":1,
						"path":"rotation"
					}
				},
				{
					"sampler":8,
					"target":{
						"node":1,
						"path":"scale"
					}
				}
			],
			"name":"Close",
			"samplers":[
				{
					"input":13,
					"interpolation":"STEP",
					"output":14
				},
				{
					"input":13,
					"interpolation":"STEP",
					"output":15
				},
				{
					"input":13,
					"interpolation":"STEP",
					"output":16
				},
				{
					"input":17,
					"interpolation":"LINEAR",
					"output":18
				},
				{
					"input":13,
					"interpolation":"STEP",
					"output":19
				},
				{
					"input":13,
					"interpolation":"STEP",
					"output":20
				},
				{
					"input":17,
					"interpolation":"LINEAR",
					"output":21
				},
				{
					"input":13,
					"interpolation":"STEP",
					"output":22
				},
				{
					"input":13,
					"interpolation":"STEP",
					"output":23
				}
			]
		},
		{
			"channels":[
				{
					"sampler":0,
					"target":{
						"node":2,
						"path":"translation"
					}
				},
				{
					"sampler":1,
					"target":{
						"node":2,
						"path":"rotation"
					}
				},
				{
					"sampler":2,
					"target":{
						"node":2,
						"path":"scale"
					}
				},
				{
					"sampler":3,
					"target":{
						"node":0,
						"path":"translation"
					}
				},
				{
					"sampler":4,
					"target":{
						"node":0,
						"path":"rotation"
					}
				},
				{
					"sampler":5,
					"target":{
						"node":0,
						"path":"scale"
					}
				},
				{
					"sampler":6,
					"target":{
						"node":1,
						"path":"translation"
					}
				},
				{
					"sampler":7,
					"target":{
						"node":1,
						"path":"rotation"
					}
				},
				{
					"sampler":8,
					"target":{
						"node":1,
						"path":"scale"
					}
				}
			],
			"name":"Close.001",
			"samplers":[
				{
					"input":13,
					"interpolation":"STEP",
					"output":24
				},
				{
					"input":13,
					"interpolation":"STEP",
					"output":25
				},
				{
					"input":13,
					"interpolation":"STEP",
					"output":26
				},
				{
					"input":17,
					"interpolation":"LINEAR",
					"output":27
				},
				{
					"input":13,
					"interpolation":"STEP",
					"output":28
				},
				{
					"input":13,
					"interpolation":"STEP",
					"output":29
				},
				{
					"input":17,
					"interpolation":"LINEAR",
					"output":30
				},
				{
					"input":13,
					"interpolation":"STEP",
					"output":31
				},
				{
					"input":13,
					"interpolation":"STEP",
					"output":32
				}
			]
		},
		{
			"channels":[
				{
					"sampler":0,
					"target":{
						"node":2,
						"path":"translation"
					}
				},
				{
					"sampler":1,
					"target":{
						"node":2,
						"path":"rotation"
					}
				},
				{
					"sampler":2,
					"target":{
						"node":2,
						"path":"scale"
					}
				},
				{
					"sampler":3,
					"target":{
						"node":0,
						"path":"translation"
					}
				},
				{
					"sampler":4,
					"target":{
						"node":0,
						"path":"rotation"
					}
				},
				{
					"sampler":5,
					"target":{
						"node":0,
						"path":"scale"
					}
				},
				{
					"sampler":6,
					"target":{
						"node":1,
						"path":"translation"
					}
				},
				{
					"sampler":7,
					"target":{
						"node":1,
						"path":"rotation"
					}
				},
				{
					"sampler":8,
					"target":{
						"node":1,
						"path":"scale"
					}
				}
			],
			"name":"Open",
			"samplers":[
				{
					"input":13,
					"interpolation":"STEP",
					"output":33
				},
				{
					"input":13,
					"interpolation":"STEP",
					"output":34
				},
				{
					"input":13,
					"interpolation":"STEP",
					"output":35
				},
				{
					"input":17,
					"interpolation":"LINEAR",
					"output":36
				},
				{
					"input":13,
					"interpolation":"STEP",
					"output":37
				},
				{
					"input":13,
					"interpolation":"STEP",
					"output":38
				},
				{
					"input":17,
					"interpolation":"LINEAR",
					"output":39
				},
				{
					"input":13,
					"interpolation":"STEP",
					"output":40
				},
				{
					"input":13,
					"interpolation":"STEP",
					"output":41
				}
			]
		},
		{
			"channels":[
				{
					"sampler":0,
					"target":{
						"node":2,
						"path":"translation"
					}
				},
				{
					"sampler":1,
					"target":{
						"node":2,
						"path":"rotation"
					}
				},
				{
					"sampler":2,
					"target":{
						"node":2,
						"path":"scale"
					}
				},
				{
					"sampler":3,
					"target":{
						"node":0,
						"path":"translation"
					}
				},
				{
					"sampler":4,
					"target":{
						"node":0,
						"path":"rotation"
					}
				},
				{
					"sampler":5,
					"target":{
						"node":0,
						"path":"scale"
					}
				},
				{
					"sampler":6,
					"target":{
						"node":1,
						"path":"translation"
					}
				},
				{
					"sampler":7,
					"target":{
						"node":1,
						"path":"rotation"
					}
				},
				{
					"sampler":8,
					"target":{
						"node":1,
						"path":"scale"
					}
				}
			],
			"name":"Open.001",
			"samplers":[
				{
					"input":13,
					"interpolation":"STEP",
					"output":42
				},
				{
					"input":13,
					"interpolation":"STEP",
					"output":43
				},
				{
					"input":13,
					"interpolation":"STEP",
					"output":44
				},
				{
					"input":17,
					"interpolation":"LINEAR",
					"output":45
				},
				{
					"input":13,
					"interpolation":"STEP",
					"output":46
				},
				{
					"input":13,
					"interpolation":"STEP",
					"output":47
				},
				{
					"input":17,
					"interpolation":"LINEAR",
					"output":48
				},
				{
					"input":13,
					"interpolation":"STEP",
					"output":49
				},
				{
					"input":13,
					"interpolation":"STEP",
					"output":50
				}
			]
		},
		{
			"channels":[
				{
					"sampler":0,
					"target":{
						"node":2,
						"path":"translation"
					}
				},
				{
					"sampler":1,
					"target":{
						"node":2,
						"path":"rotation"
					}
				},
				{
					"sampler":2,
					"target":{
						"node":2,
						"path":"scale"
					}
				},
				{
					"sampler":3,
					"target":{
						"node":0,
						"path":"translation"
					}
				},
				{
					"sampler":4,
					"target":{
						"node":0,
						"path":"rotation"
					}
				},
				{
					"sampler":5,
					"target":{
						"node":0,
						"path":"scale"
					}
				},
				{
					"sampler":6,
					"target":{
						"node":1,
						"path":"translation"
					}
				},
				{
					"sampler":7,
					"target":{
						"node":1,
						"path":"rotation"
					}
				},
				{
					"sampler":8,
					"target":{
						"node":1,
						"path":"scale"
					}
				}
			],
			"name":"SneakWalk",
			"samplers":[
				{
					"input":51,
					"interpolation":"STEP",
					"output":52
				},
				{
					"input":51,
					"interpolation":"STEP",
					"output":53
				},
				{
					"input":51,
					"interpolation":"STEP",
					"output":54
				},
				{
					"input":51,
					"interpolation":"STEP",
					"output":55
				},
				{
					"input":51,
					"interpolation":"STEP",
					"output":56
				},
				{
					"input":51,
					"interpolation":"STEP",
					"output":57
				},
				{
					"input":51,
					"interpolation":"STEP",
					"output":58
				},
				{
					"input":51,
					"interpolation":"STEP",
					"output":59
				},
				{
					"input":51,
					"interpolation":"STEP",
					"output":60
				}
			]
		},
		{
			"channels":[
				{
					"sampler":0,
					"target":{
						"node":2,
						"path":"translation"
					}
				},
				{
					"sampler":1,
					"target":{
						"node":2,
						"path":"rotation"
					}
				},
				{
					"sampler":2,
					"target":{
						"node":2,
						"path":"scale"
					}
				},
				{
					"sampler":3,
					"target":{
						"node":0,
						"path":"translation"
					}
				},
				{
					"sampler":4,
					"target":{
						"node":0,
						"path":"rotation"
					}
				},
				{
					"sampler":5,
					"target":{
						"node":0,
						"path":"scale"
					}
				},
				{
					"sampler":6,
					"target":{
						"node":1,
						"path":"translation"
					}
				},
				{
					"sampler":7,
					"target":{
						"node":1,
						"path":"rotation"
					}
				},
				{
					"sampler":8,
					"target":{
						"node":1,
						"path":"scale"
					}
				}
			],
			"name":"Walk",
			"samplers":[
				{
					"input":51,
					"interpolation":"STEP",
					"output":61
				},
				{
					"input":51,
					"interpolation":"STEP",
					"output":62
				},
				{
					"input":51,
					"interpolation":"STEP",
					"output":63
				},
				{
					"input":51,
					"interpolation":"STEP",
					"output":64
				},
				{
					"input":51,
					"interpolation":"STEP",
					"output":65
				},
				{
					"input":51,
					"interpolation":"STEP",
					"output":66
				},
				{
					"input":51,
					"interpolation":"STEP",
					"output":67
				},
				{
					"input":51,
					"interpolation":"STEP",
					"output":68
				},
				{
					"input":51,
					"interpolation":"STEP",
					"output":69
				}
			]
		}
	],
	"materials":[
		{
			"doubleSided":true,
			"name":"\u30de\u30c6\u30ea\u30a2\u30eb",
			"pbrMetallicRoughness":{
				"baseColorTexture":{
					"index":0
				},
				"metallicFactor":0,
				"roughnessFactor":0.5
			}
		},
		{
			"doubleSided":true,
			"name":"\u30de\u30c6\u30ea\u30a2\u30eb.001",
			"pbrMetallicRoughness":{
				"baseColorTexture":{
					"index":1
				},
				"metallicFactor":0,
				"roughnessFactor":0.5
			}
		}
	],
	"meshes":[
		{
			"name":"Cube",
			"primitives":[
				{
					"attributes":{
						"POSITION":0,
						"NORMAL":1,
						"TEXCOORD_0":2,
						"TEXCOORD_1":3,
						"JOINTS_0":4,
						"WEIGHTS_0":5
					},
					"indices":6,
					"material":0
				}
			]
		},
		{
			"name":"Cube.002",
			"primitives":[
				{
					"attributes":{
						"POSITION":8,
						"NORMAL":9,
						"TEXCOORD_0":10,
						"TEXCOORD_1":11
					},
					"indices":12,
					"material":1
				}
			]
		}
	],
	"textures":[
		{
			"sampler":0,
			"source":0
		},
		{
			"sampler":0,
			"source":0
		}
	],
	"images":[
		{
			"mimeType":"image/png",
			"name":"Elevator",
			"uri":"Elevator.png"
		}
	],
	"skins":[
		{
			"inverseBindMatrices":7,
			"joints":[
				2,
				0,
				1
			],
			"name":"\u30a2\u30fc\u30de\u30c1\u30e5\u30a2"
		}
	],
	"accessors":[
		{
			"bufferView":0,
			"componentType":5126,
			"count":197,
			"max":[
				1.8388627767562866,
				1.0005662441253662,
				2.275871753692627
			],
			"min":[
				-1.8387153148651123,
				-2.4326744079589844,
				-2.700038433074951
			],
			"type":"VEC3"
		},
		{
			"bufferView":1,
			"componentType":5126,
			"count":197,
			"type":"VEC3"
		},
		{
			"bufferView":2,
			"componentType":5126,
			"count":197,
			"type":"VEC2"
		},
		{
			"bufferView":3,
			"componentType":5126,
			"count":197,
			"type":"VEC2"
		},
		{
			"bufferView":4,
			"componentType":5121,
			"count":197,
			"type":"VEC4"
		},
		{
			"bufferView":5,
			"componentType":5126,
			"count":197,
			"type":"VEC4"
		},
		{
			"bufferView":6,
			"componentType":5123,
			"count":354,
			"type":"SCALAR"
		},
		{
			"bufferView":7,
			"componentType":5126,
			"count":3,
			"type":"MAT4"
		},
		{
			"bufferView":8,
			"componentType":5126,
			"count":188,
			"max":[
				1.8388627767562866,
				1.0005662441253662,
				2.275871753692627
			],
			"min":[
				-1.8387153148651123,
				-2.4326744079589844,
				-2.700038433074951
			],
			"type":"VEC3"
		},
		{
			"bufferView":9,
			"componentType":5126,
			"count":188,
			"type":"VEC3"
		},
		{
			"bufferView":10,
			"componentType":5126,
			"count":188,
			"type":"VEC2"
		},
		{
			"bufferView":11,
			"componentType":5126,
			"count":188,
			"type":"VEC2"
		},
		{
			"bufferView":12,
			"componentType":5123,
			"count":354,
			"type":"SCALAR"
		},
		{
			"bufferView":13,
			"componentType":5126,
			"count":2,
			"max":[
				1.6666666666666667
			],
			"min":[
				0.041666666666666664
			],
			"type":"SCALAR"
		},
		{
			"bufferView":14,
			"componentType":5126,
			"count":2,
			"type":"VEC3"
		},
		{
			"bufferView":15,
			"componentType":5126,
			"count":2,
			"type":"VEC4"
		},
		{
			"bufferView":16,
			"componentType":5126,
			"count":2,
			"type":"VEC3"
		},
		{
			"bufferView":17,
			"componentType":5126,
			"count":40,
			"max":[
				1.6666666666666667
			],
			"min":[
				0.041666666666666664
			],
			"type":"SCALAR"
		},
		{
			"bufferView":18,
			"componentType":5126,
			"count":40,
			"type":"VEC3"
		},
		{
			"bufferView":19,
			"componentType":5126,
			"count":2,
			"type":"VEC4"
		},
		{
			"bufferView":20,
			"componentType":5126,
			"count":2,
			"type":"VEC3"
		},
		{
			"bufferView":21,
			"componentType":5126,
			"count":40,
			"type":"VEC3"
		},
		{
			"bufferView":22,
			"componentType":5126,
			"count":2,
			"type":"VEC4"
		},
		{
			"bufferView":23,
			"componentType":5126,
			"count":2,
			"type":"VEC3"
		},
		{
			"bufferView":24,
			"componentType":5126,
			"count":2,
			"type":"VEC3"
		},
		{
			"bufferView":25,
			"componentType":5126,
			"count":2,
			"type":"VEC4"
		},
		{
			"bufferView":26,
			"componentType":5126,
			"count":2,
			"type":"VEC3"
		},
		{
			"bufferView":27,
			"componentType":5126,
			"count":40,
			"type":"VEC3"
		},
		{
			"bufferView":28,
			"componentType":5126,
			"count":2,
			"type":"VEC4"
		},
		{
			"bufferView":29,
			"componentType":5126,
			"count":2,
			"type":"VEC3"
		},
		{
			"bufferView":30,
			"componentType":5126,
			"count":40,
			"type":"VEC3"
		},
		{
			"bufferView":31,
			"componentType":5126,
			"count":2,
			"type":"VEC4"
		},
		{
			"bufferView":32,
			"componentType":5126,
			"count":2,
			"type":"VEC3"
		},
		{
			"bufferView":33,
			"componentType":5126,
			"count":2,
			"type":"VEC3"
		},
		{
			"bufferView":34,
			"componentType":5126,
			"count":2,
			"type":"VEC4"
		},
		{
			"bufferView":35,
			"componentType":5126,
			"count":2,
			"type":"VEC3"
		},
		{
			"bufferView":36,
			"componentType":5126,
			"count":40,
			"type":"VEC3"
		},
		{
			"bufferView":37,
			"componentType":5126,
			"count":2,
			"type":"VEC4"
		},
		{
			"bufferView":38,
			"componentType":5126,
			"count":2,
			"type":"VEC3"
		},
		{
			"bufferView":39,
			"componentType":5126,
			"count":40,
			"type":"VEC3"
		},
		{
			"bufferView":40,
			"componentType":5126,
			"count":2,
			"type":"VEC4"
		},
		{
			"bufferView":41,
			"componentType":5126,
			"count":2,
			"type":"VEC3"
		},
		{
			"bufferView":42,
			"componentType":5126,
			"count":2,
			"type":"VEC3"
		},
		{
			"bufferView":43,
			"componentType":5126,
			"count":2,
			"type":"VEC4"
		},
		{
			"bufferView":44,
			"componentType":5126,
			"count":2,
			"type":"VEC3"
		},
		{
			"bufferView":45,
			"componentType":5126,
			"count":40,
			"type":"VEC3"
		},
		{
			"bufferView":46,
			"componentType":5126,
			"count":2,
			"type":"VEC4"
		},
		{
			"bufferView":47,
			"componentType":5126,
			"count":2,
			"type":"VEC3"
		},
		{
			"bufferView":48,
			"componentType":5126,
			"count":40,
			"type":"VEC3"
		},
		{
			"bufferView":49,
			"componentType":5126,
			"count":2,
			"type":"VEC4"
		},
		{
			"bufferView":50,
			"componentType":5126,
			"count":2,
			"type":"VEC3"
		},
		{
			"bufferView":51,
			"componentType":5126,
			"count":2,
			"max":[
				2.5416666666666665
			],
			"min":[
				0.041666666666666664
			],
			"type":"SCALAR"
		},
		{
			"bufferView":52,
			"componentType":5126,
			"count":2,
			"type":"VEC3"
		},
		{
			"bufferView":53,
			"componentType":5126,
			"count":2,
			"type":"VEC4"
		},
		{
			"bufferView":54,
			"componentType":5126,
			"count":2,
			"type":"VEC3"
		},
		{
			"bufferView":55,
			"componentType":5126,
			"count":2,
			"type":"VEC3"
		},
		{
			"bufferView":56,
			"componentType":5126,
			"count":2,
			"type":"VEC4"
		},
		{
			"bufferView":57,
			"componentType":5126,
			"count":2,
			"type":"VEC3"
		},
		{
			"bufferView":58,
			"componentType":5126,
			"count":2,
			"type":"VEC3"
		},
		{
			"bufferView":59,
			"componentType":5126,
			"count":2,
			"type":"VEC4"
		},
		{
			"bufferView":60,
			"componentType":5126,
			"count":2,
			"type":"VEC3"
		},
		{
			"bufferView":61,
			"componentType":5126,
			"count":2,
			"type":"VEC3"
		},
		{
			"bufferView":62,
			"componentType":5126,
			"count":2,
			"type":"VEC4"
		},
		{
			"bufferView":63,
			"componentType":5126,
			"count":2,
			"type":"VEC3"
		},
		{
			"bufferView":64,
			"componentType":5126,
			"count":2,
			"type":"VEC3"
		},
		{
			"bufferView":65,
			"componentType":5126,
			"count":2,
			"type":"VEC4"
		},
		{
			"bufferView":66,
			"componentType":5126,
			"count":2,
			"type":"VEC3"
		},
		{
			"bufferView":67,
			"componentType":5126,
			"count":2,
			"type":"VEC3"
		},
		{
			"bufferView":68,
			"componentType":5126,
			"count":2,
			"type":"VEC4"
		},
		{
			"bufferView":69,
			"componentType":5126,
			"count":2,
			"type":"VEC3"
		}
	],
	"bufferViews":[
		{
			"buffer":0,
			"byteLength":2364,
			"byteOffset":0,
			"target":34962
		},
		{
			"buffer":0,
			"byteLength":2364,
			"byteOffset":2364,
			"target":34962
		},
		{
			"buffer":0,
			"byteLength":1576,
			"byteOffset":4728,
			"target":34962
		},
		{
			"buffer":0,
			"byteLength":1576,
			"byteOffset":6304,
			"target":34962
		},
		{
			"buffer":0,
			"byteLength":788,
			"byteOffset":7880,
			"target":34962
		},
		{
			"buffer":0,
			"byteLength":3152,
			"byteOffset":8668,
			"target":34962
		},
		{
			"buffer":0,
			"byteLength":708,
			"byteOffset":11820,
			"target":34963
		},
		{
			"buffer":0,
			"byteLength":192,
			"byteOffset":12528
		},
		{
			"buffer":0,
			"byteLength":2256,
			"byteOffset":12720,
			"target":34962
		},
		{
			"buffer":0,
			"byteLength":2256,
			"byteOffset":14976,
			"target":34962
		},
		{
			"buffer":0,
			"byteLength":1504,
			"byteOffset":17232,
			"target":34962
		},
		{
			"buffer":0,
			"byteLength":1504,
			"byteOffset":18736,
			"target":34962
		},
		{
			"buffer":0,
			"byteLength":708,
			"byteOffset":20240,
			"target":34963
		},
		{
			"buffer":0,
			"byteLength":8,
			"byteOffset":20948
		},
		{
			"buffer":0,
			"byteLength":24,
			"byteOffset":20956
		},
		{
			"buffer":0,
			"byteLength":32,
			"byteOffset":20980
		},
		{
			"buffer":0,
			"byteLength":24,
			"byteOffset":21012
		},
		{
			"buffer":0,
			"byteLength":160,
			"byteOffset":21036
		},
		{
			"buffer":0,
			"byteLength":480,
			"byteOffset":21196
		},
		{
			"buffer":0,
			"byteLength":32,
			"byteOffset":21676
		},
		{
			"buffer":0,
			"byteLength":24,
			"byteOffset":21708
		},
		{
			"buffer":0,
			"byteLength":480,
			"byteOffset":21732
		},
		{
			"buffer":0,
			"byteLength":32,
			"byteOffset":22212
		},
		{
			"buffer":0,
			"byteLength":24,
			"byteOffset":22244
		},
		{
			"buffer":0,
			"byteLength":24,
			"byteOffset":22268
		},
		{
			"buffer":0,
			"byteLength":32,
			"byteOffset":22292
		},
		{
			"buffer":0,
			"byteLength":24,
			"byteOffset":22324
		},
		{
			"buffer":0,
			"byteLength":480,
			"byteOffset":22348
		},
		{
			"buffer":0,
			"byteLength":32,
			"byteOffset":22828
		},
		{
			"buffer":0,
			"byteLength":24,
			"byteOffset":22860
		},
		{
			"buffer":0,
			"byteLength":480,
			"byteOffset":22884
		},
		{
			"buffer":0,
			"byteLength":32,
			"byteOffset":23364
		},
		{
			"buffer":0,
			"byteLength":24,
			"byteOffset":23396
		},
		{
			"buffer":0,
			"byteLength":24,
			"byteOffset":23420
		},
		{
			"buffer":0,
			"byteLength":32,
			"byteOffset":23444
		},
		{
			"buffer":0,
			"byteLength":24,
			"byteOffset":23476
		},
		{
			"buffer":0,
			"byteLength":480,
			"byteOffset":23500
		},
		{
			"buffer":0,
			"byteLength":32,
			"byteOffset":23980
		},
		{
			"buffer":0,
			"byteLength":24,
			"byteOffset":24012
		},
		{
			"buffer":0,
			"byteLength":480,
			"byteOffset":24036
		},
		{
			"buffer":0,
			"byteLength":32,
			"byteOffset":24516
		},
		{
			"buffer":0,
			"byteLength":24,
			"byteOffset":24548
		},
		{
			"buffer":0,
			"byteLength":24,
			"byteOffset":24572
		},
		{
			"buffer":0,
			"byteLength":32,
			"byteOffset":24596
		},
		{
			"buffer":0,
			"byteLength":24,
			"byteOffset":24628
		},
		{
			"buffer":0,
			"byteLength":480,
			"byteOffset":24652
		},
		{
			"buffer":0,
			"byteLength":32,
			"byteOffset":25132
		},
		{
			"buffer":0,
			"byteLength":24,
			"byteOffset":25164
		},
		{
			"buffer":0,
			"byteLength":480,
			"byteOffset":25188
		},
		{
			"buffer":0,
			"byteLength":32,
			"byteOffset":25668
		},
		{
			"buffer":0,
			"byteLength":24,
			"byteOffset":25700
		},
		{
			"buffer":0,
			"byteLength":8,
			"byteOffset":25724
		},
		{
			"buffer":0,
			"byteLength":24,
			"byteOffset":25732
		},
		{
			"buffer":0,
			"byteLength":32,
			"byteOffset":25756
		},
		{
			"buffer":0,
			"byteLength":24,
			"byteOffset":25788
		},
		{
			"buffer":0,
			"byteLength":24,
			"byteOffset":25812
		},
		{
			"buffer":0,
			"byteLength":32,
			"byteOffset":25836
		},
		{
			"buffer":0,
			"byteLength":24,
			"byteOffset":25868
		},
		{
			"buffer":0,
			"byteLength":24,
			"byteOffset":25892
		},
		{
			"buffer":0,
			"byteLength":32,
			"byteOffset":25916
		},
		{
			"buffer":0,
			"byteLength":24,
			"byteOffset":25948
		},
		{
			"buffer":0,
			"byteLength":24,
			"byteOffset":25972
		},
		{
			"buffer":0,
			"byteLength":32,
			"byteOffset":25996
		},
		{
			"buffer":0,
			"byteLength":24,
			"byteOffset":26028
		},
		{
			"buffer":0,
			"byteLength":24,
			"byteOffset":26052
		},
		{
			"buffer":0,
			"byteLength":32,
			"byteOffset":26076
		},
		{
			"buffer":0,
			"byteLength":24,
			"byteOffset":26108
		},
		{
			"buffer":0,
			"byteLength":24,
			"byteOffset":26132
		},
		{
			"buffer":0,
			"byteLength":32,
			"byteOffset":26156
		},
		{
			"buffer":0,
			"byteLength":24,
			"byteOffset":26188
		}
	],
	"samplers":[
		{
			"magFilter":9729,
			"minFilter":9987
		}
	],
	"buffers":[
		{
			"byteLength":26212,
			"uri":"Elevator.bin"
		}
	]
}
