{
	"asset":{
		"generator":"Khronos glTF Blender I/O v4.4.56",
		"version":"2.0"
	},
	"scene":0,
	"scenes":[
		{
			"name":"Scene",
			"nodes":[
				5
			]
		}
	],
	"nodes":[
		{
			"name":"\u30dc\u30fc\u30f3.002",
			"rotation":[
				-0.4977429509162903,
				0.5022470355033875,
				0.4977428615093231,
				0.5022469162940979
			],
			"scale":[
				0.9999999403953552,
				0.9999998211860657,
				0.9999999403953552
			],
			"translation":[
				-0.4795440435409546,
				1.1262842416763306,
				-2.5999999046325684
			]
		},
		{
			"name":"\u30dc\u30fc\u30f3.004",
			"rotation":[
				-0.49774369597435,
				-0.5022477507591248,
				-0.4977421760559082,
				0.5022462606430054
			],
			"scale":[
				0.9999999403953552,
				0.9999998211860657,
				0.9999999403953552
			],
			"translation":[
				0.4795440435409546,
				1.1262842416763306,
				-2.5999999046325684
			]
		},
		{
			"name":"\u30dc\u30fc\u30f3.003",
			"rotation":[
				-0.7071067690849304,
				0,
				0,
				0.7071067690849304
			],
			"translation":[
				0,
				0,
				2.228358745574951
			]
		},
		{
			"children":[
				0,
				1,
				2
			],
			"name":"\u30dc\u30fc\u30f3",
			"translation":[
				0,
				-2.528036594390869,
				0
			]
		},
		{
			"mesh":0,
			"name":"Cube",
			"skin":0
		},
		{
			"children":[
				4,
				3
			],
			"name":"\u30a2\u30fc\u30de\u30c1\u30e5\u30a2",
			"translation":[
				0,
				2.4000000953674316,
				0
			]
		}
	],
	"animations":[
		{
			"channels":[
				{
					"sampler":0,
					"target":{
						"node":3,
						"path":"translation"
					}
				},
				{
					"sampler":1,
					"target":{
						"node":3,
						"path":"rotation"
					}
				},
				{
					"sampler":2,
					"target":{
						"node":3,
						"path":"scale"
					}
				},
				{
					"sampler":3,
					"target":{
						"node":0,
						"path":"translation"
					}
				},
				{
					"sampler":4,
					"target":{
						"node":0,
						"path":"rotation"
					}
				},
				{
					"sampler":5,
					"target":{
						"node":0,
						"path":"scale"
					}
				},
				{
					"sampler":6,
					"target":{
						"node":1,
						"path":"translation"
					}
				},
				{
					"sampler":7,
					"target":{
						"node":1,
						"path":"rotation"
					}
				},
				{
					"sampler":8,
					"target":{
						"node":1,
						"path":"scale"
					}
				},
				{
					"sampler":9,
					"target":{
						"node":2,
						"path":"translation"
					}
				},
				{
					"sampler":10,
					"target":{
						"node":2,
						"path":"rotation"
					}
				},
				{
					"sampler":11,
					"target":{
						"node":2,
						"path":"scale"
					}
				}
			],
			"name":"Close",
			"samplers":[
				{
					"input":8,
					"interpolation":"STEP",
					"output":9
				},
				{
					"input":8,
					"interpolation":"STEP",
					"output":10
				},
				{
					"input":8,
					"interpolation":"STEP",
					"output":11
				},
				{
					"input":12,
					"interpolation":"LINEAR",
					"output":13
				},
				{
					"input":8,
					"interpolation":"STEP",
					"output":14
				},
				{
					"input":8,
					"interpolation":"STEP",
					"output":15
				},
				{
					"input":12,
					"interpolation":"LINEAR",
					"output":16
				},
				{
					"input":8,
					"interpolation":"STEP",
					"output":17
				},
				{
					"input":8,
					"interpolation":"STEP",
					"output":18
				},
				{
					"input":8,
					"interpolation":"STEP",
					"output":19
				},
				{
					"input":8,
					"interpolation":"STEP",
					"output":20
				},
				{
					"input":8,
					"interpolation":"STEP",
					"output":21
				}
			]
		},
		{
			"channels":[
				{
					"sampler":0,
					"target":{
						"node":3,
						"path":"translation"
					}
				},
				{
					"sampler":1,
					"target":{
						"node":3,
						"path":"rotation"
					}
				},
				{
					"sampler":2,
					"target":{
						"node":3,
						"path":"scale"
					}
				},
				{
					"sampler":3,
					"target":{
						"node":0,
						"path":"translation"
					}
				},
				{
					"sampler":4,
					"target":{
						"node":0,
						"path":"rotation"
					}
				},
				{
					"sampler":5,
					"target":{
						"node":0,
						"path":"scale"
					}
				},
				{
					"sampler":6,
					"target":{
						"node":1,
						"path":"translation"
					}
				},
				{
					"sampler":7,
					"target":{
						"node":1,
						"path":"rotation"
					}
				},
				{
					"sampler":8,
					"target":{
						"node":1,
						"path":"scale"
					}
				},
				{
					"sampler":9,
					"target":{
						"node":2,
						"path":"translation"
					}
				},
				{
					"sampler":10,
					"target":{
						"node":2,
						"path":"rotation"
					}
				},
				{
					"sampler":11,
					"target":{
						"node":2,
						"path":"scale"
					}
				}
			],
			"name":"Fall",
			"samplers":[
				{
					"input":22,
					"interpolation":"STEP",
					"output":23
				},
				{
					"input":22,
					"interpolation":"STEP",
					"output":24
				},
				{
					"input":22,
					"interpolation":"STEP",
					"output":25
				},
				{
					"input":22,
					"interpolation":"STEP",
					"output":26
				},
				{
					"input":22,
					"interpolation":"STEP",
					"output":27
				},
				{
					"input":22,
					"interpolation":"STEP",
					"output":28
				},
				{
					"input":22,
					"interpolation":"STEP",
					"output":29
				},
				{
					"input":22,
					"interpolation":"STEP",
					"output":30
				},
				{
					"input":22,
					"interpolation":"STEP",
					"output":31
				},
				{
					"input":22,
					"interpolation":"STEP",
					"output":32
				},
				{
					"input":33,
					"interpolation":"LINEAR",
					"output":34
				},
				{
					"input":22,
					"interpolation":"STEP",
					"output":35
				}
			]
		},
		{
			"channels":[
				{
					"sampler":0,
					"target":{
						"node":3,
						"path":"translation"
					}
				},
				{
					"sampler":1,
					"target":{
						"node":3,
						"path":"rotation"
					}
				},
				{
					"sampler":2,
					"target":{
						"node":3,
						"path":"scale"
					}
				},
				{
					"sampler":3,
					"target":{
						"node":0,
						"path":"translation"
					}
				},
				{
					"sampler":4,
					"target":{
						"node":0,
						"path":"rotation"
					}
				},
				{
					"sampler":5,
					"target":{
						"node":0,
						"path":"scale"
					}
				},
				{
					"sampler":6,
					"target":{
						"node":1,
						"path":"translation"
					}
				},
				{
					"sampler":7,
					"target":{
						"node":1,
						"path":"rotation"
					}
				},
				{
					"sampler":8,
					"target":{
						"node":1,
						"path":"scale"
					}
				},
				{
					"sampler":9,
					"target":{
						"node":2,
						"path":"translation"
					}
				},
				{
					"sampler":10,
					"target":{
						"node":2,
						"path":"rotation"
					}
				},
				{
					"sampler":11,
					"target":{
						"node":2,
						"path":"scale"
					}
				}
			],
			"name":"Fall.001",
			"samplers":[
				{
					"input":22,
					"interpolation":"STEP",
					"output":36
				},
				{
					"input":22,
					"interpolation":"STEP",
					"output":37
				},
				{
					"input":22,
					"interpolation":"STEP",
					"output":38
				},
				{
					"input":22,
					"interpolation":"STEP",
					"output":39
				},
				{
					"input":22,
					"interpolation":"STEP",
					"output":40
				},
				{
					"input":22,
					"interpolation":"STEP",
					"output":41
				},
				{
					"input":22,
					"interpolation":"STEP",
					"output":42
				},
				{
					"input":22,
					"interpolation":"STEP",
					"output":43
				},
				{
					"input":22,
					"interpolation":"STEP",
					"output":44
				},
				{
					"input":22,
					"interpolation":"STEP",
					"output":45
				},
				{
					"input":33,
					"interpolation":"LINEAR",
					"output":46
				},
				{
					"input":22,
					"interpolation":"STEP",
					"output":47
				}
			]
		},
		{
			"channels":[
				{
					"sampler":0,
					"target":{
						"node":3,
						"path":"translation"
					}
				},
				{
					"sampler":1,
					"target":{
						"node":3,
						"path":"rotation"
					}
				},
				{
					"sampler":2,
					"target":{
						"node":3,
						"path":"scale"
					}
				},
				{
					"sampler":3,
					"target":{
						"node":0,
						"path":"translation"
					}
				},
				{
					"sampler":4,
					"target":{
						"node":0,
						"path":"rotation"
					}
				},
				{
					"sampler":5,
					"target":{
						"node":0,
						"path":"scale"
					}
				},
				{
					"sampler":6,
					"target":{
						"node":1,
						"path":"translation"
					}
				},
				{
					"sampler":7,
					"target":{
						"node":1,
						"path":"rotation"
					}
				},
				{
					"sampler":8,
					"target":{
						"node":1,
						"path":"scale"
					}
				},
				{
					"sampler":9,
					"target":{
						"node":2,
						"path":"translation"
					}
				},
				{
					"sampler":10,
					"target":{
						"node":2,
						"path":"rotation"
					}
				},
				{
					"sampler":11,
					"target":{
						"node":2,
						"path":"scale"
					}
				},
				{
					"sampler":0,
					"target":{
						"node":3,
						"path":"translation"
					}
				},
				{
					"sampler":1,
					"target":{
						"node":3,
						"path":"rotation"
					}
				},
				{
					"sampler":2,
					"target":{
						"node":3,
						"path":"scale"
					}
				},
				{
					"sampler":3,
					"target":{
						"node":0,
						"path":"translation"
					}
				},
				{
					"sampler":4,
					"target":{
						"node":0,
						"path":"rotation"
					}
				},
				{
					"sampler":5,
					"target":{
						"node":0,
						"path":"scale"
					}
				},
				{
					"sampler":6,
					"target":{
						"node":1,
						"path":"translation"
					}
				},
				{
					"sampler":7,
					"target":{
						"node":1,
						"path":"rotation"
					}
				},
				{
					"sampler":8,
					"target":{
						"node":1,
						"path":"scale"
					}
				},
				{
					"sampler":9,
					"target":{
						"node":2,
						"path":"translation"
					}
				},
				{
					"sampler":10,
					"target":{
						"node":2,
						"path":"rotation"
					}
				},
				{
					"sampler":11,
					"target":{
						"node":2,
						"path":"scale"
					}
				}
			],
			"name":"Open",
			"samplers":[
				{
					"input":8,
					"interpolation":"STEP",
					"output":48
				},
				{
					"input":8,
					"interpolation":"STEP",
					"output":49
				},
				{
					"input":8,
					"interpolation":"STEP",
					"output":50
				},
				{
					"input":12,
					"interpolation":"LINEAR",
					"output":51
				},
				{
					"input":8,
					"interpolation":"STEP",
					"output":52
				},
				{
					"input":8,
					"interpolation":"STEP",
					"output":53
				},
				{
					"input":12,
					"interpolation":"LINEAR",
					"output":54
				},
				{
					"input":8,
					"interpolation":"STEP",
					"output":55
				},
				{
					"input":8,
					"interpolation":"STEP",
					"output":56
				},
				{
					"input":8,
					"interpolation":"STEP",
					"output":57
				},
				{
					"input":8,
					"interpolation":"STEP",
					"output":58
				},
				{
					"input":8,
					"interpolation":"STEP",
					"output":59
				}
			]
		}
	],
	"materials":[
		{
			"doubleSided":true,
			"name":"Material.001",
			"pbrMetallicRoughness":{
				"baseColorTexture":{
					"index":0
				},
				"metallicFactor":0,
				"roughnessFactor":0.5
			}
		}
	],
	"meshes":[
		{
			"name":"Cube",
			"primitives":[
				{
					"attributes":{
						"POSITION":0,
						"NORMAL":1,
						"TEXCOORD_0":2,
						"TEXCOORD_1":3,
						"JOINTS_0":4,
						"WEIGHTS_0":5
					},
					"indices":6,
					"material":0
				}
			]
		}
	],
	"textures":[
		{
			"sampler":0,
			"source":0
		}
	],
	"images":[
		{
			"mimeType":"image/png",
			"name":"Elevator",
			"uri":"Elevator.png"
		}
	],
	"skins":[
		{
			"inverseBindMatrices":7,
			"joints":[
				3,
				0,
				1,
				2
			],
			"name":"\u30a2\u30fc\u30de\u30c1\u30e5\u30a2"
		}
	],
	"accessors":[
		{
			"bufferView":0,
			"componentType":5126,
			"count":221,
			"max":[
				1.8388627767562866,
				3.400566339492798,
				2.275871753692627
			],
			"min":[
				-1.8387153148651123,
				-0.16875267028808594,
				-2.700038433074951
			],
			"type":"VEC3"
		},
		{
			"bufferView":1,
			"componentType":5126,
			"count":221,
			"type":"VEC3"
		},
		{
			"bufferView":2,
			"componentType":5126,
			"count":221,
			"type":"VEC2"
		},
		{
			"bufferView":3,
			"componentType":5126,
			"count":221,
			"type":"VEC2"
		},
		{
			"bufferView":4,
			"componentType":5121,
			"count":221,
			"type":"VEC4"
		},
		{
			"bufferView":5,
			"componentType":5126,
			"count":221,
			"type":"VEC4"
		},
		{
			"bufferView":6,
			"componentType":5123,
			"count":390,
			"type":"SCALAR"
		},
		{
			"bufferView":7,
			"componentType":5126,
			"count":4,
			"type":"MAT4"
		},
		{
			"bufferView":8,
			"componentType":5126,
			"count":2,
			"max":[
				1.6666666666666667
			],
			"min":[
				0.041666666666666664
			],
			"type":"SCALAR"
		},
		{
			"bufferView":9,
			"componentType":5126,
			"count":2,
			"type":"VEC3"
		},
		{
			"bufferView":10,
			"componentType":5126,
			"count":2,
			"type":"VEC4"
		},
		{
			"bufferView":11,
			"componentType":5126,
			"count":2,
			"type":"VEC3"
		},
		{
			"bufferView":12,
			"componentType":5126,
			"count":40,
			"max":[
				1.6666666666666667
			],
			"min":[
				0.041666666666666664
			],
			"type":"SCALAR"
		},
		{
			"bufferView":13,
			"componentType":5126,
			"count":40,
			"type":"VEC3"
		},
		{
			"bufferView":14,
			"componentType":5126,
			"count":2,
			"type":"VEC4"
		},
		{
			"bufferView":15,
			"componentType":5126,
			"count":2,
			"type":"VEC3"
		},
		{
			"bufferView":16,
			"componentType":5126,
			"count":40,
			"type":"VEC3"
		},
		{
			"bufferView":17,
			"componentType":5126,
			"count":2,
			"type":"VEC4"
		},
		{
			"bufferView":18,
			"componentType":5126,
			"count":2,
			"type":"VEC3"
		},
		{
			"bufferView":19,
			"componentType":5126,
			"count":2,
			"type":"VEC3"
		},
		{
			"bufferView":20,
			"componentType":5126,
			"count":2,
			"type":"VEC4"
		},
		{
			"bufferView":21,
			"componentType":5126,
			"count":2,
			"type":"VEC3"
		},
		{
			"bufferView":22,
			"componentType":5126,
			"count":2,
			"max":[
				0.4166666666666667
			],
			"min":[
				0.041666666666666664
			],
			"type":"SCALAR"
		},
		{
			"bufferView":23,
			"componentType":5126,
			"count":2,
			"type":"VEC3"
		},
		{
			"bufferView":24,
			"componentType":5126,
			"count":2,
			"type":"VEC4"
		},
		{
			"bufferView":25,
			"componentType":5126,
			"count":2,
			"type":"VEC3"
		},
		{
			"bufferView":26,
			"componentType":5126,
			"count":2,
			"type":"VEC3"
		},
		{
			"bufferView":27,
			"componentType":5126,
			"count":2,
			"type":"VEC4"
		},
		{
			"bufferView":28,
			"componentType":5126,
			"count":2,
			"type":"VEC3"
		},
		{
			"bufferView":29,
			"componentType":5126,
			"count":2,
			"type":"VEC3"
		},
		{
			"bufferView":30,
			"componentType":5126,
			"count":2,
			"type":"VEC4"
		},
		{
			"bufferView":31,
			"componentType":5126,
			"count":2,
			"type":"VEC3"
		},
		{
			"bufferView":32,
			"componentType":5126,
			"count":2,
			"type":"VEC3"
		},
		{
			"bufferView":33,
			"componentType":5126,
			"count":10,
			"max":[
				0.4166666666666667
			],
			"min":[
				0.041666666666666664
			],
			"type":"SCALAR"
		},
		{
			"bufferView":34,
			"componentType":5126,
			"count":10,
			"type":"VEC4"
		},
		{
			"bufferView":35,
			"componentType":5126,
			"count":2,
			"type":"VEC3"
		},
		{
			"bufferView":36,
			"componentType":5126,
			"count":2,
			"type":"VEC3"
		},
		{
			"bufferView":37,
			"componentType":5126,
			"count":2,
			"type":"VEC4"
		},
		{
			"bufferView":38,
			"componentType":5126,
			"count":2,
			"type":"VEC3"
		},
		{
			"bufferView":39,
			"componentType":5126,
			"count":2,
			"type":"VEC3"
		},
		{
			"bufferView":40,
			"componentType":5126,
			"count":2,
			"type":"VEC4"
		},
		{
			"bufferView":41,
			"componentType":5126,
			"count":2,
			"type":"VEC3"
		},
		{
			"bufferView":42,
			"componentType":5126,
			"count":2,
			"type":"VEC3"
		},
		{
			"bufferView":43,
			"componentType":5126,
			"count":2,
			"type":"VEC4"
		},
		{
			"bufferView":44,
			"componentType":5126,
			"count":2,
			"type":"VEC3"
		},
		{
			"bufferView":45,
			"componentType":5126,
			"count":2,
			"type":"VEC3"
		},
		{
			"bufferView":46,
			"componentType":5126,
			"count":10,
			"type":"VEC4"
		},
		{
			"bufferView":47,
			"componentType":5126,
			"count":2,
			"type":"VEC3"
		},
		{
			"bufferView":48,
			"componentType":5126,
			"count":2,
			"type":"VEC3"
		},
		{
			"bufferView":49,
			"componentType":5126,
			"count":2,
			"type":"VEC4"
		},
		{
			"bufferView":50,
			"componentType":5126,
			"count":2,
			"type":"VEC3"
		},
		{
			"bufferView":51,
			"componentType":5126,
			"count":40,
			"type":"VEC3"
		},
		{
			"bufferView":52,
			"componentType":5126,
			"count":2,
			"type":"VEC4"
		},
		{
			"bufferView":53,
			"componentType":5126,
			"count":2,
			"type":"VEC3"
		},
		{
			"bufferView":54,
			"componentType":5126,
			"count":40,
			"type":"VEC3"
		},
		{
			"bufferView":55,
			"componentType":5126,
			"count":2,
			"type":"VEC4"
		},
		{
			"bufferView":56,
			"componentType":5126,
			"count":2,
			"type":"VEC3"
		},
		{
			"bufferView":57,
			"componentType":5126,
			"count":2,
			"type":"VEC3"
		},
		{
			"bufferView":58,
			"componentType":5126,
			"count":2,
			"type":"VEC4"
		},
		{
			"bufferView":59,
			"componentType":5126,
			"count":2,
			"type":"VEC3"
		}
	],
	"bufferViews":[
		{
			"buffer":0,
			"byteLength":2652,
			"byteOffset":0,
			"target":34962
		},
		{
			"buffer":0,
			"byteLength":2652,
			"byteOffset":2652,
			"target":34962
		},
		{
			"buffer":0,
			"byteLength":1768,
			"byteOffset":5304,
			"target":34962
		},
		{
			"buffer":0,
			"byteLength":1768,
			"byteOffset":7072,
			"target":34962
		},
		{
			"buffer":0,
			"byteLength":884,
			"byteOffset":8840,
			"target":34962
		},
		{
			"buffer":0,
			"byteLength":3536,
			"byteOffset":9724,
			"target":34962
		},
		{
			"buffer":0,
			"byteLength":780,
			"byteOffset":13260,
			"target":34963
		},
		{
			"buffer":0,
			"byteLength":256,
			"byteOffset":14040
		},
		{
			"buffer":0,
			"byteLength":8,
			"byteOffset":14296
		},
		{
			"buffer":0,
			"byteLength":24,
			"byteOffset":14304
		},
		{
			"buffer":0,
			"byteLength":32,
			"byteOffset":14328
		},
		{
			"buffer":0,
			"byteLength":24,
			"byteOffset":14360
		},
		{
			"buffer":0,
			"byteLength":160,
			"byteOffset":14384
		},
		{
			"buffer":0,
			"byteLength":480,
			"byteOffset":14544
		},
		{
			"buffer":0,
			"byteLength":32,
			"byteOffset":15024
		},
		{
			"buffer":0,
			"byteLength":24,
			"byteOffset":15056
		},
		{
			"buffer":0,
			"byteLength":480,
			"byteOffset":15080
		},
		{
			"buffer":0,
			"byteLength":32,
			"byteOffset":15560
		},
		{
			"buffer":0,
			"byteLength":24,
			"byteOffset":15592
		},
		{
			"buffer":0,
			"byteLength":24,
			"byteOffset":15616
		},
		{
			"buffer":0,
			"byteLength":32,
			"byteOffset":15640
		},
		{
			"buffer":0,
			"byteLength":24,
			"byteOffset":15672
		},
		{
			"buffer":0,
			"byteLength":8,
			"byteOffset":15696
		},
		{
			"buffer":0,
			"byteLength":24,
			"byteOffset":15704
		},
		{
			"buffer":0,
			"byteLength":32,
			"byteOffset":15728
		},
		{
			"buffer":0,
			"byteLength":24,
			"byteOffset":15760
		},
		{
			"buffer":0,
			"byteLength":24,
			"byteOffset":15784
		},
		{
			"buffer":0,
			"byteLength":32,
			"byteOffset":15808
		},
		{
			"buffer":0,
			"byteLength":24,
			"byteOffset":15840
		},
		{
			"buffer":0,
			"byteLength":24,
			"byteOffset":15864
		},
		{
			"buffer":0,
			"byteLength":32,
			"byteOffset":15888
		},
		{
			"buffer":0,
			"byteLength":24,
			"byteOffset":15920
		},
		{
			"buffer":0,
			"byteLength":24,
			"byteOffset":15944
		},
		{
			"buffer":0,
			"byteLength":40,
			"byteOffset":15968
		},
		{
			"buffer":0,
			"byteLength":160,
			"byteOffset":16008
		},
		{
			"buffer":0,
			"byteLength":24,
			"byteOffset":16168
		},
		{
			"buffer":0,
			"byteLength":24,
			"byteOffset":16192
		},
		{
			"buffer":0,
			"byteLength":32,
			"byteOffset":16216
		},
		{
			"buffer":0,
			"byteLength":24,
			"byteOffset":16248
		},
		{
			"buffer":0,
			"byteLength":24,
			"byteOffset":16272
		},
		{
			"buffer":0,
			"byteLength":32,
			"byteOffset":16296
		},
		{
			"buffer":0,
			"byteLength":24,
			"byteOffset":16328
		},
		{
			"buffer":0,
			"byteLength":24,
			"byteOffset":16352
		},
		{
			"buffer":0,
			"byteLength":32,
			"byteOffset":16376
		},
		{
			"buffer":0,
			"byteLength":24,
			"byteOffset":16408
		},
		{
			"buffer":0,
			"byteLength":24,
			"byteOffset":16432
		},
		{
			"buffer":0,
			"byteLength":160,
			"byteOffset":16456
		},
		{
			"buffer":0,
			"byteLength":24,
			"byteOffset":16616
		},
		{
			"buffer":0,
			"byteLength":24,
			"byteOffset":16640
		},
		{
			"buffer":0,
			"byteLength":32,
			"byteOffset":16664
		},
		{
			"buffer":0,
			"byteLength":24,
			"byteOffset":16696
		},
		{
			"buffer":0,
			"byteLength":480,
			"byteOffset":16720
		},
		{
			"buffer":0,
			"byteLength":32,
			"byteOffset":17200
		},
		{
			"buffer":0,
			"byteLength":24,
			"byteOffset":17232
		},
		{
			"buffer":0,
			"byteLength":480,
			"byteOffset":17256
		},
		{
			"buffer":0,
			"byteLength":32,
			"byteOffset":17736
		},
		{
			"buffer":0,
			"byteLength":24,
			"byteOffset":17768
		},
		{
			"buffer":0,
			"byteLength":24,
			"byteOffset":17792
		},
		{
			"buffer":0,
			"byteLength":32,
			"byteOffset":17816
		},
		{
			"buffer":0,
			"byteLength":24,
			"byteOffset":17848
		}
	],
	"samplers":[
		{
			"magFilter":9729,
			"minFilter":9987
		}
	],
	"buffers":[
		{
			"byteLength":17872,
			"uri":"Elevator.bin"
		}
	]
}
