# Blender 4.4.1
# www.blender.org
mtllib timeCard.mtl
o Circle
v 0.006503 0.018745 -0.012432
v -0.017700 0.013890 -0.012432
v -0.025031 0.000000 -0.012432
v -0.017700 -0.013890 -0.012432
v 0.000000 -0.019644 -0.012432
v 0.017700 -0.013890 -0.012432
v 0.025031 0.000000 -0.012432
v 0.009844 0.017659 -0.012432
v 0.000000 0.019644 0.005293
v -0.017700 0.013890 0.005293
v -0.025031 0.000000 0.005293
v -0.017700 -0.013890 0.005293
v 0.000000 -0.019644 0.005293
v 0.017700 -0.013890 0.005293
v 0.025031 0.000000 0.005293
v 0.017700 0.013890 0.005293
v 0.000000 0.017769 -0.011586
v -0.016010 0.012564 -0.011586
v -0.022642 0.000000 -0.011586
v -0.016010 -0.012564 -0.011586
v 0.000000 -0.017769 -0.011586
v 0.016010 -0.012564 -0.011586
v 0.022642 0.000000 -0.011586
v 0.016010 0.012564 -0.011586
v 0.000000 0.017769 0.004447
v -0.016010 0.012564 0.004447
v -0.022642 0.000000 0.004447
v -0.016010 -0.012564 0.004447
v 0.000000 -0.017769 0.004447
v 0.016010 -0.012564 0.004447
v 0.022642 0.000000 0.004447
v 0.016010 0.012564 0.004447
v 0.007214 0.020931 -0.012432
v 0.010554 0.019845 -0.012432
v 0.001373 0.023867 0.005293
v 0.016694 0.018886 0.005293
v 0.019978 0.013150 -0.012432
v 0.022129 0.012451 -0.010170
v 0.022129 0.012451 0.003031
v 0.019978 0.013150 0.005293
v 0.023501 0.016674 -0.010170
v 0.021351 0.017373 -0.012432
v 0.021351 0.017373 0.005293
v 0.023501 0.016674 0.003031
v 0.000000 0.019644 -0.012432
v 0.017700 0.013890 -0.012432
v 0.001373 0.023867 -0.012432
v 0.016694 0.018886 -0.012432
v 0.006503 0.018745 -0.015381
v 0.009844 0.017659 -0.015381
v 0.007214 0.020931 -0.015381
v 0.010554 0.019845 -0.015381
vn 0.4246 -0.5203 0.7410
vn -0.0000 -0.6412 -0.7674
vn 0.4246 -0.5203 -0.7410
vn -0.4246 -0.5203 0.7410
vn -0.7028 -0.0000 -0.7114
vn -0.4246 -0.5203 -0.7410
vn -0.4246 0.5203 0.7410
vn -0.2012 0.1849 -0.9619
vn -0.4246 0.5203 -0.7410
vn -0.6725 0.2186 0.7071
vn -0.0000 -0.0000 1.0000
vn 0.7028 -0.0000 0.7114
vn 0.7028 -0.0000 -0.7114
vn -0.0000 -0.6412 0.7674
vn -0.7028 -0.0000 0.7114
vn 0.3346 0.0303 -0.9419
vn -0.0000 0.8018 -0.5976
vn -0.4869 0.6056 0.6295
vn -0.4869 0.6056 -0.6295
vn 0.7376 -0.0000 -0.6752
vn 0.4869 0.6056 0.6295
vn 0.4869 0.6056 -0.6295
vn -0.0000 -0.8018 -0.5976
vn 0.4869 -0.6056 0.6295
vn 0.4869 -0.6056 -0.6295
vn -0.4869 -0.6056 -0.6295
vn -0.0000 -0.8018 0.5976
vn -0.7377 -0.0000 0.6752
vn -0.7376 -0.0000 -0.6752
vn -0.0000 0.8018 0.5976
vn 0.7376 -0.0000 0.6752
vn -0.4869 -0.6056 0.6295
vn 0.3345 0.0303 0.9419
vn -0.2012 0.1849 0.9620
vn 0.3091 0.9510 -0.0000
vn 0.3639 -0.1183 0.9239
vn -0.6725 0.2186 -0.7071
vn 0.1935 -0.3800 -0.9045
vn 0.7276 0.3706 -0.5773
vn 0.3800 0.1935 -0.9045
vn -0.0000 -0.0000 -1.0000
vn 0.3639 -0.1183 -0.9239
vn 0.8786 -0.2856 -0.3827
vn 0.8786 -0.2856 0.3827
vn -0.3091 -0.9510 -0.0000
vn -0.3799 -0.1935 -0.9045
vn -0.1935 0.3800 -0.9045
vn -0.7276 -0.3706 -0.5773
vn 0.3706 -0.7276 -0.5774
vn -0.3706 0.7276 -0.5773
vt 0.752918 0.181625
vt 0.619019 0.050968
vt 0.752918 0.050968
vt 0.485120 0.181625
vt 0.372120 0.050968
vt 0.485120 0.050968
vt 0.259120 0.181625
vt 0.125221 0.050968
vt 0.259120 0.050968
vt 0.494383 0.593892
vt 0.582967 0.618161
vt 0.494146 0.617260
vt 0.865918 0.181625
vt 0.865918 0.050968
vt 0.619019 0.181625
vt 0.372120 0.181625
vt 0.978918 0.050968
vt 0.619019 0.316780
vt 0.752918 0.198597
vt 0.752918 0.316780
vt 0.372120 0.316780
vt 0.485120 0.198597
vt 0.485120 0.316780
vt 0.125221 0.316780
vt 0.259120 0.198597
vt 0.259120 0.316780
vt 0.036701 0.316780
vt 0.125221 0.198597
vt 0.865918 0.198597
vt 0.865918 0.316780
vt 0.619019 0.198597
vt 0.372120 0.198597
vt 0.978918 0.316780
vt 0.978918 0.198597
vt 0.485120 0.033996
vt 0.619019 0.033996
vt 0.752918 0.033996
vt 0.865918 0.033996
vt 0.978918 0.033996
vt 0.978918 0.181625
vt 0.036701 0.033996
vt 0.125221 0.033996
vt 0.259120 0.033996
vt 0.125221 0.181625
vt 0.036701 0.198597
vt 0.036701 0.181625
vt 0.372120 0.033996
vt 0.651719 0.690246
vt 0.786812 0.620230
vt 0.786087 0.691610
vt 0.583204 0.594793
vt 0.610604 0.618441
vt 0.359778 0.615896
vt 0.360015 0.592528
vt 0.838247 0.786897
vt 0.860364 0.810492
vt 0.838010 0.810265
vt 0.787049 0.596862
vt 0.759175 0.619949
vt 0.759412 0.596582
vt 0.020447 0.816268
vt 0.088236 0.704339
vt 0.474468 0.724582
vt 0.735166 0.596335
vt 0.634850 0.618688
vt 0.635087 0.595320
vt 0.610841 0.595074
vt 0.152724 0.426766
vt 0.173454 0.383996
vt 0.315447 0.404797
vt 0.840170 0.597401
vt 0.787773 0.525482
vt 0.840895 0.526021
vt 0.839209 0.692149
vt 0.839933 0.620769
vt 0.838972 0.715517
vt 0.861326 0.715744
vt 0.950385 0.693278
vt 0.950147 0.716646
vt 0.860602 0.787124
vt 0.859640 0.881872
vt 0.837286 0.881646
vt 0.036701 0.050968
vt 0.652444 0.618866
vt 0.550217 0.834312
vt 0.035332 0.735849
vt 0.393939 0.691305
vt 0.734929 0.619703
vt 0.315419 0.426761
vt 0.152694 0.404799
vt 0.294689 0.384006
vt 0.785850 0.714978
vt 0.861563 0.692376
s 1
usemtl Material.001
f 14/1/1 5/2/2 6/3/3
f 12/4/4 3/5/5 4/6/6
f 10/7/7 45/8/8 2/9/9
f 9/10/10 36/11/11 35/12/10
f 15/13/12 6/3/3 7/14/13
f 13/15/14 4/6/6 5/2/2
f 11/16/15 2/9/9 3/5/5
f 46/17/16 15/13/12 7/14/13
f 21/18/17 30/19/18 22/20/19
f 19/21/20 28/22/21 20/23/22
f 17/24/23 26/25/24 18/26/25
f 24/27/26 25/28/27 17/24/23
f 22/20/19 31/29/28 23/30/29
f 20/23/22 29/31/30 21/18/17
f 18/26/25 27/32/31 19/21/20
f 24/33/26 31/29/28 32/34/32
f 5/2/2 20/35/22 21/36/17
f 13/15/14 28/22/21 12/4/4
f 5/2/2 22/37/19 6/3/3
f 13/15/14 30/19/18 29/31/30
f 6/3/3 23/38/29 7/14/13
f 14/1/1 31/29/28 30/19/18
f 46/17/16 23/38/29 24/39/26
f 16/40/33 31/29/28 15/13/12
f 45/8/8 24/41/26 17/42/23
f 45/8/8 18/43/25 2/9/9
f 9/44/34 32/45/32 16/46/33
f 9/44/34 26/25/24 25/28/27
f 2/9/9 19/47/20 3/5/5
f 10/7/7 27/32/31 26/25/24
f 4/6/6 19/47/20 20/35/22
f 12/4/4 27/32/31 11/16/15
f 35/48/35 48/49/35 47/50/35
f 16/51/11 43/52/36 36/11/11
f 9/10/10 47/53/37 45/54/37
f 8/55/38 52/56/39 34/57/40
f 46/58/41 42/59/42 37/60/42
f 36/61/35 44/62/35 42/63/35
f 38/64/43 44/65/44 39/66/44
f 44/65/44 40/67/36 39/66/44
f 42/59/42 38/64/43 37/60/42
f 46/68/45 38/69/45 40/70/45
f 8/71/38 45/72/37 1/73/46
f 33/74/47 48/49/41 34/75/40
f 8/71/38 48/49/41 46/58/41
f 1/76/46 47/50/37 33/74/47
f 49/77/48 52/78/39 50/79/49
f 8/55/38 49/77/48 50/80/49
f 33/74/47 49/77/48 1/76/46
f 34/57/40 51/81/50 33/82/47
f 14/1/1 13/15/14 5/2/2
f 12/4/4 11/16/15 3/5/5
f 10/7/7 9/44/34 45/8/8
f 9/10/10 16/51/11 36/11/11
f 15/13/12 14/1/1 6/3/3
f 13/15/14 12/4/4 4/6/6
f 11/16/15 10/7/7 2/9/9
f 46/17/16 16/40/33 15/13/12
f 21/18/17 29/31/30 30/19/18
f 19/21/20 27/32/31 28/22/21
f 17/24/23 25/28/27 26/25/24
f 24/27/26 32/45/32 25/28/27
f 22/20/19 30/19/18 31/29/28
f 20/23/22 28/22/21 29/31/30
f 18/26/25 26/25/24 27/32/31
f 24/33/26 23/30/29 31/29/28
f 5/2/2 4/6/6 20/35/22
f 13/15/14 29/31/30 28/22/21
f 5/2/2 21/36/17 22/37/19
f 13/15/14 14/1/1 30/19/18
f 6/3/3 22/37/19 23/38/29
f 14/1/1 15/13/12 31/29/28
f 46/17/16 7/14/13 23/38/29
f 16/40/33 32/34/32 31/29/28
f 45/8/8 46/83/16 24/41/26
f 45/8/8 17/42/23 18/43/25
f 9/44/34 25/28/27 32/45/32
f 9/44/34 10/7/7 26/25/24
f 2/9/9 18/43/25 19/47/20
f 10/7/7 11/16/15 27/32/31
f 4/6/6 3/5/5 19/47/20
f 12/4/4 28/22/21 27/32/31
f 35/48/35 36/84/35 48/49/35
f 16/51/11 40/67/36 43/52/36
f 9/10/10 35/12/10 47/53/37
f 8/55/38 50/80/49 52/56/39
f 46/58/41 48/49/41 42/59/42
f 42/63/35 48/85/35 36/61/35
f 36/61/35 43/86/35 44/62/35
f 44/62/35 41/87/35 42/63/35
f 38/64/43 41/88/43 44/65/44
f 44/65/44 43/52/36 40/67/36
f 42/59/42 41/88/43 38/64/43
f 40/70/45 16/89/45 46/68/45
f 46/68/45 37/90/45 38/69/45
f 38/69/45 39/91/45 40/70/45
f 8/71/38 46/58/41 45/72/37
f 33/74/47 47/50/37 48/49/41
f 8/71/38 34/75/40 48/49/41
f 1/76/46 45/92/37 47/50/37
f 49/77/48 51/93/50 52/78/39
f 8/55/38 1/76/46 49/77/48
f 33/74/47 51/93/50 49/77/48
f 34/57/40 52/56/39 51/81/50
