# Blender 4.4.1
# www.blender.org
mtllib elevatorRoom.mtl
o Cube.001
v 6.391892 0.012359 2.906425
v 6.391892 4.012359 2.906425
v -6.728570 0.012359 2.906425
v -6.728570 4.012359 2.906425
v 2.504941 0.012359 -2.908047
v -2.355082 0.012359 -2.908047
v 3.998652 3.958855 2.906425
v 4.985765 3.958855 2.906425
v 1.687264 3.181618 -2.898249
v 4.985765 0.015157 2.906425
v 3.998652 0.015157 2.906425
v -1.515151 3.196312 -2.908047
v 4.898196 0.015157 2.906406
v 4.106538 0.015157 2.906406
v 4.106538 1.815157 2.906406
v 4.898196 1.815157 2.906406
v 6.391892 0.012359 -2.908047
v 6.391892 4.012359 -2.908047
v -6.728570 0.012359 -2.908046
v -6.728570 4.012359 -2.908046
v 1.687264 -0.002335 -2.898249
v -1.515151 0.012359 -2.908047
v -2.355082 4.012359 -2.908047
v 2.504941 4.012359 -2.908047
vn -0.0000 -0.0000 -1.0000
vn 0.0013 -1.0000 0.0010
vn -0.0049 -1.0000 0.0009
vn 0.0028 -1.0000 -0.0093
vn -0.0003 -0.9999 -0.0122
vn 0.0286 -0.9994 -0.0177
vn 0.0192 -0.9997 -0.0127
vn -0.0001 -0.0000 -1.0000
vn 0.0001 -0.0000 -1.0000
vn -0.0002 -0.0000 -1.0000
vn 0.0002 -0.0000 -1.0000
vn -1.0000 -0.0000 -0.0000
vn 1.0000 -0.0000 -0.0000
vn -0.0000 -0.0000 1.0000
vn 0.0060 -0.0000 1.0000
vn 0.0120 -0.0000 0.9999
vn -0.0030 0.0147 0.9999
vn -0.0000 -1.0000 -0.0000
vt 0.817863 0.341654
vt 0.674326 0.011552
vt 0.674326 0.346130
vt 0.704541 0.383612
vt 0.671926 0.490143
vt 0.704544 0.537500
vt 0.671926 0.596668
vt 0.704544 0.561543
vt 0.972416 0.011552
vt 0.840289 0.341654
vt 0.972416 0.346130
vt 0.704541 0.703199
vt 0.820314 0.162346
vt 0.838300 0.162346
vt 0.817863 0.011786
vt 0.820314 0.011786
vt 0.840289 0.011786
vt 0.838300 0.011786
vt 0.661803 0.342178
vt 0.661805 0.011219
vt 0.992765 0.011221
vt 0.992763 0.342180
vt 0.772123 0.342179
vt 0.772125 0.011220
vt 0.882445 0.011220
vt 0.858779 0.313033
vt 0.795788 0.313032
vt 0.774078 0.011807
vt 0.795789 0.011807
vt 0.884398 0.009854
vt 0.858780 0.009854
vt 0.671925 0.383618
vt 0.671925 0.703193
vt 0.882443 0.342180
s 1
usemtl Material.011
f 7/1/1 3/2/1 4/3/1
f 4/4/2 23/5/3 7/6/4
f 7/6/4 24/7/5 8/8/6
f 1/9/1 8/10/1 2/11/1
f 24/7/5 2/12/7 8/8/6
f 15/13/8 8/10/1 16/14/9
f 11/15/8 15/13/8 14/16/10
f 16/14/9 10/17/9 13/18/11
f 18/19/12 1/20/12 2/19/12
f 19/21/13 4/22/13 3/21/13
f 17/20/14 24/23/15 5/24/16
f 6/25/14 20/22/14 19/21/14
f 24/23/17 12/26/17 9/27/17
f 5/28/16 9/27/16 21/29/16
f 12/26/14 6/30/14 22/31/14
f 7/1/1 11/15/8 3/2/1
f 4/4/2 20/32/18 23/5/3
f 7/6/4 23/5/3 24/7/5
f 1/9/1 10/17/9 8/10/1
f 24/7/5 18/33/18 2/12/7
f 15/13/8 7/1/1 8/10/1
f 11/15/8 7/1/1 15/13/8
f 16/14/9 8/10/1 10/17/9
f 18/19/12 17/20/12 1/20/12
f 19/21/13 20/22/13 4/22/13
f 17/20/14 18/19/14 24/23/14
f 6/25/14 23/34/14 20/22/14
f 24/23/14 23/34/14 12/26/14
f 5/28/16 24/23/15 9/27/16
f 12/26/14 23/34/14 6/30/14
