# Blender 4.4.1
# www.blender.org
mtllib elevatorRoom.mtl
o Cube.001
v 6.391892 0.012359 2.906425
v 6.391892 4.012359 2.906425
v -6.728570 0.012359 2.906425
v -6.728570 4.012359 2.906425
v 2.504941 0.012359 -2.908047
v -2.355082 0.012359 -2.908047
v -0.410790 3.958855 2.906425
v 0.576323 3.958855 2.906425
v 1.687264 3.181618 -2.898249
v 0.576323 0.015157 2.906425
v -0.410790 0.015157 2.906425
v -1.515151 3.196312 -2.908047
v 0.488754 0.015157 2.906406
v -0.302904 0.015157 2.906406
v -0.302904 1.815157 2.906406
v 0.488754 1.815157 2.906406
v 6.391892 0.012359 -2.908047
v 6.391892 4.012359 -2.908047
v -6.728570 0.012359 -2.908046
v -6.728570 4.012359 -2.908046
v 1.687264 -0.002335 -2.898249
v -1.515151 0.012359 -2.908047
v -2.355082 4.012359 -2.908047
v 2.504941 4.012359 -2.908047
vn -0.0000 -0.0000 -1.0000
vn -0.0085 -0.9999 -0.0064
vn -0.0000 -1.0000 -0.0092
vn 0.0092 -0.9999 -0.0061
vn -0.0002 -0.0000 -1.0000
vn 0.0002 -0.0000 -1.0000
vn -1.0000 -0.0000 -0.0000
vn 1.0000 -0.0000 -0.0000
vn -0.0000 -0.0000 1.0000
vn -0.0030 0.0147 0.9999
vn 0.0120 -0.0000 0.9999
vn -0.0000 -1.0000 -0.0000
vt 0.879184 0.331489
vt 0.992765 0.011221
vt 0.992763 0.342180
vt 0.704541 0.383612
vt 0.671926 0.490143
vt 0.704544 0.537500
vt 0.671926 0.596668
vt 0.704544 0.561543
vt 0.661805 0.011219
vt 0.775383 0.331488
vt 0.661803 0.342178
vt 0.704541 0.703199
vt 0.867839 0.323020
vt 0.786728 0.323019
vt 0.879186 0.011169
vt 0.867841 0.011337
vt 0.786728 0.153097
vt 0.775384 0.011168
vt 0.786729 0.011336
vt 0.772123 0.342179
vt 0.772125 0.011220
vt 0.882445 0.011220
vt 0.858779 0.313033
vt 0.795788 0.313032
vt 0.774078 0.011807
vt 0.795789 0.011807
vt 0.884398 0.009854
vt 0.858780 0.009854
vt 0.671925 0.383618
vt 0.671925 0.703193
vt 0.775383 0.161566
vt 0.882443 0.342180
s 0
usemtl Material.011
f 7/1/1 3/2/1 4/3/1
f 4/4/2 23/5/2 7/6/2
f 7/6/3 24/7/3 8/8/3
f 1/9/1 8/10/1 2/11/1
f 24/7/4 2/12/4 8/8/4
f 15/13/1 8/10/1 16/14/1
f 11/15/5 15/13/5 14/16/5
f 16/17/6 10/18/6 13/19/6
f 18/11/7 1/9/7 2/11/7
f 19/2/8 4/3/8 3/2/8
f 17/9/9 24/20/9 5/21/9
f 6/22/9 20/3/9 19/2/9
f 24/20/10 12/23/10 9/24/10
f 5/25/11 9/24/11 21/26/11
f 12/23/9 6/27/9 22/28/9
f 7/1/1 11/15/1 3/2/1
f 4/4/12 20/29/12 23/5/12
f 7/6/3 23/5/3 24/7/3
f 1/9/1 10/18/1 8/10/1
f 24/7/12 18/30/12 2/12/12
f 15/13/1 7/1/1 8/10/1
f 11/15/5 7/1/5 15/13/5
f 16/17/6 8/31/6 10/18/6
f 18/11/7 17/9/7 1/9/7
f 19/2/8 20/3/8 4/3/8
f 17/9/9 18/11/9 24/20/9
f 6/22/9 23/32/9 20/3/9
f 24/20/9 23/32/9 12/23/9
f 5/25/11 24/20/11 9/24/11
f 12/23/9 23/32/9 6/27/9
