{
	"asset":{
		"generator":"Khronos glTF Blender I/O v4.4.56",
		"version":"2.0"
	},
	"scene":0,
	"scenes":[
		{
			"name":"Scene",
			"nodes":[
				2,
				3
			]
		}
	],
	"nodes":[
		{
			"name":"monitor",
			"rotation":[
				0.7064917683601379,
				-0.029486527666449547,
				0.7064916491508484,
				0.029486173763871193
			],
			"scale":[
				1.0000120401382446,
				0.9999999403953552,
				1
			],
			"translation":[
				0,
				1.9872850179672241,
				0
			]
		},
		{
			"children":[
				0
			],
			"name":"base",
			"rotation":[
				-0.5000000596046448,
				0.5,
				-0.5,
				0.5
			],
			"translation":[
				0,
				0.0473465695977211,
				0.9020816087722778
			]
		},
		{
			"mesh":0,
			"name":"Cube.001",
			"skin":0
		},
		{
			"children":[
				1
			],
			"name":"Armature"
		}
	],
	"animations":[
		{
			"channels":[
				{
					"sampler":0,
					"target":{
						"node":1,
						"path":"translation"
					}
				},
				{
					"sampler":1,
					"target":{
						"node":1,
						"path":"rotation"
					}
				},
				{
					"sampler":2,
					"target":{
						"node":1,
						"path":"scale"
					}
				},
				{
					"sampler":3,
					"target":{
						"node":0,
						"path":"translation"
					}
				},
				{
					"sampler":4,
					"target":{
						"node":0,
						"path":"rotation"
					}
				},
				{
					"sampler":5,
					"target":{
						"node":0,
						"path":"scale"
					}
				}
			],
			"name":"Close",
			"samplers":[
				{
					"input":7,
					"interpolation":"STEP",
					"output":8
				},
				{
					"input":7,
					"interpolation":"STEP",
					"output":9
				},
				{
					"input":7,
					"interpolation":"STEP",
					"output":10
				},
				{
					"input":7,
					"interpolation":"STEP",
					"output":11
				},
				{
					"input":12,
					"interpolation":"LINEAR",
					"output":13
				},
				{
					"input":7,
					"interpolation":"STEP",
					"output":14
				}
			]
		},
		{
			"channels":[
				{
					"sampler":0,
					"target":{
						"node":1,
						"path":"translation"
					}
				},
				{
					"sampler":1,
					"target":{
						"node":1,
						"path":"rotation"
					}
				},
				{
					"sampler":2,
					"target":{
						"node":1,
						"path":"scale"
					}
				},
				{
					"sampler":3,
					"target":{
						"node":0,
						"path":"translation"
					}
				},
				{
					"sampler":4,
					"target":{
						"node":0,
						"path":"rotation"
					}
				},
				{
					"sampler":5,
					"target":{
						"node":0,
						"path":"scale"
					}
				}
			],
			"name":"Idle",
			"samplers":[
				{
					"input":15,
					"interpolation":"LINEAR",
					"output":16
				},
				{
					"input":15,
					"interpolation":"LINEAR",
					"output":17
				},
				{
					"input":15,
					"interpolation":"LINEAR",
					"output":18
				},
				{
					"input":15,
					"interpolation":"LINEAR",
					"output":19
				},
				{
					"input":15,
					"interpolation":"LINEAR",
					"output":20
				},
				{
					"input":15,
					"interpolation":"LINEAR",
					"output":21
				}
			]
		},
		{
			"channels":[
				{
					"sampler":0,
					"target":{
						"node":1,
						"path":"translation"
					}
				},
				{
					"sampler":1,
					"target":{
						"node":1,
						"path":"rotation"
					}
				},
				{
					"sampler":2,
					"target":{
						"node":1,
						"path":"scale"
					}
				},
				{
					"sampler":3,
					"target":{
						"node":0,
						"path":"translation"
					}
				},
				{
					"sampler":4,
					"target":{
						"node":0,
						"path":"rotation"
					}
				},
				{
					"sampler":5,
					"target":{
						"node":0,
						"path":"scale"
					}
				}
			],
			"name":"Open",
			"samplers":[
				{
					"input":7,
					"interpolation":"STEP",
					"output":22
				},
				{
					"input":7,
					"interpolation":"STEP",
					"output":23
				},
				{
					"input":7,
					"interpolation":"STEP",
					"output":24
				},
				{
					"input":7,
					"interpolation":"STEP",
					"output":25
				},
				{
					"input":12,
					"interpolation":"LINEAR",
					"output":26
				},
				{
					"input":7,
					"interpolation":"STEP",
					"output":27
				}
			]
		}
	],
	"materials":[
		{
			"doubleSided":true,
			"name":"Material.005",
			"pbrMetallicRoughness":{
				"baseColorTexture":{
					"index":0
				},
				"metallicFactor":0,
				"roughnessFactor":0.5
			}
		}
	],
	"meshes":[
		{
			"name":"Cube.004",
			"primitives":[
				{
					"attributes":{
						"POSITION":0,
						"NORMAL":1,
						"TEXCOORD_0":2,
						"JOINTS_0":3,
						"WEIGHTS_0":4
					},
					"indices":5,
					"material":0
				}
			]
		}
	],
	"textures":[
		{
			"sampler":0,
			"source":0
		}
	],
	"images":[
		{
			"mimeType":"image/png",
			"name":"tex",
			"uri":"tex.png"
		}
	],
	"skins":[
		{
			"inverseBindMatrices":6,
			"joints":[
				1,
				0
			],
			"name":"Armature"
		}
	],
	"accessors":[
		{
			"bufferView":0,
			"componentType":5126,
			"count":2383,
			"max":[
				1.6286046504974365,
				0.13608357310295105,
				1.084346890449524
			],
			"min":[
				-1.6286046504974365,
				-0.045205116271972656,
				-1.0843044519424438
			],
			"type":"VEC3"
		},
		{
			"bufferView":1,
			"componentType":5126,
			"count":2383,
			"type":"VEC3"
		},
		{
			"bufferView":2,
			"componentType":5126,
			"count":2383,
			"type":"VEC2"
		},
		{
			"bufferView":3,
			"componentType":5121,
			"count":2383,
			"type":"VEC4"
		},
		{
			"bufferView":4,
			"componentType":5126,
			"count":2383,
			"type":"VEC4"
		},
		{
			"bufferView":5,
			"componentType":5123,
			"count":3606,
			"type":"SCALAR"
		},
		{
			"bufferView":6,
			"componentType":5126,
			"count":2,
			"type":"MAT4"
		},
		{
			"bufferView":7,
			"componentType":5126,
			"count":2,
			"max":[
				1
			],
			"min":[
				0.016666666666666666
			],
			"type":"SCALAR"
		},
		{
			"bufferView":8,
			"componentType":5126,
			"count":2,
			"type":"VEC3"
		},
		{
			"bufferView":9,
			"componentType":5126,
			"count":2,
			"type":"VEC4"
		},
		{
			"bufferView":10,
			"componentType":5126,
			"count":2,
			"type":"VEC3"
		},
		{
			"bufferView":11,
			"componentType":5126,
			"count":2,
			"type":"VEC3"
		},
		{
			"bufferView":12,
			"componentType":5126,
			"count":60,
			"max":[
				1
			],
			"min":[
				0.016666666666666666
			],
			"type":"SCALAR"
		},
		{
			"bufferView":13,
			"componentType":5126,
			"count":60,
			"type":"VEC4"
		},
		{
			"bufferView":14,
			"componentType":5126,
			"count":2,
			"type":"VEC3"
		},
		{
			"bufferView":15,
			"componentType":5126,
			"count":1,
			"max":[
				0.016666666666666666
			],
			"min":[
				0.016666666666666666
			],
			"type":"SCALAR"
		},
		{
			"bufferView":16,
			"componentType":5126,
			"count":1,
			"type":"VEC3"
		},
		{
			"bufferView":17,
			"componentType":5126,
			"count":1,
			"type":"VEC4"
		},
		{
			"bufferView":18,
			"componentType":5126,
			"count":1,
			"type":"VEC3"
		},
		{
			"bufferView":19,
			"componentType":5126,
			"count":1,
			"type":"VEC3"
		},
		{
			"bufferView":20,
			"componentType":5126,
			"count":1,
			"type":"VEC4"
		},
		{
			"bufferView":21,
			"componentType":5126,
			"count":1,
			"type":"VEC3"
		},
		{
			"bufferView":22,
			"componentType":5126,
			"count":2,
			"type":"VEC3"
		},
		{
			"bufferView":23,
			"componentType":5126,
			"count":2,
			"type":"VEC4"
		},
		{
			"bufferView":24,
			"componentType":5126,
			"count":2,
			"type":"VEC3"
		},
		{
			"bufferView":25,
			"componentType":5126,
			"count":2,
			"type":"VEC3"
		},
		{
			"bufferView":26,
			"componentType":5126,
			"count":60,
			"type":"VEC4"
		},
		{
			"bufferView":27,
			"componentType":5126,
			"count":2,
			"type":"VEC3"
		}
	],
	"bufferViews":[
		{
			"buffer":0,
			"byteLength":28596,
			"byteOffset":0,
			"target":34962
		},
		{
			"buffer":0,
			"byteLength":28596,
			"byteOffset":28596,
			"target":34962
		},
		{
			"buffer":0,
			"byteLength":19064,
			"byteOffset":57192,
			"target":34962
		},
		{
			"buffer":0,
			"byteLength":9532,
			"byteOffset":76256,
			"target":34962
		},
		{
			"buffer":0,
			"byteLength":38128,
			"byteOffset":85788,
			"target":34962
		},
		{
			"buffer":0,
			"byteLength":7212,
			"byteOffset":123916,
			"target":34963
		},
		{
			"buffer":0,
			"byteLength":128,
			"byteOffset":131128
		},
		{
			"buffer":0,
			"byteLength":8,
			"byteOffset":131256
		},
		{
			"buffer":0,
			"byteLength":24,
			"byteOffset":131264
		},
		{
			"buffer":0,
			"byteLength":32,
			"byteOffset":131288
		},
		{
			"buffer":0,
			"byteLength":24,
			"byteOffset":131320
		},
		{
			"buffer":0,
			"byteLength":24,
			"byteOffset":131344
		},
		{
			"buffer":0,
			"byteLength":240,
			"byteOffset":131368
		},
		{
			"buffer":0,
			"byteLength":960,
			"byteOffset":131608
		},
		{
			"buffer":0,
			"byteLength":24,
			"byteOffset":132568
		},
		{
			"buffer":0,
			"byteLength":4,
			"byteOffset":132592
		},
		{
			"buffer":0,
			"byteLength":12,
			"byteOffset":132596
		},
		{
			"buffer":0,
			"byteLength":16,
			"byteOffset":132608
		},
		{
			"buffer":0,
			"byteLength":12,
			"byteOffset":132624
		},
		{
			"buffer":0,
			"byteLength":12,
			"byteOffset":132636
		},
		{
			"buffer":0,
			"byteLength":16,
			"byteOffset":132648
		},
		{
			"buffer":0,
			"byteLength":12,
			"byteOffset":132664
		},
		{
			"buffer":0,
			"byteLength":24,
			"byteOffset":132676
		},
		{
			"buffer":0,
			"byteLength":32,
			"byteOffset":132700
		},
		{
			"buffer":0,
			"byteLength":24,
			"byteOffset":132732
		},
		{
			"buffer":0,
			"byteLength":24,
			"byteOffset":132756
		},
		{
			"buffer":0,
			"byteLength":960,
			"byteOffset":132780
		},
		{
			"buffer":0,
			"byteLength":24,
			"byteOffset":133740
		}
	],
	"samplers":[
		{
			"magFilter":9729,
			"minFilter":9987
		}
	],
	"buffers":[
		{
			"byteLength":133764,
			"uri":"pc.bin"
		}
	]
}
